%TF.GenerationSoftware,KiCad,Pcbnew,4.0.7-e2-6376~58~ubuntu16.04.1*%
%TF.CreationDate,2018-01-20T15:47:02+01:00*%
%TF.ProjectId,BasicModule,42617369634D6F64756C652E6B696361,rev?*%
%TF.FileFunction,Legend,Bot*%
%FSLAX46Y46*%
G04 Gerber Fmt 4.6, Leading zero omitted, Abs format (unit mm)*
G04 Created by KiCad (PCBNEW 4.0.7-e2-6376~58~ubuntu16.04.1) date Sat Jan 20 15:47:02 2018*
%MOMM*%
%LPD*%
G01*
G04 APERTURE LIST*
%ADD10C,0.100000*%
%ADD11C,0.010000*%
G04 APERTURE END LIST*
D10*
D11*
G36*
X1838324Y-14779790D02*
X1868005Y-14789572D01*
X1885950Y-14794637D01*
X1905284Y-14804742D01*
X1917700Y-14814550D01*
X1936108Y-14828729D01*
X1943100Y-14831802D01*
X1961447Y-14836977D01*
X1998472Y-14851349D01*
X2049901Y-14873236D01*
X2063750Y-14879347D01*
X2096078Y-14893437D01*
X2117401Y-14902234D01*
X2120900Y-14903450D01*
X2135400Y-14909110D01*
X2164377Y-14921525D01*
X2178050Y-14927552D01*
X2239172Y-14954492D01*
X2279808Y-14971942D01*
X2298664Y-14979347D01*
X2298700Y-14979357D01*
X2313206Y-14985198D01*
X2342193Y-14997722D01*
X2355850Y-15003752D01*
X2418952Y-15031557D01*
X2459205Y-15048779D01*
X2476500Y-15055425D01*
X2490802Y-15061257D01*
X2520170Y-15074220D01*
X2540000Y-15083192D01*
X2594640Y-15107199D01*
X2629137Y-15120056D01*
X2645744Y-15122588D01*
X2646749Y-15122177D01*
X2658515Y-15127602D01*
X2678366Y-15143543D01*
X2697247Y-15157608D01*
X2705100Y-15157450D01*
X2712778Y-15156637D01*
X2727325Y-15167276D01*
X2748356Y-15183541D01*
X2758941Y-15188642D01*
X2787674Y-15196826D01*
X2836426Y-15216623D01*
X2870200Y-15231707D01*
X2904947Y-15246952D01*
X2929597Y-15256661D01*
X2935816Y-15258410D01*
X2951987Y-15264465D01*
X2948470Y-15276277D01*
X2929298Y-15290516D01*
X2898501Y-15303850D01*
X2872383Y-15310823D01*
X2846138Y-15318868D01*
X2834283Y-15323649D01*
X2813031Y-15332748D01*
X2806700Y-15335217D01*
X2789897Y-15341629D01*
X2760150Y-15353416D01*
X2728029Y-15366356D01*
X2705100Y-15375804D01*
X2684743Y-15384142D01*
X2679700Y-15386050D01*
X2663974Y-15392486D01*
X2652116Y-15397650D01*
X2624401Y-15407312D01*
X2614016Y-15409610D01*
X2588646Y-15418399D01*
X2578100Y-15424139D01*
X2548803Y-15436582D01*
X2534646Y-15439910D01*
X2506929Y-15448476D01*
X2496546Y-15454497D01*
X2476358Y-15464955D01*
X2442910Y-15477735D01*
X2432050Y-15481300D01*
X2397122Y-15493653D01*
X2372386Y-15504805D01*
X2368550Y-15507275D01*
X2352287Y-15516861D01*
X2349500Y-15517500D01*
X2342746Y-15518655D01*
X2329315Y-15522819D01*
X2304470Y-15531649D01*
X2263471Y-15546805D01*
X2228850Y-15559736D01*
X2188560Y-15574692D01*
X2158637Y-15585582D01*
X2146300Y-15589812D01*
X2130872Y-15595317D01*
X2101435Y-15606749D01*
X2067474Y-15620375D01*
X2044700Y-15629804D01*
X2024368Y-15637754D01*
X2019300Y-15639349D01*
X2005296Y-15644369D01*
X1973737Y-15656375D01*
X1930701Y-15673047D01*
X1917700Y-15678127D01*
X1872147Y-15695204D01*
X1835832Y-15707416D01*
X1815052Y-15712690D01*
X1812925Y-15712655D01*
X1809182Y-15723388D01*
X1806130Y-15754630D01*
X1804095Y-15801494D01*
X1803400Y-15855949D01*
X1804368Y-15914945D01*
X1807022Y-15962041D01*
X1810979Y-15992562D01*
X1815273Y-16002000D01*
X1835480Y-15997827D01*
X1856548Y-15990821D01*
X1882883Y-15981697D01*
X1895608Y-15978378D01*
X1912599Y-15972151D01*
X1940797Y-15958733D01*
X1943100Y-15957550D01*
X1971697Y-15943783D01*
X1989940Y-15936833D01*
X1990591Y-15936721D01*
X2008799Y-15931790D01*
X2032000Y-15923901D01*
X2066964Y-15911332D01*
X2086077Y-15905055D01*
X2097290Y-15902499D01*
X2098808Y-15902274D01*
X2115793Y-15895980D01*
X2144019Y-15882522D01*
X2146433Y-15881281D01*
X2171729Y-15870412D01*
X2184142Y-15869418D01*
X2184400Y-15870292D01*
X2192258Y-15869417D01*
X2209800Y-15855950D01*
X2228127Y-15842038D01*
X2235200Y-15841607D01*
X2244915Y-15842343D01*
X2268744Y-15832847D01*
X2273166Y-15830618D01*
X2299677Y-15817664D01*
X2313983Y-15812112D01*
X2314441Y-15812135D01*
X2327402Y-15808928D01*
X2354946Y-15799591D01*
X2388033Y-15787321D01*
X2413000Y-15777295D01*
X2433323Y-15769456D01*
X2438400Y-15767952D01*
X2453906Y-15761064D01*
X2457450Y-15759021D01*
X2475837Y-15751169D01*
X2509979Y-15738911D01*
X2540000Y-15728950D01*
X2580272Y-15715433D01*
X2611012Y-15704055D01*
X2622550Y-15698878D01*
X2639493Y-15690576D01*
X2641600Y-15689980D01*
X2656671Y-15684853D01*
X2684466Y-15674164D01*
X2686050Y-15673534D01*
X2723055Y-15659085D01*
X2743505Y-15652230D01*
X2754295Y-15650800D01*
X2757123Y-15651191D01*
X2772249Y-15645644D01*
X2782523Y-15638555D01*
X2804045Y-15626972D01*
X2840606Y-15612164D01*
X2870200Y-15601950D01*
X2910504Y-15588150D01*
X2941251Y-15576046D01*
X2952750Y-15570174D01*
X2972222Y-15560652D01*
X3005190Y-15548397D01*
X3016250Y-15544787D01*
X3051127Y-15533000D01*
X3075863Y-15523236D01*
X3079750Y-15521264D01*
X3102507Y-15511983D01*
X3105150Y-15511398D01*
X3124169Y-15505209D01*
X3155745Y-15492749D01*
X3165414Y-15488670D01*
X3196768Y-15475965D01*
X3216942Y-15469116D01*
X3219522Y-15468712D01*
X3234160Y-15463720D01*
X3261032Y-15451021D01*
X3263900Y-15449550D01*
X3292497Y-15435783D01*
X3310740Y-15428833D01*
X3311391Y-15428721D01*
X3330926Y-15423302D01*
X3363628Y-15411948D01*
X3399137Y-15398286D01*
X3403600Y-15396454D01*
X3428259Y-15387398D01*
X3435350Y-15385297D01*
X3454079Y-15378431D01*
X3485870Y-15365117D01*
X3498850Y-15359412D01*
X3531163Y-15345365D01*
X3552488Y-15336730D01*
X3556000Y-15335599D01*
X3569251Y-15328396D01*
X3596419Y-15311197D01*
X3618224Y-15296728D01*
X3654028Y-15272699D01*
X3683483Y-15253129D01*
X3693858Y-15246350D01*
X3723723Y-15223961D01*
X3757267Y-15194195D01*
X3788755Y-15162795D01*
X3812457Y-15135503D01*
X3822640Y-15118060D01*
X3822700Y-15117283D01*
X3829161Y-15101739D01*
X3833499Y-15100300D01*
X3843728Y-15089853D01*
X3860907Y-15062972D01*
X3881476Y-15026349D01*
X3901876Y-14986672D01*
X3918547Y-14950633D01*
X3927930Y-14924922D01*
X3928640Y-14921476D01*
X3936128Y-14896079D01*
X3938785Y-14890750D01*
X3942826Y-14872418D01*
X3946370Y-14836376D01*
X3948669Y-14790313D01*
X3948712Y-14788820D01*
X3951219Y-14699590D01*
X3830719Y-14700068D01*
X3778043Y-14700887D01*
X3735678Y-14702695D01*
X3709519Y-14705180D01*
X3704151Y-14706748D01*
X3699350Y-14721813D01*
X3693394Y-14754068D01*
X3689349Y-14782800D01*
X3682216Y-14824596D01*
X3673271Y-14856966D01*
X3667553Y-14868525D01*
X3660949Y-14882072D01*
X3663950Y-14884400D01*
X3664861Y-14892288D01*
X3656475Y-14904804D01*
X3636577Y-14933482D01*
X3626241Y-14951887D01*
X3607993Y-14975096D01*
X3577364Y-15002717D01*
X3562245Y-15014028D01*
X3522062Y-15040229D01*
X3475062Y-15068012D01*
X3426496Y-15094647D01*
X3381620Y-15117404D01*
X3345686Y-15133552D01*
X3323949Y-15140363D01*
X3320295Y-15139761D01*
X3304228Y-15131447D01*
X3304116Y-15131438D01*
X3289087Y-15126099D01*
X3258010Y-15112725D01*
X3219450Y-15095065D01*
X3178233Y-15076374D01*
X3145292Y-15062619D01*
X3128656Y-15057020D01*
X3106622Y-15047416D01*
X3096906Y-15040498D01*
X3077168Y-15027367D01*
X3070358Y-15024832D01*
X3040236Y-15015978D01*
X2989690Y-14995285D01*
X2959100Y-14981592D01*
X2924848Y-14966354D01*
X2901209Y-14956549D01*
X2895600Y-14954694D01*
X2880735Y-14947984D01*
X2870200Y-14941712D01*
X2846858Y-14930032D01*
X2838450Y-14927607D01*
X2820181Y-14921526D01*
X2788028Y-14908269D01*
X2768600Y-14899638D01*
X2684330Y-14861483D01*
X2611542Y-14828925D01*
X2553051Y-14803201D01*
X2511670Y-14785546D01*
X2490215Y-14777198D01*
X2489200Y-14776902D01*
X2475295Y-14771040D01*
X2445077Y-14757329D01*
X2406650Y-14739465D01*
X2365796Y-14720843D01*
X2333594Y-14707171D01*
X2317750Y-14701619D01*
X2296656Y-14693447D01*
X2286000Y-14687387D01*
X2266456Y-14676446D01*
X2260600Y-14674272D01*
X2246110Y-14668969D01*
X2217155Y-14656767D01*
X2203450Y-14650747D01*
X2145163Y-14625039D01*
X2107232Y-14608757D01*
X2086924Y-14600741D01*
X2082800Y-14599519D01*
X2067910Y-14592429D01*
X2057400Y-14586112D01*
X2034049Y-14574362D01*
X2025650Y-14571880D01*
X2008304Y-14565725D01*
X1975401Y-14551681D01*
X1936750Y-14534034D01*
X1896719Y-14515719D01*
X1866154Y-14502612D01*
X1852083Y-14497661D01*
X1836064Y-14489353D01*
X1834091Y-14487525D01*
X1821499Y-14479206D01*
X1812738Y-14485443D01*
X1807204Y-14508898D01*
X1804294Y-14552232D01*
X1803402Y-14618108D01*
X1803399Y-14622807D01*
X1803399Y-14767615D01*
X1838324Y-14779790D01*
X1838324Y-14779790D01*
G37*
X1838324Y-14779790D02*
X1868005Y-14789572D01*
X1885950Y-14794637D01*
X1905284Y-14804742D01*
X1917700Y-14814550D01*
X1936108Y-14828729D01*
X1943100Y-14831802D01*
X1961447Y-14836977D01*
X1998472Y-14851349D01*
X2049901Y-14873236D01*
X2063750Y-14879347D01*
X2096078Y-14893437D01*
X2117401Y-14902234D01*
X2120900Y-14903450D01*
X2135400Y-14909110D01*
X2164377Y-14921525D01*
X2178050Y-14927552D01*
X2239172Y-14954492D01*
X2279808Y-14971942D01*
X2298664Y-14979347D01*
X2298700Y-14979357D01*
X2313206Y-14985198D01*
X2342193Y-14997722D01*
X2355850Y-15003752D01*
X2418952Y-15031557D01*
X2459205Y-15048779D01*
X2476500Y-15055425D01*
X2490802Y-15061257D01*
X2520170Y-15074220D01*
X2540000Y-15083192D01*
X2594640Y-15107199D01*
X2629137Y-15120056D01*
X2645744Y-15122588D01*
X2646749Y-15122177D01*
X2658515Y-15127602D01*
X2678366Y-15143543D01*
X2697247Y-15157608D01*
X2705100Y-15157450D01*
X2712778Y-15156637D01*
X2727325Y-15167276D01*
X2748356Y-15183541D01*
X2758941Y-15188642D01*
X2787674Y-15196826D01*
X2836426Y-15216623D01*
X2870200Y-15231707D01*
X2904947Y-15246952D01*
X2929597Y-15256661D01*
X2935816Y-15258410D01*
X2951987Y-15264465D01*
X2948470Y-15276277D01*
X2929298Y-15290516D01*
X2898501Y-15303850D01*
X2872383Y-15310823D01*
X2846138Y-15318868D01*
X2834283Y-15323649D01*
X2813031Y-15332748D01*
X2806700Y-15335217D01*
X2789897Y-15341629D01*
X2760150Y-15353416D01*
X2728029Y-15366356D01*
X2705100Y-15375804D01*
X2684743Y-15384142D01*
X2679700Y-15386050D01*
X2663974Y-15392486D01*
X2652116Y-15397650D01*
X2624401Y-15407312D01*
X2614016Y-15409610D01*
X2588646Y-15418399D01*
X2578100Y-15424139D01*
X2548803Y-15436582D01*
X2534646Y-15439910D01*
X2506929Y-15448476D01*
X2496546Y-15454497D01*
X2476358Y-15464955D01*
X2442910Y-15477735D01*
X2432050Y-15481300D01*
X2397122Y-15493653D01*
X2372386Y-15504805D01*
X2368550Y-15507275D01*
X2352287Y-15516861D01*
X2349500Y-15517500D01*
X2342746Y-15518655D01*
X2329315Y-15522819D01*
X2304470Y-15531649D01*
X2263471Y-15546805D01*
X2228850Y-15559736D01*
X2188560Y-15574692D01*
X2158637Y-15585582D01*
X2146300Y-15589812D01*
X2130872Y-15595317D01*
X2101435Y-15606749D01*
X2067474Y-15620375D01*
X2044700Y-15629804D01*
X2024368Y-15637754D01*
X2019300Y-15639349D01*
X2005296Y-15644369D01*
X1973737Y-15656375D01*
X1930701Y-15673047D01*
X1917700Y-15678127D01*
X1872147Y-15695204D01*
X1835832Y-15707416D01*
X1815052Y-15712690D01*
X1812925Y-15712655D01*
X1809182Y-15723388D01*
X1806130Y-15754630D01*
X1804095Y-15801494D01*
X1803400Y-15855949D01*
X1804368Y-15914945D01*
X1807022Y-15962041D01*
X1810979Y-15992562D01*
X1815273Y-16002000D01*
X1835480Y-15997827D01*
X1856548Y-15990821D01*
X1882883Y-15981697D01*
X1895608Y-15978378D01*
X1912599Y-15972151D01*
X1940797Y-15958733D01*
X1943100Y-15957550D01*
X1971697Y-15943783D01*
X1989940Y-15936833D01*
X1990591Y-15936721D01*
X2008799Y-15931790D01*
X2032000Y-15923901D01*
X2066964Y-15911332D01*
X2086077Y-15905055D01*
X2097290Y-15902499D01*
X2098808Y-15902274D01*
X2115793Y-15895980D01*
X2144019Y-15882522D01*
X2146433Y-15881281D01*
X2171729Y-15870412D01*
X2184142Y-15869418D01*
X2184400Y-15870292D01*
X2192258Y-15869417D01*
X2209800Y-15855950D01*
X2228127Y-15842038D01*
X2235200Y-15841607D01*
X2244915Y-15842343D01*
X2268744Y-15832847D01*
X2273166Y-15830618D01*
X2299677Y-15817664D01*
X2313983Y-15812112D01*
X2314441Y-15812135D01*
X2327402Y-15808928D01*
X2354946Y-15799591D01*
X2388033Y-15787321D01*
X2413000Y-15777295D01*
X2433323Y-15769456D01*
X2438400Y-15767952D01*
X2453906Y-15761064D01*
X2457450Y-15759021D01*
X2475837Y-15751169D01*
X2509979Y-15738911D01*
X2540000Y-15728950D01*
X2580272Y-15715433D01*
X2611012Y-15704055D01*
X2622550Y-15698878D01*
X2639493Y-15690576D01*
X2641600Y-15689980D01*
X2656671Y-15684853D01*
X2684466Y-15674164D01*
X2686050Y-15673534D01*
X2723055Y-15659085D01*
X2743505Y-15652230D01*
X2754295Y-15650800D01*
X2757123Y-15651191D01*
X2772249Y-15645644D01*
X2782523Y-15638555D01*
X2804045Y-15626972D01*
X2840606Y-15612164D01*
X2870200Y-15601950D01*
X2910504Y-15588150D01*
X2941251Y-15576046D01*
X2952750Y-15570174D01*
X2972222Y-15560652D01*
X3005190Y-15548397D01*
X3016250Y-15544787D01*
X3051127Y-15533000D01*
X3075863Y-15523236D01*
X3079750Y-15521264D01*
X3102507Y-15511983D01*
X3105150Y-15511398D01*
X3124169Y-15505209D01*
X3155745Y-15492749D01*
X3165414Y-15488670D01*
X3196768Y-15475965D01*
X3216942Y-15469116D01*
X3219522Y-15468712D01*
X3234160Y-15463720D01*
X3261032Y-15451021D01*
X3263900Y-15449550D01*
X3292497Y-15435783D01*
X3310740Y-15428833D01*
X3311391Y-15428721D01*
X3330926Y-15423302D01*
X3363628Y-15411948D01*
X3399137Y-15398286D01*
X3403600Y-15396454D01*
X3428259Y-15387398D01*
X3435350Y-15385297D01*
X3454079Y-15378431D01*
X3485870Y-15365117D01*
X3498850Y-15359412D01*
X3531163Y-15345365D01*
X3552488Y-15336730D01*
X3556000Y-15335599D01*
X3569251Y-15328396D01*
X3596419Y-15311197D01*
X3618224Y-15296728D01*
X3654028Y-15272699D01*
X3683483Y-15253129D01*
X3693858Y-15246350D01*
X3723723Y-15223961D01*
X3757267Y-15194195D01*
X3788755Y-15162795D01*
X3812457Y-15135503D01*
X3822640Y-15118060D01*
X3822700Y-15117283D01*
X3829161Y-15101739D01*
X3833499Y-15100300D01*
X3843728Y-15089853D01*
X3860907Y-15062972D01*
X3881476Y-15026349D01*
X3901876Y-14986672D01*
X3918547Y-14950633D01*
X3927930Y-14924922D01*
X3928640Y-14921476D01*
X3936128Y-14896079D01*
X3938785Y-14890750D01*
X3942826Y-14872418D01*
X3946370Y-14836376D01*
X3948669Y-14790313D01*
X3948712Y-14788820D01*
X3951219Y-14699590D01*
X3830719Y-14700068D01*
X3778043Y-14700887D01*
X3735678Y-14702695D01*
X3709519Y-14705180D01*
X3704151Y-14706748D01*
X3699350Y-14721813D01*
X3693394Y-14754068D01*
X3689349Y-14782800D01*
X3682216Y-14824596D01*
X3673271Y-14856966D01*
X3667553Y-14868525D01*
X3660949Y-14882072D01*
X3663950Y-14884400D01*
X3664861Y-14892288D01*
X3656475Y-14904804D01*
X3636577Y-14933482D01*
X3626241Y-14951887D01*
X3607993Y-14975096D01*
X3577364Y-15002717D01*
X3562245Y-15014028D01*
X3522062Y-15040229D01*
X3475062Y-15068012D01*
X3426496Y-15094647D01*
X3381620Y-15117404D01*
X3345686Y-15133552D01*
X3323949Y-15140363D01*
X3320295Y-15139761D01*
X3304228Y-15131447D01*
X3304116Y-15131438D01*
X3289087Y-15126099D01*
X3258010Y-15112725D01*
X3219450Y-15095065D01*
X3178233Y-15076374D01*
X3145292Y-15062619D01*
X3128656Y-15057020D01*
X3106622Y-15047416D01*
X3096906Y-15040498D01*
X3077168Y-15027367D01*
X3070358Y-15024832D01*
X3040236Y-15015978D01*
X2989690Y-14995285D01*
X2959100Y-14981592D01*
X2924848Y-14966354D01*
X2901209Y-14956549D01*
X2895600Y-14954694D01*
X2880735Y-14947984D01*
X2870200Y-14941712D01*
X2846858Y-14930032D01*
X2838450Y-14927607D01*
X2820181Y-14921526D01*
X2788028Y-14908269D01*
X2768600Y-14899638D01*
X2684330Y-14861483D01*
X2611542Y-14828925D01*
X2553051Y-14803201D01*
X2511670Y-14785546D01*
X2490215Y-14777198D01*
X2489200Y-14776902D01*
X2475295Y-14771040D01*
X2445077Y-14757329D01*
X2406650Y-14739465D01*
X2365796Y-14720843D01*
X2333594Y-14707171D01*
X2317750Y-14701619D01*
X2296656Y-14693447D01*
X2286000Y-14687387D01*
X2266456Y-14676446D01*
X2260600Y-14674272D01*
X2246110Y-14668969D01*
X2217155Y-14656767D01*
X2203450Y-14650747D01*
X2145163Y-14625039D01*
X2107232Y-14608757D01*
X2086924Y-14600741D01*
X2082800Y-14599519D01*
X2067910Y-14592429D01*
X2057400Y-14586112D01*
X2034049Y-14574362D01*
X2025650Y-14571880D01*
X2008304Y-14565725D01*
X1975401Y-14551681D01*
X1936750Y-14534034D01*
X1896719Y-14515719D01*
X1866154Y-14502612D01*
X1852083Y-14497661D01*
X1836064Y-14489353D01*
X1834091Y-14487525D01*
X1821499Y-14479206D01*
X1812738Y-14485443D01*
X1807204Y-14508898D01*
X1804294Y-14552232D01*
X1803402Y-14618108D01*
X1803399Y-14622807D01*
X1803399Y-14767615D01*
X1838324Y-14779790D01*
G36*
X3613150Y-14960600D02*
X3619500Y-14954250D01*
X3613150Y-14947900D01*
X3606800Y-14954250D01*
X3613150Y-14960600D01*
X3613150Y-14960600D01*
G37*
X3613150Y-14960600D02*
X3619500Y-14954250D01*
X3613150Y-14947900D01*
X3606800Y-14954250D01*
X3613150Y-14960600D01*
G36*
X2992094Y-16183299D02*
X2998060Y-16212961D01*
X3012950Y-16237637D01*
X3040856Y-16267528D01*
X3043979Y-16270656D01*
X3077368Y-16301495D01*
X3105286Y-16317897D01*
X3138569Y-16324900D01*
X3164390Y-16326630D01*
X3226545Y-16323463D01*
X3276377Y-16304843D01*
X3323505Y-16266853D01*
X3331668Y-16258472D01*
X3359223Y-16213879D01*
X3374146Y-16157265D01*
X3375004Y-16098985D01*
X3360585Y-16049806D01*
X3339648Y-16013730D01*
X3320459Y-15985008D01*
X3306699Y-15968716D01*
X3302000Y-15968979D01*
X3294167Y-15970934D01*
X3281711Y-15962872D01*
X3243727Y-15943712D01*
X3194418Y-15934637D01*
X3143574Y-15935907D01*
X3100986Y-15947781D01*
X3085969Y-15957667D01*
X3067781Y-15970663D01*
X3060700Y-15969270D01*
X3054415Y-15971942D01*
X3038347Y-15991130D01*
X3025775Y-16008576D01*
X3004994Y-16043672D01*
X2994429Y-16078603D01*
X2991044Y-16124697D01*
X2990962Y-16138450D01*
X2992094Y-16183299D01*
X2992094Y-16183299D01*
G37*
X2992094Y-16183299D02*
X2998060Y-16212961D01*
X3012950Y-16237637D01*
X3040856Y-16267528D01*
X3043979Y-16270656D01*
X3077368Y-16301495D01*
X3105286Y-16317897D01*
X3138569Y-16324900D01*
X3164390Y-16326630D01*
X3226545Y-16323463D01*
X3276377Y-16304843D01*
X3323505Y-16266853D01*
X3331668Y-16258472D01*
X3359223Y-16213879D01*
X3374146Y-16157265D01*
X3375004Y-16098985D01*
X3360585Y-16049806D01*
X3339648Y-16013730D01*
X3320459Y-15985008D01*
X3306699Y-15968716D01*
X3302000Y-15968979D01*
X3294167Y-15970934D01*
X3281711Y-15962872D01*
X3243727Y-15943712D01*
X3194418Y-15934637D01*
X3143574Y-15935907D01*
X3100986Y-15947781D01*
X3085969Y-15957667D01*
X3067781Y-15970663D01*
X3060700Y-15969270D01*
X3054415Y-15971942D01*
X3038347Y-15991130D01*
X3025775Y-16008576D01*
X3004994Y-16043672D01*
X2994429Y-16078603D01*
X2991044Y-16124697D01*
X2990962Y-16138450D01*
X2992094Y-16183299D01*
G36*
X1771838Y-17375951D02*
X1778720Y-17456714D01*
X1794384Y-17528718D01*
X1820762Y-17600045D01*
X1859786Y-17678774D01*
X1873552Y-17703800D01*
X1889081Y-17725067D01*
X1916560Y-17756935D01*
X1951575Y-17794883D01*
X1989714Y-17834390D01*
X2026563Y-17870936D01*
X2057710Y-17900001D01*
X2078742Y-17917066D01*
X2084332Y-17919700D01*
X2100167Y-17926274D01*
X2128062Y-17942797D01*
X2140339Y-17950894D01*
X2183452Y-17975385D01*
X2239681Y-18001177D01*
X2298011Y-18023689D01*
X2347427Y-18038341D01*
X2353839Y-18039663D01*
X2375476Y-18044582D01*
X2381250Y-18047016D01*
X2392938Y-18051439D01*
X2423969Y-18055138D01*
X2468294Y-18057974D01*
X2519862Y-18059807D01*
X2572622Y-18060496D01*
X2620525Y-18059901D01*
X2657522Y-18057884D01*
X2677560Y-18054302D01*
X2678344Y-18053887D01*
X2681857Y-18042653D01*
X2684824Y-18012967D01*
X2687268Y-17963820D01*
X2689209Y-17894204D01*
X2690671Y-17803110D01*
X2691675Y-17689528D01*
X2692243Y-17552451D01*
X2692400Y-17410769D01*
X2692400Y-16776337D01*
X2733155Y-16783517D01*
X2766873Y-16792628D01*
X2790305Y-16804304D01*
X2804217Y-16812470D01*
X2806700Y-16810758D01*
X2815683Y-16808844D01*
X2839210Y-16819598D01*
X2872148Y-16839625D01*
X2909364Y-16865530D01*
X2945724Y-16893919D01*
X2976096Y-16921398D01*
X2979802Y-16925215D01*
X3003674Y-16955682D01*
X3031658Y-16998966D01*
X3059097Y-17046894D01*
X3081336Y-17091293D01*
X3093718Y-17123988D01*
X3094163Y-17125950D01*
X3098484Y-17148378D01*
X3101344Y-17164050D01*
X3109033Y-17191678D01*
X3114125Y-17202628D01*
X3117826Y-17221092D01*
X3120199Y-17257635D01*
X3121267Y-17304972D01*
X3121055Y-17355819D01*
X3119588Y-17402890D01*
X3116891Y-17438901D01*
X3113261Y-17456150D01*
X3105062Y-17478945D01*
X3102151Y-17492851D01*
X3090219Y-17533020D01*
X3068370Y-17581249D01*
X3042496Y-17625713D01*
X3024175Y-17649293D01*
X3005134Y-17671373D01*
X2997200Y-17685116D01*
X2997200Y-17685126D01*
X2989275Y-17699362D01*
X2978150Y-17711964D01*
X2963166Y-17724191D01*
X2959100Y-17723841D01*
X2950920Y-17726061D01*
X2931009Y-17741110D01*
X2928825Y-17742991D01*
X2908915Y-17763288D01*
X2906433Y-17781479D01*
X2916930Y-17806154D01*
X2932933Y-17833841D01*
X2946122Y-17849671D01*
X2946390Y-17849844D01*
X2957519Y-17864183D01*
X2975117Y-17894422D01*
X2991391Y-17926018D01*
X3011615Y-17964463D01*
X3028620Y-17982961D01*
X3048317Y-17982217D01*
X3076614Y-17962935D01*
X3103950Y-17939451D01*
X3130283Y-17918529D01*
X3149120Y-17907503D01*
X3151575Y-17907000D01*
X3160812Y-17896554D01*
X3162300Y-17885833D01*
X3165924Y-17871651D01*
X3170161Y-17872528D01*
X3183507Y-17871429D01*
X3200659Y-17857320D01*
X3212158Y-17838853D01*
X3213100Y-17833262D01*
X3221817Y-17815808D01*
X3231586Y-17805867D01*
X3246717Y-17786401D01*
X3267741Y-17751014D01*
X3291097Y-17706845D01*
X3313226Y-17661030D01*
X3330567Y-17620705D01*
X3339561Y-17593010D01*
X3340100Y-17588329D01*
X3345130Y-17565263D01*
X3348934Y-17559499D01*
X3355876Y-17549210D01*
X3361019Y-17531637D01*
X3364800Y-17502754D01*
X3367653Y-17458539D01*
X3370016Y-17394965D01*
X3371153Y-17354550D01*
X3371874Y-17288495D01*
X3370754Y-17225889D01*
X3368032Y-17174410D01*
X3364613Y-17145000D01*
X3353440Y-17086395D01*
X3344504Y-17046130D01*
X3335861Y-17017490D01*
X3325568Y-16993762D01*
X3315336Y-16974683D01*
X3301250Y-16945928D01*
X3296196Y-16927789D01*
X3296857Y-16925776D01*
X3293389Y-16914320D01*
X3283256Y-16903954D01*
X3267001Y-16883341D01*
X3263900Y-16872363D01*
X3255247Y-16852883D01*
X3238500Y-16833850D01*
X3219460Y-16811543D01*
X3213100Y-16795928D01*
X3204462Y-16780513D01*
X3181632Y-16753434D01*
X3149232Y-16720092D01*
X3143250Y-16714328D01*
X3110289Y-16684031D01*
X3085708Y-16663647D01*
X3073864Y-16656727D01*
X3073400Y-16657407D01*
X3065448Y-16655730D01*
X3045441Y-16640013D01*
X3035300Y-16630650D01*
X3012099Y-16610648D01*
X2998597Y-16603315D01*
X2997200Y-16604842D01*
X2989371Y-16606249D01*
X2974975Y-16596448D01*
X2944929Y-16576253D01*
X2916139Y-16565154D01*
X2908300Y-16564562D01*
X2893562Y-16559618D01*
X2872550Y-16549358D01*
X2841548Y-16535421D01*
X2821750Y-16529222D01*
X2796046Y-16523641D01*
X2758725Y-16515233D01*
X2748172Y-16512814D01*
X2710139Y-16507580D01*
X2655844Y-16504552D01*
X2591792Y-16503599D01*
X2524492Y-16504589D01*
X2463800Y-16507243D01*
X2463800Y-16775174D01*
X2463800Y-17284793D01*
X2463772Y-17411813D01*
X2463613Y-17515710D01*
X2463208Y-17598761D01*
X2462443Y-17663244D01*
X2461201Y-17711437D01*
X2459368Y-17745615D01*
X2456831Y-17768058D01*
X2453473Y-17781041D01*
X2449179Y-17786841D01*
X2443836Y-17787738D01*
X2438508Y-17786384D01*
X2406142Y-17777851D01*
X2378578Y-17772076D01*
X2346653Y-17762602D01*
X2327669Y-17752292D01*
X2313831Y-17744210D01*
X2311400Y-17745941D01*
X2302272Y-17746280D01*
X2278733Y-17734990D01*
X2246545Y-17715872D01*
X2211471Y-17692728D01*
X2179275Y-17669358D01*
X2155720Y-17649565D01*
X2146571Y-17637221D01*
X2138811Y-17621953D01*
X2120429Y-17598044D01*
X2119595Y-17597080D01*
X2102474Y-17574277D01*
X2097160Y-17560612D01*
X2097370Y-17560217D01*
X2093572Y-17547226D01*
X2081423Y-17530508D01*
X2066607Y-17507947D01*
X2052324Y-17478067D01*
X2041704Y-17448994D01*
X2037874Y-17428853D01*
X2040565Y-17424400D01*
X2040289Y-17416658D01*
X2034224Y-17408029D01*
X2028824Y-17388708D01*
X2025680Y-17351348D01*
X2024749Y-17303208D01*
X2025987Y-17251545D01*
X2029351Y-17203617D01*
X2034798Y-17166682D01*
X2035692Y-17162925D01*
X2056049Y-17091385D01*
X2075203Y-17042336D01*
X2094288Y-17012978D01*
X2097448Y-17009886D01*
X2115449Y-16989758D01*
X2120900Y-16978028D01*
X2130512Y-16957933D01*
X2155096Y-16929707D01*
X2188276Y-16898839D01*
X2223672Y-16870823D01*
X2254907Y-16851148D01*
X2275141Y-16845219D01*
X2289504Y-16838574D01*
X2310066Y-16822356D01*
X2328993Y-16807818D01*
X2336800Y-16806928D01*
X2346124Y-16808535D01*
X2363950Y-16801162D01*
X2397698Y-16788005D01*
X2427450Y-16780903D01*
X2463800Y-16775174D01*
X2463800Y-16507243D01*
X2460449Y-16507390D01*
X2406171Y-16511871D01*
X2368164Y-16517899D01*
X2359025Y-16520695D01*
X2334503Y-16528735D01*
X2324102Y-16528487D01*
X2324100Y-16528409D01*
X2314330Y-16529219D01*
X2290374Y-16539529D01*
X2286000Y-16541750D01*
X2260649Y-16552654D01*
X2248170Y-16553696D01*
X2247900Y-16552807D01*
X2240041Y-16553682D01*
X2222500Y-16567150D01*
X2204222Y-16580529D01*
X2197100Y-16579850D01*
X2189376Y-16579200D01*
X2173844Y-16590609D01*
X2154006Y-16604285D01*
X2144133Y-16605199D01*
X2132087Y-16608592D01*
X2114620Y-16624222D01*
X2093549Y-16643199D01*
X2079915Y-16649700D01*
X2062240Y-16658780D01*
X2033271Y-16682854D01*
X1997690Y-16717167D01*
X1960180Y-16756967D01*
X1925424Y-16797502D01*
X1898105Y-16834017D01*
X1897668Y-16834672D01*
X1860593Y-16895902D01*
X1828866Y-16958610D01*
X1806304Y-17014733D01*
X1798185Y-17044798D01*
X1793246Y-17067904D01*
X1790672Y-17075150D01*
X1784803Y-17087560D01*
X1779679Y-17123646D01*
X1775461Y-17181690D01*
X1772306Y-17259974D01*
X1771806Y-17278350D01*
X1771838Y-17375951D01*
X1771838Y-17375951D01*
G37*
X1771838Y-17375951D02*
X1778720Y-17456714D01*
X1794384Y-17528718D01*
X1820762Y-17600045D01*
X1859786Y-17678774D01*
X1873552Y-17703800D01*
X1889081Y-17725067D01*
X1916560Y-17756935D01*
X1951575Y-17794883D01*
X1989714Y-17834390D01*
X2026563Y-17870936D01*
X2057710Y-17900001D01*
X2078742Y-17917066D01*
X2084332Y-17919700D01*
X2100167Y-17926274D01*
X2128062Y-17942797D01*
X2140339Y-17950894D01*
X2183452Y-17975385D01*
X2239681Y-18001177D01*
X2298011Y-18023689D01*
X2347427Y-18038341D01*
X2353839Y-18039663D01*
X2375476Y-18044582D01*
X2381250Y-18047016D01*
X2392938Y-18051439D01*
X2423969Y-18055138D01*
X2468294Y-18057974D01*
X2519862Y-18059807D01*
X2572622Y-18060496D01*
X2620525Y-18059901D01*
X2657522Y-18057884D01*
X2677560Y-18054302D01*
X2678344Y-18053887D01*
X2681857Y-18042653D01*
X2684824Y-18012967D01*
X2687268Y-17963820D01*
X2689209Y-17894204D01*
X2690671Y-17803110D01*
X2691675Y-17689528D01*
X2692243Y-17552451D01*
X2692400Y-17410769D01*
X2692400Y-16776337D01*
X2733155Y-16783517D01*
X2766873Y-16792628D01*
X2790305Y-16804304D01*
X2804217Y-16812470D01*
X2806700Y-16810758D01*
X2815683Y-16808844D01*
X2839210Y-16819598D01*
X2872148Y-16839625D01*
X2909364Y-16865530D01*
X2945724Y-16893919D01*
X2976096Y-16921398D01*
X2979802Y-16925215D01*
X3003674Y-16955682D01*
X3031658Y-16998966D01*
X3059097Y-17046894D01*
X3081336Y-17091293D01*
X3093718Y-17123988D01*
X3094163Y-17125950D01*
X3098484Y-17148378D01*
X3101344Y-17164050D01*
X3109033Y-17191678D01*
X3114125Y-17202628D01*
X3117826Y-17221092D01*
X3120199Y-17257635D01*
X3121267Y-17304972D01*
X3121055Y-17355819D01*
X3119588Y-17402890D01*
X3116891Y-17438901D01*
X3113261Y-17456150D01*
X3105062Y-17478945D01*
X3102151Y-17492851D01*
X3090219Y-17533020D01*
X3068370Y-17581249D01*
X3042496Y-17625713D01*
X3024175Y-17649293D01*
X3005134Y-17671373D01*
X2997200Y-17685116D01*
X2997200Y-17685126D01*
X2989275Y-17699362D01*
X2978150Y-17711964D01*
X2963166Y-17724191D01*
X2959100Y-17723841D01*
X2950920Y-17726061D01*
X2931009Y-17741110D01*
X2928825Y-17742991D01*
X2908915Y-17763288D01*
X2906433Y-17781479D01*
X2916930Y-17806154D01*
X2932933Y-17833841D01*
X2946122Y-17849671D01*
X2946390Y-17849844D01*
X2957519Y-17864183D01*
X2975117Y-17894422D01*
X2991391Y-17926018D01*
X3011615Y-17964463D01*
X3028620Y-17982961D01*
X3048317Y-17982217D01*
X3076614Y-17962935D01*
X3103950Y-17939451D01*
X3130283Y-17918529D01*
X3149120Y-17907503D01*
X3151575Y-17907000D01*
X3160812Y-17896554D01*
X3162300Y-17885833D01*
X3165924Y-17871651D01*
X3170161Y-17872528D01*
X3183507Y-17871429D01*
X3200659Y-17857320D01*
X3212158Y-17838853D01*
X3213100Y-17833262D01*
X3221817Y-17815808D01*
X3231586Y-17805867D01*
X3246717Y-17786401D01*
X3267741Y-17751014D01*
X3291097Y-17706845D01*
X3313226Y-17661030D01*
X3330567Y-17620705D01*
X3339561Y-17593010D01*
X3340100Y-17588329D01*
X3345130Y-17565263D01*
X3348934Y-17559499D01*
X3355876Y-17549210D01*
X3361019Y-17531637D01*
X3364800Y-17502754D01*
X3367653Y-17458539D01*
X3370016Y-17394965D01*
X3371153Y-17354550D01*
X3371874Y-17288495D01*
X3370754Y-17225889D01*
X3368032Y-17174410D01*
X3364613Y-17145000D01*
X3353440Y-17086395D01*
X3344504Y-17046130D01*
X3335861Y-17017490D01*
X3325568Y-16993762D01*
X3315336Y-16974683D01*
X3301250Y-16945928D01*
X3296196Y-16927789D01*
X3296857Y-16925776D01*
X3293389Y-16914320D01*
X3283256Y-16903954D01*
X3267001Y-16883341D01*
X3263900Y-16872363D01*
X3255247Y-16852883D01*
X3238500Y-16833850D01*
X3219460Y-16811543D01*
X3213100Y-16795928D01*
X3204462Y-16780513D01*
X3181632Y-16753434D01*
X3149232Y-16720092D01*
X3143250Y-16714328D01*
X3110289Y-16684031D01*
X3085708Y-16663647D01*
X3073864Y-16656727D01*
X3073400Y-16657407D01*
X3065448Y-16655730D01*
X3045441Y-16640013D01*
X3035300Y-16630650D01*
X3012099Y-16610648D01*
X2998597Y-16603315D01*
X2997200Y-16604842D01*
X2989371Y-16606249D01*
X2974975Y-16596448D01*
X2944929Y-16576253D01*
X2916139Y-16565154D01*
X2908300Y-16564562D01*
X2893562Y-16559618D01*
X2872550Y-16549358D01*
X2841548Y-16535421D01*
X2821750Y-16529222D01*
X2796046Y-16523641D01*
X2758725Y-16515233D01*
X2748172Y-16512814D01*
X2710139Y-16507580D01*
X2655844Y-16504552D01*
X2591792Y-16503599D01*
X2524492Y-16504589D01*
X2463800Y-16507243D01*
X2463800Y-16775174D01*
X2463800Y-17284793D01*
X2463772Y-17411813D01*
X2463613Y-17515710D01*
X2463208Y-17598761D01*
X2462443Y-17663244D01*
X2461201Y-17711437D01*
X2459368Y-17745615D01*
X2456831Y-17768058D01*
X2453473Y-17781041D01*
X2449179Y-17786841D01*
X2443836Y-17787738D01*
X2438508Y-17786384D01*
X2406142Y-17777851D01*
X2378578Y-17772076D01*
X2346653Y-17762602D01*
X2327669Y-17752292D01*
X2313831Y-17744210D01*
X2311400Y-17745941D01*
X2302272Y-17746280D01*
X2278733Y-17734990D01*
X2246545Y-17715872D01*
X2211471Y-17692728D01*
X2179275Y-17669358D01*
X2155720Y-17649565D01*
X2146571Y-17637221D01*
X2138811Y-17621953D01*
X2120429Y-17598044D01*
X2119595Y-17597080D01*
X2102474Y-17574277D01*
X2097160Y-17560612D01*
X2097370Y-17560217D01*
X2093572Y-17547226D01*
X2081423Y-17530508D01*
X2066607Y-17507947D01*
X2052324Y-17478067D01*
X2041704Y-17448994D01*
X2037874Y-17428853D01*
X2040565Y-17424400D01*
X2040289Y-17416658D01*
X2034224Y-17408029D01*
X2028824Y-17388708D01*
X2025680Y-17351348D01*
X2024749Y-17303208D01*
X2025987Y-17251545D01*
X2029351Y-17203617D01*
X2034798Y-17166682D01*
X2035692Y-17162925D01*
X2056049Y-17091385D01*
X2075203Y-17042336D01*
X2094288Y-17012978D01*
X2097448Y-17009886D01*
X2115449Y-16989758D01*
X2120900Y-16978028D01*
X2130512Y-16957933D01*
X2155096Y-16929707D01*
X2188276Y-16898839D01*
X2223672Y-16870823D01*
X2254907Y-16851148D01*
X2275141Y-16845219D01*
X2289504Y-16838574D01*
X2310066Y-16822356D01*
X2328993Y-16807818D01*
X2336800Y-16806928D01*
X2346124Y-16808535D01*
X2363950Y-16801162D01*
X2397698Y-16788005D01*
X2427450Y-16780903D01*
X2463800Y-16775174D01*
X2463800Y-16507243D01*
X2460449Y-16507390D01*
X2406171Y-16511871D01*
X2368164Y-16517899D01*
X2359025Y-16520695D01*
X2334503Y-16528735D01*
X2324102Y-16528487D01*
X2324100Y-16528409D01*
X2314330Y-16529219D01*
X2290374Y-16539529D01*
X2286000Y-16541750D01*
X2260649Y-16552654D01*
X2248170Y-16553696D01*
X2247900Y-16552807D01*
X2240041Y-16553682D01*
X2222500Y-16567150D01*
X2204222Y-16580529D01*
X2197100Y-16579850D01*
X2189376Y-16579200D01*
X2173844Y-16590609D01*
X2154006Y-16604285D01*
X2144133Y-16605199D01*
X2132087Y-16608592D01*
X2114620Y-16624222D01*
X2093549Y-16643199D01*
X2079915Y-16649700D01*
X2062240Y-16658780D01*
X2033271Y-16682854D01*
X1997690Y-16717167D01*
X1960180Y-16756967D01*
X1925424Y-16797502D01*
X1898105Y-16834017D01*
X1897668Y-16834672D01*
X1860593Y-16895902D01*
X1828866Y-16958610D01*
X1806304Y-17014733D01*
X1798185Y-17044798D01*
X1793246Y-17067904D01*
X1790672Y-17075150D01*
X1784803Y-17087560D01*
X1779679Y-17123646D01*
X1775461Y-17181690D01*
X1772306Y-17259974D01*
X1771806Y-17278350D01*
X1771838Y-17375951D01*
G36*
X1776881Y-18910737D02*
X1802658Y-19029922D01*
X1849312Y-19135003D01*
X1917067Y-19226476D01*
X2006150Y-19304837D01*
X2013912Y-19310350D01*
X2057992Y-19337935D01*
X2085282Y-19347349D01*
X2095437Y-19338481D01*
X2095500Y-19336895D01*
X2104442Y-19315020D01*
X2114593Y-19303963D01*
X2129718Y-19284745D01*
X2150498Y-19250084D01*
X2170889Y-19210605D01*
X2192354Y-19157761D01*
X2197022Y-19122778D01*
X2184841Y-19104420D01*
X2166286Y-19100800D01*
X2144374Y-19090450D01*
X2116291Y-19063713D01*
X2086949Y-19027053D01*
X2061260Y-18986936D01*
X2044138Y-18949828D01*
X2040430Y-18935156D01*
X2033150Y-18909660D01*
X2030404Y-18903950D01*
X2023290Y-18876264D01*
X2020788Y-18832594D01*
X2022606Y-18781879D01*
X2028454Y-18733055D01*
X2037115Y-18697575D01*
X2047166Y-18665519D01*
X2050671Y-18646180D01*
X2049531Y-18643600D01*
X2053792Y-18635359D01*
X2071700Y-18613969D01*
X2093811Y-18589977D01*
X2124797Y-18559393D01*
X2149754Y-18543381D01*
X2179226Y-18537265D01*
X2214768Y-18536355D01*
X2260936Y-18538845D01*
X2292195Y-18548370D01*
X2318449Y-18567752D01*
X2344785Y-18596292D01*
X2362980Y-18623021D01*
X2363705Y-18624550D01*
X2378099Y-18652644D01*
X2397927Y-18687445D01*
X2400200Y-18691225D01*
X2414316Y-18717440D01*
X2418563Y-18731657D01*
X2417536Y-18732500D01*
X2417547Y-18740256D01*
X2423892Y-18749371D01*
X2437460Y-18775758D01*
X2442053Y-18793494D01*
X2449143Y-18819387D01*
X2455006Y-18829539D01*
X2462143Y-18848167D01*
X2463800Y-18865850D01*
X2467798Y-18892225D01*
X2473325Y-18902891D01*
X2482915Y-18919062D01*
X2483155Y-18920883D01*
X2487185Y-18943369D01*
X2496542Y-18980181D01*
X2508438Y-19021580D01*
X2520083Y-19057824D01*
X2528261Y-19078402D01*
X2538375Y-19106985D01*
X2540000Y-19119850D01*
X2549536Y-19152018D01*
X2575034Y-19193662D01*
X2611825Y-19239439D01*
X2655238Y-19284006D01*
X2700607Y-19322022D01*
X2736705Y-19344930D01*
X2817278Y-19373666D01*
X2908495Y-19384698D01*
X3002769Y-19378009D01*
X3092513Y-19353581D01*
X3110929Y-19345810D01*
X3140642Y-19328355D01*
X3176401Y-19301853D01*
X3212297Y-19271475D01*
X3242423Y-19242392D01*
X3260871Y-19219773D01*
X3263900Y-19211924D01*
X3271746Y-19195733D01*
X3288238Y-19175213D01*
X3309695Y-19144239D01*
X3320089Y-19119155D01*
X3330780Y-19084323D01*
X3342152Y-19053735D01*
X3354524Y-19021543D01*
X3361948Y-18999200D01*
X3364678Y-18977257D01*
X3367096Y-18936387D01*
X3369067Y-18883060D01*
X3370460Y-18823746D01*
X3371140Y-18764918D01*
X3370975Y-18713047D01*
X3369831Y-18674602D01*
X3368876Y-18662650D01*
X3363103Y-18628529D01*
X3356685Y-18605500D01*
X3347467Y-18577641D01*
X3345498Y-18569504D01*
X3336047Y-18542263D01*
X3318320Y-18503783D01*
X3296691Y-18462362D01*
X3275535Y-18426301D01*
X3259225Y-18403902D01*
X3257258Y-18402057D01*
X3241337Y-18381537D01*
X3238500Y-18371035D01*
X3229447Y-18353973D01*
X3206165Y-18328541D01*
X3174467Y-18299575D01*
X3140166Y-18271912D01*
X3109076Y-18250388D01*
X3087009Y-18239842D01*
X3081217Y-18240170D01*
X3069202Y-18235267D01*
X3051394Y-18221222D01*
X3032058Y-18206529D01*
X3017803Y-18210021D01*
X3003643Y-18224397D01*
X2990288Y-18242714D01*
X2991095Y-18249900D01*
X2991349Y-18257898D01*
X2977544Y-18277269D01*
X2976493Y-18278475D01*
X2953375Y-18310049D01*
X2930931Y-18349180D01*
X2912544Y-18388636D01*
X2901596Y-18421186D01*
X2901269Y-18439298D01*
X2919788Y-18452388D01*
X2925054Y-18453100D01*
X2943909Y-18461116D01*
X2970039Y-18480749D01*
X2973739Y-18484098D01*
X2997532Y-18502503D01*
X3013378Y-18508181D01*
X3014885Y-18507381D01*
X3021521Y-18510385D01*
X3022600Y-18519278D01*
X3031649Y-18543390D01*
X3041884Y-18554894D01*
X3061122Y-18578663D01*
X3081932Y-18614980D01*
X3098159Y-18652194D01*
X3103311Y-18671188D01*
X3110925Y-18696362D01*
X3113133Y-18700750D01*
X3117655Y-18720863D01*
X3120347Y-18757279D01*
X3121290Y-18802741D01*
X3120562Y-18849992D01*
X3118242Y-18891774D01*
X3114410Y-18920833D01*
X3110637Y-18929882D01*
X3100727Y-18947144D01*
X3097871Y-18965024D01*
X3086092Y-19008634D01*
X3057872Y-19052674D01*
X3019881Y-19087039D01*
X3015585Y-19089681D01*
X2982124Y-19102920D01*
X2941338Y-19110672D01*
X2901971Y-19112311D01*
X2872765Y-19107208D01*
X2863721Y-19100592D01*
X2848998Y-19092950D01*
X2844712Y-19094504D01*
X2832496Y-19088487D01*
X2812362Y-19065472D01*
X2787878Y-19031115D01*
X2762611Y-18991073D01*
X2740130Y-18951001D01*
X2724003Y-18916556D01*
X2717800Y-18893393D01*
X2717800Y-18893332D01*
X2713414Y-18877944D01*
X2702989Y-18850801D01*
X2692085Y-18823579D01*
X2686808Y-18808700D01*
X2680776Y-18784257D01*
X2670861Y-18747052D01*
X2659720Y-18706726D01*
X2650011Y-18672923D01*
X2644790Y-18656300D01*
X2636165Y-18628280D01*
X2634309Y-18620383D01*
X2626305Y-18594080D01*
X2621620Y-18582283D01*
X2611146Y-18552278D01*
X2608368Y-18541099D01*
X2589747Y-18491956D01*
X2555386Y-18437680D01*
X2510549Y-18383888D01*
X2460498Y-18336198D01*
X2410498Y-18300228D01*
X2365810Y-18281596D01*
X2365120Y-18281460D01*
X2346460Y-18276958D01*
X2343150Y-18275300D01*
X2331840Y-18270572D01*
X2303285Y-18265052D01*
X2265548Y-18260115D01*
X2241550Y-18257982D01*
X2159101Y-18262420D01*
X2073932Y-18285165D01*
X2062184Y-18289813D01*
X2033451Y-18300817D01*
X2015883Y-18305985D01*
X2000583Y-18315517D01*
X1973843Y-18338848D01*
X1940922Y-18370641D01*
X1907079Y-18405556D01*
X1877574Y-18438255D01*
X1857666Y-18463400D01*
X1853048Y-18471257D01*
X1837767Y-18501700D01*
X1828822Y-18516600D01*
X1813926Y-18544943D01*
X1797012Y-18585280D01*
X1783199Y-18625227D01*
X1781579Y-18630900D01*
X1778913Y-18651210D01*
X1775971Y-18690409D01*
X1773191Y-18741993D01*
X1771755Y-18776950D01*
X1776881Y-18910737D01*
X1776881Y-18910737D01*
G37*
X1776881Y-18910737D02*
X1802658Y-19029922D01*
X1849312Y-19135003D01*
X1917067Y-19226476D01*
X2006150Y-19304837D01*
X2013912Y-19310350D01*
X2057992Y-19337935D01*
X2085282Y-19347349D01*
X2095437Y-19338481D01*
X2095500Y-19336895D01*
X2104442Y-19315020D01*
X2114593Y-19303963D01*
X2129718Y-19284745D01*
X2150498Y-19250084D01*
X2170889Y-19210605D01*
X2192354Y-19157761D01*
X2197022Y-19122778D01*
X2184841Y-19104420D01*
X2166286Y-19100800D01*
X2144374Y-19090450D01*
X2116291Y-19063713D01*
X2086949Y-19027053D01*
X2061260Y-18986936D01*
X2044138Y-18949828D01*
X2040430Y-18935156D01*
X2033150Y-18909660D01*
X2030404Y-18903950D01*
X2023290Y-18876264D01*
X2020788Y-18832594D01*
X2022606Y-18781879D01*
X2028454Y-18733055D01*
X2037115Y-18697575D01*
X2047166Y-18665519D01*
X2050671Y-18646180D01*
X2049531Y-18643600D01*
X2053792Y-18635359D01*
X2071700Y-18613969D01*
X2093811Y-18589977D01*
X2124797Y-18559393D01*
X2149754Y-18543381D01*
X2179226Y-18537265D01*
X2214768Y-18536355D01*
X2260936Y-18538845D01*
X2292195Y-18548370D01*
X2318449Y-18567752D01*
X2344785Y-18596292D01*
X2362980Y-18623021D01*
X2363705Y-18624550D01*
X2378099Y-18652644D01*
X2397927Y-18687445D01*
X2400200Y-18691225D01*
X2414316Y-18717440D01*
X2418563Y-18731657D01*
X2417536Y-18732500D01*
X2417547Y-18740256D01*
X2423892Y-18749371D01*
X2437460Y-18775758D01*
X2442053Y-18793494D01*
X2449143Y-18819387D01*
X2455006Y-18829539D01*
X2462143Y-18848167D01*
X2463800Y-18865850D01*
X2467798Y-18892225D01*
X2473325Y-18902891D01*
X2482915Y-18919062D01*
X2483155Y-18920883D01*
X2487185Y-18943369D01*
X2496542Y-18980181D01*
X2508438Y-19021580D01*
X2520083Y-19057824D01*
X2528261Y-19078402D01*
X2538375Y-19106985D01*
X2540000Y-19119850D01*
X2549536Y-19152018D01*
X2575034Y-19193662D01*
X2611825Y-19239439D01*
X2655238Y-19284006D01*
X2700607Y-19322022D01*
X2736705Y-19344930D01*
X2817278Y-19373666D01*
X2908495Y-19384698D01*
X3002769Y-19378009D01*
X3092513Y-19353581D01*
X3110929Y-19345810D01*
X3140642Y-19328355D01*
X3176401Y-19301853D01*
X3212297Y-19271475D01*
X3242423Y-19242392D01*
X3260871Y-19219773D01*
X3263900Y-19211924D01*
X3271746Y-19195733D01*
X3288238Y-19175213D01*
X3309695Y-19144239D01*
X3320089Y-19119155D01*
X3330780Y-19084323D01*
X3342152Y-19053735D01*
X3354524Y-19021543D01*
X3361948Y-18999200D01*
X3364678Y-18977257D01*
X3367096Y-18936387D01*
X3369067Y-18883060D01*
X3370460Y-18823746D01*
X3371140Y-18764918D01*
X3370975Y-18713047D01*
X3369831Y-18674602D01*
X3368876Y-18662650D01*
X3363103Y-18628529D01*
X3356685Y-18605500D01*
X3347467Y-18577641D01*
X3345498Y-18569504D01*
X3336047Y-18542263D01*
X3318320Y-18503783D01*
X3296691Y-18462362D01*
X3275535Y-18426301D01*
X3259225Y-18403902D01*
X3257258Y-18402057D01*
X3241337Y-18381537D01*
X3238500Y-18371035D01*
X3229447Y-18353973D01*
X3206165Y-18328541D01*
X3174467Y-18299575D01*
X3140166Y-18271912D01*
X3109076Y-18250388D01*
X3087009Y-18239842D01*
X3081217Y-18240170D01*
X3069202Y-18235267D01*
X3051394Y-18221222D01*
X3032058Y-18206529D01*
X3017803Y-18210021D01*
X3003643Y-18224397D01*
X2990288Y-18242714D01*
X2991095Y-18249900D01*
X2991349Y-18257898D01*
X2977544Y-18277269D01*
X2976493Y-18278475D01*
X2953375Y-18310049D01*
X2930931Y-18349180D01*
X2912544Y-18388636D01*
X2901596Y-18421186D01*
X2901269Y-18439298D01*
X2919788Y-18452388D01*
X2925054Y-18453100D01*
X2943909Y-18461116D01*
X2970039Y-18480749D01*
X2973739Y-18484098D01*
X2997532Y-18502503D01*
X3013378Y-18508181D01*
X3014885Y-18507381D01*
X3021521Y-18510385D01*
X3022600Y-18519278D01*
X3031649Y-18543390D01*
X3041884Y-18554894D01*
X3061122Y-18578663D01*
X3081932Y-18614980D01*
X3098159Y-18652194D01*
X3103311Y-18671188D01*
X3110925Y-18696362D01*
X3113133Y-18700750D01*
X3117655Y-18720863D01*
X3120347Y-18757279D01*
X3121290Y-18802741D01*
X3120562Y-18849992D01*
X3118242Y-18891774D01*
X3114410Y-18920833D01*
X3110637Y-18929882D01*
X3100727Y-18947144D01*
X3097871Y-18965024D01*
X3086092Y-19008634D01*
X3057872Y-19052674D01*
X3019881Y-19087039D01*
X3015585Y-19089681D01*
X2982124Y-19102920D01*
X2941338Y-19110672D01*
X2901971Y-19112311D01*
X2872765Y-19107208D01*
X2863721Y-19100592D01*
X2848998Y-19092950D01*
X2844712Y-19094504D01*
X2832496Y-19088487D01*
X2812362Y-19065472D01*
X2787878Y-19031115D01*
X2762611Y-18991073D01*
X2740130Y-18951001D01*
X2724003Y-18916556D01*
X2717800Y-18893393D01*
X2717800Y-18893332D01*
X2713414Y-18877944D01*
X2702989Y-18850801D01*
X2692085Y-18823579D01*
X2686808Y-18808700D01*
X2680776Y-18784257D01*
X2670861Y-18747052D01*
X2659720Y-18706726D01*
X2650011Y-18672923D01*
X2644790Y-18656300D01*
X2636165Y-18628280D01*
X2634309Y-18620383D01*
X2626305Y-18594080D01*
X2621620Y-18582283D01*
X2611146Y-18552278D01*
X2608368Y-18541099D01*
X2589747Y-18491956D01*
X2555386Y-18437680D01*
X2510549Y-18383888D01*
X2460498Y-18336198D01*
X2410498Y-18300228D01*
X2365810Y-18281596D01*
X2365120Y-18281460D01*
X2346460Y-18276958D01*
X2343150Y-18275300D01*
X2331840Y-18270572D01*
X2303285Y-18265052D01*
X2265548Y-18260115D01*
X2241550Y-18257982D01*
X2159101Y-18262420D01*
X2073932Y-18285165D01*
X2062184Y-18289813D01*
X2033451Y-18300817D01*
X2015883Y-18305985D01*
X2000583Y-18315517D01*
X1973843Y-18338848D01*
X1940922Y-18370641D01*
X1907079Y-18405556D01*
X1877574Y-18438255D01*
X1857666Y-18463400D01*
X1853048Y-18471257D01*
X1837767Y-18501700D01*
X1828822Y-18516600D01*
X1813926Y-18544943D01*
X1797012Y-18585280D01*
X1783199Y-18625227D01*
X1781579Y-18630900D01*
X1778913Y-18651210D01*
X1775971Y-18690409D01*
X1773191Y-18741993D01*
X1771755Y-18776950D01*
X1776881Y-18910737D01*
G36*
X1409700Y-9919588D02*
X1411287Y-9842944D01*
X1412854Y-9792176D01*
X1415409Y-9760393D01*
X1419608Y-9741184D01*
X1422400Y-9734550D01*
X1428208Y-9717587D01*
X1428750Y-9715500D01*
X1434558Y-9697613D01*
X1435100Y-9696450D01*
X1439564Y-9679291D01*
X1439862Y-9677110D01*
X1449048Y-9661736D01*
X1471270Y-9635060D01*
X1495536Y-9609237D01*
X1551568Y-9563602D01*
X1615493Y-9535001D01*
X1693484Y-9521063D01*
X1730375Y-9519053D01*
X1803400Y-9517052D01*
X1803400Y-9918700D01*
X2056755Y-9918700D01*
X2060252Y-9718675D01*
X2063750Y-9518650D01*
X3340100Y-9518776D01*
X3340100Y-9245600D01*
X2057400Y-9245600D01*
X2057400Y-9004300D01*
X1803400Y-9004300D01*
X1803400Y-9242019D01*
X1698625Y-9249477D01*
X1628198Y-9255231D01*
X1575583Y-9261970D01*
X1533201Y-9271386D01*
X1493473Y-9285171D01*
X1448822Y-9305020D01*
X1447800Y-9305503D01*
X1410011Y-9327169D01*
X1367007Y-9357559D01*
X1323890Y-9392272D01*
X1285765Y-9426906D01*
X1257734Y-9457059D01*
X1244902Y-9478331D01*
X1244600Y-9480751D01*
X1236457Y-9500906D01*
X1228725Y-9510395D01*
X1214443Y-9528600D01*
X1211785Y-9535160D01*
X1206367Y-9551951D01*
X1194696Y-9580469D01*
X1193959Y-9582150D01*
X1180960Y-9614742D01*
X1173353Y-9639300D01*
X1163674Y-9698948D01*
X1155694Y-9768880D01*
X1151055Y-9833979D01*
X1150587Y-9848850D01*
X1149350Y-9912350D01*
X1409700Y-9919588D01*
X1409700Y-9919588D01*
G37*
X1409700Y-9919588D02*
X1411287Y-9842944D01*
X1412854Y-9792176D01*
X1415409Y-9760393D01*
X1419608Y-9741184D01*
X1422400Y-9734550D01*
X1428208Y-9717587D01*
X1428750Y-9715500D01*
X1434558Y-9697613D01*
X1435100Y-9696450D01*
X1439564Y-9679291D01*
X1439862Y-9677110D01*
X1449048Y-9661736D01*
X1471270Y-9635060D01*
X1495536Y-9609237D01*
X1551568Y-9563602D01*
X1615493Y-9535001D01*
X1693484Y-9521063D01*
X1730375Y-9519053D01*
X1803400Y-9517052D01*
X1803400Y-9918700D01*
X2056755Y-9918700D01*
X2060252Y-9718675D01*
X2063750Y-9518650D01*
X3340100Y-9518776D01*
X3340100Y-9245600D01*
X2057400Y-9245600D01*
X2057400Y-9004300D01*
X1803400Y-9004300D01*
X1803400Y-9242019D01*
X1698625Y-9249477D01*
X1628198Y-9255231D01*
X1575583Y-9261970D01*
X1533201Y-9271386D01*
X1493473Y-9285171D01*
X1448822Y-9305020D01*
X1447800Y-9305503D01*
X1410011Y-9327169D01*
X1367007Y-9357559D01*
X1323890Y-9392272D01*
X1285765Y-9426906D01*
X1257734Y-9457059D01*
X1244902Y-9478331D01*
X1244600Y-9480751D01*
X1236457Y-9500906D01*
X1228725Y-9510395D01*
X1214443Y-9528600D01*
X1211785Y-9535160D01*
X1206367Y-9551951D01*
X1194696Y-9580469D01*
X1193959Y-9582150D01*
X1180960Y-9614742D01*
X1173353Y-9639300D01*
X1163674Y-9698948D01*
X1155694Y-9768880D01*
X1151055Y-9833979D01*
X1150587Y-9848850D01*
X1149350Y-9912350D01*
X1409700Y-9919588D01*
G36*
X1909638Y-10865013D02*
X1965203Y-10864254D01*
X2010714Y-10862545D01*
X2040575Y-10860161D01*
X2049316Y-10858117D01*
X2054327Y-10842757D01*
X2059948Y-10810738D01*
X2062778Y-10788402D01*
X2068727Y-10739558D01*
X2074846Y-10705907D01*
X2083407Y-10677329D01*
X2093548Y-10651298D01*
X2103901Y-10624520D01*
X2108200Y-10610394D01*
X2114909Y-10598053D01*
X2132213Y-10571631D01*
X2148971Y-10547399D01*
X2177446Y-10513589D01*
X2212750Y-10480529D01*
X2248171Y-10453642D01*
X2276992Y-10438353D01*
X2286000Y-10436702D01*
X2301058Y-10431572D01*
X2315688Y-10424404D01*
X2346544Y-10412231D01*
X2372838Y-10405397D01*
X2405661Y-10398892D01*
X2425700Y-10394712D01*
X2442473Y-10393714D01*
X2481618Y-10392747D01*
X2540106Y-10391845D01*
X2614908Y-10391039D01*
X2702996Y-10390365D01*
X2801342Y-10389855D01*
X2892425Y-10389571D01*
X3340100Y-10388600D01*
X3340100Y-10121900D01*
X1803400Y-10121900D01*
X1803400Y-10388600D01*
X1924799Y-10388600D01*
X1986231Y-10389855D01*
X2024482Y-10393549D01*
X2038612Y-10399575D01*
X2038221Y-10401507D01*
X2024464Y-10409764D01*
X2020734Y-10408536D01*
X2006195Y-10412417D01*
X1982461Y-10429501D01*
X1977162Y-10434243D01*
X1955251Y-10452727D01*
X1943653Y-10458938D01*
X1943099Y-10458056D01*
X1937092Y-10458282D01*
X1918549Y-10477456D01*
X1886688Y-10516427D01*
X1872198Y-10534963D01*
X1835848Y-10595181D01*
X1805784Y-10670098D01*
X1785679Y-10749149D01*
X1779480Y-10801648D01*
X1776422Y-10865447D01*
X1909638Y-10865013D01*
X1909638Y-10865013D01*
G37*
X1909638Y-10865013D02*
X1965203Y-10864254D01*
X2010714Y-10862545D01*
X2040575Y-10860161D01*
X2049316Y-10858117D01*
X2054327Y-10842757D01*
X2059948Y-10810738D01*
X2062778Y-10788402D01*
X2068727Y-10739558D01*
X2074846Y-10705907D01*
X2083407Y-10677329D01*
X2093548Y-10651298D01*
X2103901Y-10624520D01*
X2108200Y-10610394D01*
X2114909Y-10598053D01*
X2132213Y-10571631D01*
X2148971Y-10547399D01*
X2177446Y-10513589D01*
X2212750Y-10480529D01*
X2248171Y-10453642D01*
X2276992Y-10438353D01*
X2286000Y-10436702D01*
X2301058Y-10431572D01*
X2315688Y-10424404D01*
X2346544Y-10412231D01*
X2372838Y-10405397D01*
X2405661Y-10398892D01*
X2425700Y-10394712D01*
X2442473Y-10393714D01*
X2481618Y-10392747D01*
X2540106Y-10391845D01*
X2614908Y-10391039D01*
X2702996Y-10390365D01*
X2801342Y-10389855D01*
X2892425Y-10389571D01*
X3340100Y-10388600D01*
X3340100Y-10121900D01*
X1803400Y-10121900D01*
X1803400Y-10388600D01*
X1924799Y-10388600D01*
X1986231Y-10389855D01*
X2024482Y-10393549D01*
X2038612Y-10399575D01*
X2038221Y-10401507D01*
X2024464Y-10409764D01*
X2020734Y-10408536D01*
X2006195Y-10412417D01*
X1982461Y-10429501D01*
X1977162Y-10434243D01*
X1955251Y-10452727D01*
X1943653Y-10458938D01*
X1943099Y-10458056D01*
X1937092Y-10458282D01*
X1918549Y-10477456D01*
X1886688Y-10516427D01*
X1872198Y-10534963D01*
X1835848Y-10595181D01*
X1805784Y-10670098D01*
X1785679Y-10749149D01*
X1779480Y-10801648D01*
X1776422Y-10865447D01*
X1909638Y-10865013D01*
G36*
X3340100Y-11391900D02*
X3340100Y-11118797D01*
X1803400Y-11118797D01*
X1803400Y-11391900D01*
X3340100Y-11391900D01*
X3340100Y-11391900D01*
G37*
X3340100Y-11391900D02*
X3340100Y-11118797D01*
X1803400Y-11118797D01*
X1803400Y-11391900D01*
X3340100Y-11391900D01*
G36*
X1892472Y-12903200D02*
X1953906Y-12900390D01*
X1999623Y-12890053D01*
X2038875Y-12869330D01*
X2063750Y-12850236D01*
X2087956Y-12831512D01*
X2127293Y-12802657D01*
X2175904Y-12767845D01*
X2227932Y-12731250D01*
X2277519Y-12697048D01*
X2299846Y-12681962D01*
X2333892Y-12657554D01*
X2361680Y-12634929D01*
X2366521Y-12630363D01*
X2382493Y-12617385D01*
X2387600Y-12617858D01*
X2395992Y-12615465D01*
X2417366Y-12599791D01*
X2432491Y-12587015D01*
X2460871Y-12563679D01*
X2481536Y-12549540D01*
X2486596Y-12547600D01*
X2501094Y-12539732D01*
X2525130Y-12520310D01*
X2530604Y-12515336D01*
X2552755Y-12496924D01*
X2564717Y-12491124D01*
X2565400Y-12492312D01*
X2573362Y-12490319D01*
X2593393Y-12474400D01*
X2603500Y-12465050D01*
X2626737Y-12444744D01*
X2640228Y-12436744D01*
X2641600Y-12437917D01*
X2649692Y-12435888D01*
X2670196Y-12420030D01*
X2682875Y-12408602D01*
X2711027Y-12385005D01*
X2733164Y-12371274D01*
X2738469Y-12369858D01*
X2757615Y-12360964D01*
X2769639Y-12349497D01*
X2787956Y-12332855D01*
X2820996Y-12307401D01*
X2862182Y-12278158D01*
X2869619Y-12273105D01*
X2919417Y-12238838D01*
X2969890Y-12203034D01*
X3009900Y-12173601D01*
X3042747Y-12149698D01*
X3067541Y-12133571D01*
X3076575Y-12129343D01*
X3078895Y-12141329D01*
X3081011Y-12175707D01*
X3082852Y-12229469D01*
X3084346Y-12299607D01*
X3085423Y-12383113D01*
X3086010Y-12476980D01*
X3086100Y-12532051D01*
X3086100Y-12935603D01*
X3209925Y-12935114D01*
X3333750Y-12934624D01*
X3337048Y-12343824D01*
X3340347Y-11753023D01*
X3248148Y-11753865D01*
X3185401Y-11757568D01*
X3136862Y-11769967D01*
X3092618Y-11795005D01*
X3044825Y-11834739D01*
X3022603Y-11852426D01*
X3010591Y-11857017D01*
X3009900Y-11855450D01*
X3001852Y-11855680D01*
X2981841Y-11870014D01*
X2974975Y-11876026D01*
X2940795Y-11904107D01*
X2900648Y-11933300D01*
X2892511Y-11938727D01*
X2863804Y-11959392D01*
X2846839Y-11975335D01*
X2844886Y-11979275D01*
X2834902Y-11988400D01*
X2830933Y-11988800D01*
X2814709Y-11994512D01*
X2786476Y-12012769D01*
X2743850Y-12045248D01*
X2698283Y-12082190D01*
X2672254Y-12101884D01*
X2656475Y-12110441D01*
X2654300Y-12109450D01*
X2645713Y-12111209D01*
X2623948Y-12125921D01*
X2610316Y-12136709D01*
X2554596Y-12181648D01*
X2515155Y-12211035D01*
X2489612Y-12226549D01*
X2477666Y-12230100D01*
X2464319Y-12236900D01*
X2463713Y-12239625D01*
X2453963Y-12251701D01*
X2429470Y-12271055D01*
X2416088Y-12280172D01*
X2376757Y-12307985D01*
X2339890Y-12337349D01*
X2333625Y-12342873D01*
X2311386Y-12360487D01*
X2299382Y-12365013D01*
X2298700Y-12363450D01*
X2290652Y-12363680D01*
X2270641Y-12378014D01*
X2263775Y-12384026D01*
X2229595Y-12412107D01*
X2189448Y-12441300D01*
X2181311Y-12446727D01*
X2152604Y-12467392D01*
X2135639Y-12483335D01*
X2133686Y-12487275D01*
X2123599Y-12496272D01*
X2118725Y-12496800D01*
X2098468Y-12504655D01*
X2080625Y-12517818D01*
X2073995Y-12522918D01*
X2068763Y-12523168D01*
X2064763Y-12516036D01*
X2061831Y-12498993D01*
X2059802Y-12469508D01*
X2058509Y-12425051D01*
X2057788Y-12363092D01*
X2057473Y-12281100D01*
X2057400Y-12176545D01*
X2057400Y-11785600D01*
X1803400Y-11785600D01*
X1803400Y-12903200D01*
X1892472Y-12903200D01*
X1892472Y-12903200D01*
G37*
X1892472Y-12903200D02*
X1953906Y-12900390D01*
X1999623Y-12890053D01*
X2038875Y-12869330D01*
X2063750Y-12850236D01*
X2087956Y-12831512D01*
X2127293Y-12802657D01*
X2175904Y-12767845D01*
X2227932Y-12731250D01*
X2277519Y-12697048D01*
X2299846Y-12681962D01*
X2333892Y-12657554D01*
X2361680Y-12634929D01*
X2366521Y-12630363D01*
X2382493Y-12617385D01*
X2387600Y-12617858D01*
X2395992Y-12615465D01*
X2417366Y-12599791D01*
X2432491Y-12587015D01*
X2460871Y-12563679D01*
X2481536Y-12549540D01*
X2486596Y-12547600D01*
X2501094Y-12539732D01*
X2525130Y-12520310D01*
X2530604Y-12515336D01*
X2552755Y-12496924D01*
X2564717Y-12491124D01*
X2565400Y-12492312D01*
X2573362Y-12490319D01*
X2593393Y-12474400D01*
X2603500Y-12465050D01*
X2626737Y-12444744D01*
X2640228Y-12436744D01*
X2641600Y-12437917D01*
X2649692Y-12435888D01*
X2670196Y-12420030D01*
X2682875Y-12408602D01*
X2711027Y-12385005D01*
X2733164Y-12371274D01*
X2738469Y-12369858D01*
X2757615Y-12360964D01*
X2769639Y-12349497D01*
X2787956Y-12332855D01*
X2820996Y-12307401D01*
X2862182Y-12278158D01*
X2869619Y-12273105D01*
X2919417Y-12238838D01*
X2969890Y-12203034D01*
X3009900Y-12173601D01*
X3042747Y-12149698D01*
X3067541Y-12133571D01*
X3076575Y-12129343D01*
X3078895Y-12141329D01*
X3081011Y-12175707D01*
X3082852Y-12229469D01*
X3084346Y-12299607D01*
X3085423Y-12383113D01*
X3086010Y-12476980D01*
X3086100Y-12532051D01*
X3086100Y-12935603D01*
X3209925Y-12935114D01*
X3333750Y-12934624D01*
X3337048Y-12343824D01*
X3340347Y-11753023D01*
X3248148Y-11753865D01*
X3185401Y-11757568D01*
X3136862Y-11769967D01*
X3092618Y-11795005D01*
X3044825Y-11834739D01*
X3022603Y-11852426D01*
X3010591Y-11857017D01*
X3009900Y-11855450D01*
X3001852Y-11855680D01*
X2981841Y-11870014D01*
X2974975Y-11876026D01*
X2940795Y-11904107D01*
X2900648Y-11933300D01*
X2892511Y-11938727D01*
X2863804Y-11959392D01*
X2846839Y-11975335D01*
X2844886Y-11979275D01*
X2834902Y-11988400D01*
X2830933Y-11988800D01*
X2814709Y-11994512D01*
X2786476Y-12012769D01*
X2743850Y-12045248D01*
X2698283Y-12082190D01*
X2672254Y-12101884D01*
X2656475Y-12110441D01*
X2654300Y-12109450D01*
X2645713Y-12111209D01*
X2623948Y-12125921D01*
X2610316Y-12136709D01*
X2554596Y-12181648D01*
X2515155Y-12211035D01*
X2489612Y-12226549D01*
X2477666Y-12230100D01*
X2464319Y-12236900D01*
X2463713Y-12239625D01*
X2453963Y-12251701D01*
X2429470Y-12271055D01*
X2416088Y-12280172D01*
X2376757Y-12307985D01*
X2339890Y-12337349D01*
X2333625Y-12342873D01*
X2311386Y-12360487D01*
X2299382Y-12365013D01*
X2298700Y-12363450D01*
X2290652Y-12363680D01*
X2270641Y-12378014D01*
X2263775Y-12384026D01*
X2229595Y-12412107D01*
X2189448Y-12441300D01*
X2181311Y-12446727D01*
X2152604Y-12467392D01*
X2135639Y-12483335D01*
X2133686Y-12487275D01*
X2123599Y-12496272D01*
X2118725Y-12496800D01*
X2098468Y-12504655D01*
X2080625Y-12517818D01*
X2073995Y-12522918D01*
X2068763Y-12523168D01*
X2064763Y-12516036D01*
X2061831Y-12498993D01*
X2059802Y-12469508D01*
X2058509Y-12425051D01*
X2057788Y-12363092D01*
X2057473Y-12281100D01*
X2057400Y-12176545D01*
X2057400Y-11785600D01*
X1803400Y-11785600D01*
X1803400Y-12903200D01*
X1892472Y-12903200D01*
G36*
X1894160Y-14312900D02*
X1944977Y-14311633D01*
X1981005Y-14305870D01*
X2012811Y-14292664D01*
X2050702Y-14269236D01*
X2088537Y-14242726D01*
X2119099Y-14218821D01*
X2132947Y-14205736D01*
X2153010Y-14189223D01*
X2163730Y-14185841D01*
X2181074Y-14177731D01*
X2207820Y-14157396D01*
X2219325Y-14147097D01*
X2243798Y-14125996D01*
X2258595Y-14116782D01*
X2260600Y-14117782D01*
X2268559Y-14115871D01*
X2288584Y-14100003D01*
X2298700Y-14090650D01*
X2321941Y-14070314D01*
X2335430Y-14062248D01*
X2336800Y-14063387D01*
X2344813Y-14061839D01*
X2364740Y-14046538D01*
X2371595Y-14040363D01*
X2396549Y-14019308D01*
X2413767Y-14008485D01*
X2415603Y-14008100D01*
X2429830Y-14000397D01*
X2455369Y-13980875D01*
X2469708Y-13968684D01*
X2495792Y-13947202D01*
X2511985Y-13936602D01*
X2514600Y-13936850D01*
X2522750Y-13935115D01*
X2542435Y-13920442D01*
X2543175Y-13919807D01*
X2561130Y-13904933D01*
X2583812Y-13887537D01*
X2614946Y-13864934D01*
X2658257Y-13834438D01*
X2717470Y-13793365D01*
X2744374Y-13774798D01*
X2786181Y-13744958D01*
X2820953Y-13718294D01*
X2842277Y-13699767D01*
X2844354Y-13697486D01*
X2864384Y-13681109D01*
X2874930Y-13677841D01*
X2892274Y-13669731D01*
X2919020Y-13649396D01*
X2930525Y-13639097D01*
X2954998Y-13617996D01*
X2969795Y-13608782D01*
X2971800Y-13609782D01*
X2979759Y-13607871D01*
X2999784Y-13592003D01*
X3009900Y-13582650D01*
X3033112Y-13562553D01*
X3046610Y-13555013D01*
X3048000Y-13556428D01*
X3055768Y-13558281D01*
X3066869Y-13551049D01*
X3072147Y-13549083D01*
X3076417Y-13554451D01*
X3079816Y-13569546D01*
X3082479Y-13596760D01*
X3084545Y-13638484D01*
X3086150Y-13697111D01*
X3087429Y-13775032D01*
X3088521Y-13874640D01*
X3089094Y-13939858D01*
X3092450Y-14344328D01*
X3216275Y-14344816D01*
X3340100Y-14345303D01*
X3340100Y-13154510D01*
X3240617Y-13159030D01*
X3188573Y-13162295D01*
X3153742Y-13168037D01*
X3127936Y-13178817D01*
X3102966Y-13197194D01*
X3094125Y-13204825D01*
X3065121Y-13228779D01*
X3043774Y-13243672D01*
X3037903Y-13246100D01*
X3023405Y-13253967D01*
X2999369Y-13273389D01*
X2993895Y-13278363D01*
X2971744Y-13296775D01*
X2959782Y-13302575D01*
X2959100Y-13301387D01*
X2951001Y-13302820D01*
X2930879Y-13317869D01*
X2924175Y-13323767D01*
X2892140Y-13349815D01*
X2851091Y-13379499D01*
X2832100Y-13392150D01*
X2791236Y-13420241D01*
X2753325Y-13449199D01*
X2740025Y-13460532D01*
X2717707Y-13478730D01*
X2705741Y-13484577D01*
X2705100Y-13483510D01*
X2696980Y-13484488D01*
X2677359Y-13498777D01*
X2676525Y-13499492D01*
X2645018Y-13525022D01*
X2601751Y-13557129D01*
X2543369Y-13598238D01*
X2475919Y-13644399D01*
X2434029Y-13673908D01*
X2399134Y-13700466D01*
X2377792Y-13719041D01*
X2375939Y-13721097D01*
X2355810Y-13737859D01*
X2344769Y-13741458D01*
X2327425Y-13749568D01*
X2300679Y-13769903D01*
X2289175Y-13780202D01*
X2264701Y-13801303D01*
X2249904Y-13810517D01*
X2247900Y-13809517D01*
X2239804Y-13810865D01*
X2219689Y-13825863D01*
X2212975Y-13831767D01*
X2183049Y-13856531D01*
X2146634Y-13883510D01*
X2110455Y-13908115D01*
X2081234Y-13925759D01*
X2066242Y-13931900D01*
X2063990Y-13919726D01*
X2061950Y-13885310D01*
X2060198Y-13831809D01*
X2058807Y-13762380D01*
X2057856Y-13680181D01*
X2057419Y-13588368D01*
X2057400Y-13563600D01*
X2057400Y-13195300D01*
X1803400Y-13195300D01*
X1803400Y-14312900D01*
X1894160Y-14312900D01*
X1894160Y-14312900D01*
G37*
X1894160Y-14312900D02*
X1944977Y-14311633D01*
X1981005Y-14305870D01*
X2012811Y-14292664D01*
X2050702Y-14269236D01*
X2088537Y-14242726D01*
X2119099Y-14218821D01*
X2132947Y-14205736D01*
X2153010Y-14189223D01*
X2163730Y-14185841D01*
X2181074Y-14177731D01*
X2207820Y-14157396D01*
X2219325Y-14147097D01*
X2243798Y-14125996D01*
X2258595Y-14116782D01*
X2260600Y-14117782D01*
X2268559Y-14115871D01*
X2288584Y-14100003D01*
X2298700Y-14090650D01*
X2321941Y-14070314D01*
X2335430Y-14062248D01*
X2336800Y-14063387D01*
X2344813Y-14061839D01*
X2364740Y-14046538D01*
X2371595Y-14040363D01*
X2396549Y-14019308D01*
X2413767Y-14008485D01*
X2415603Y-14008100D01*
X2429830Y-14000397D01*
X2455369Y-13980875D01*
X2469708Y-13968684D01*
X2495792Y-13947202D01*
X2511985Y-13936602D01*
X2514600Y-13936850D01*
X2522750Y-13935115D01*
X2542435Y-13920442D01*
X2543175Y-13919807D01*
X2561130Y-13904933D01*
X2583812Y-13887537D01*
X2614946Y-13864934D01*
X2658257Y-13834438D01*
X2717470Y-13793365D01*
X2744374Y-13774798D01*
X2786181Y-13744958D01*
X2820953Y-13718294D01*
X2842277Y-13699767D01*
X2844354Y-13697486D01*
X2864384Y-13681109D01*
X2874930Y-13677841D01*
X2892274Y-13669731D01*
X2919020Y-13649396D01*
X2930525Y-13639097D01*
X2954998Y-13617996D01*
X2969795Y-13608782D01*
X2971800Y-13609782D01*
X2979759Y-13607871D01*
X2999784Y-13592003D01*
X3009900Y-13582650D01*
X3033112Y-13562553D01*
X3046610Y-13555013D01*
X3048000Y-13556428D01*
X3055768Y-13558281D01*
X3066869Y-13551049D01*
X3072147Y-13549083D01*
X3076417Y-13554451D01*
X3079816Y-13569546D01*
X3082479Y-13596760D01*
X3084545Y-13638484D01*
X3086150Y-13697111D01*
X3087429Y-13775032D01*
X3088521Y-13874640D01*
X3089094Y-13939858D01*
X3092450Y-14344328D01*
X3216275Y-14344816D01*
X3340100Y-14345303D01*
X3340100Y-13154510D01*
X3240617Y-13159030D01*
X3188573Y-13162295D01*
X3153742Y-13168037D01*
X3127936Y-13178817D01*
X3102966Y-13197194D01*
X3094125Y-13204825D01*
X3065121Y-13228779D01*
X3043774Y-13243672D01*
X3037903Y-13246100D01*
X3023405Y-13253967D01*
X2999369Y-13273389D01*
X2993895Y-13278363D01*
X2971744Y-13296775D01*
X2959782Y-13302575D01*
X2959100Y-13301387D01*
X2951001Y-13302820D01*
X2930879Y-13317869D01*
X2924175Y-13323767D01*
X2892140Y-13349815D01*
X2851091Y-13379499D01*
X2832100Y-13392150D01*
X2791236Y-13420241D01*
X2753325Y-13449199D01*
X2740025Y-13460532D01*
X2717707Y-13478730D01*
X2705741Y-13484577D01*
X2705100Y-13483510D01*
X2696980Y-13484488D01*
X2677359Y-13498777D01*
X2676525Y-13499492D01*
X2645018Y-13525022D01*
X2601751Y-13557129D01*
X2543369Y-13598238D01*
X2475919Y-13644399D01*
X2434029Y-13673908D01*
X2399134Y-13700466D01*
X2377792Y-13719041D01*
X2375939Y-13721097D01*
X2355810Y-13737859D01*
X2344769Y-13741458D01*
X2327425Y-13749568D01*
X2300679Y-13769903D01*
X2289175Y-13780202D01*
X2264701Y-13801303D01*
X2249904Y-13810517D01*
X2247900Y-13809517D01*
X2239804Y-13810865D01*
X2219689Y-13825863D01*
X2212975Y-13831767D01*
X2183049Y-13856531D01*
X2146634Y-13883510D01*
X2110455Y-13908115D01*
X2081234Y-13925759D01*
X2066242Y-13931900D01*
X2063990Y-13919726D01*
X2061950Y-13885310D01*
X2060198Y-13831809D01*
X2058807Y-13762380D01*
X2057856Y-13680181D01*
X2057419Y-13588368D01*
X2057400Y-13563600D01*
X2057400Y-13195300D01*
X1803400Y-13195300D01*
X1803400Y-14312900D01*
X1894160Y-14312900D01*
G36*
X3257550Y-18389600D02*
X3263900Y-18383250D01*
X3257550Y-18376900D01*
X3251200Y-18383250D01*
X3257550Y-18389600D01*
X3257550Y-18389600D01*
G37*
X3257550Y-18389600D02*
X3263900Y-18383250D01*
X3257550Y-18376900D01*
X3251200Y-18383250D01*
X3257550Y-18389600D01*
G36*
X2952750Y-17881600D02*
X2959100Y-17875250D01*
X2952750Y-17868900D01*
X2946400Y-17875250D01*
X2952750Y-17881600D01*
X2952750Y-17881600D01*
G37*
X2952750Y-17881600D02*
X2959100Y-17875250D01*
X2952750Y-17868900D01*
X2946400Y-17875250D01*
X2952750Y-17881600D01*
G36*
X1835150Y-18491200D02*
X1841500Y-18484850D01*
X1835150Y-18478500D01*
X1828800Y-18484850D01*
X1835150Y-18491200D01*
X1835150Y-18491200D01*
G37*
X1835150Y-18491200D02*
X1841500Y-18484850D01*
X1835150Y-18478500D01*
X1828800Y-18484850D01*
X1835150Y-18491200D01*
G36*
X1173242Y-11300464D02*
X1181535Y-11328597D01*
X1201273Y-11355759D01*
X1222604Y-11378133D01*
X1256067Y-11409700D01*
X1282891Y-11426342D01*
X1312967Y-11432421D01*
X1346200Y-11432602D01*
X1396548Y-11428780D01*
X1431714Y-11418073D01*
X1461735Y-11396610D01*
X1476179Y-11382476D01*
X1501880Y-11351558D01*
X1514508Y-11320510D01*
X1518874Y-11277142D01*
X1518973Y-11274064D01*
X1518946Y-11232379D01*
X1516671Y-11199484D01*
X1514573Y-11188700D01*
X1493870Y-11154631D01*
X1458719Y-11119589D01*
X1418433Y-11091570D01*
X1387061Y-11079238D01*
X1350978Y-11077466D01*
X1310844Y-11082593D01*
X1274626Y-11092612D01*
X1250294Y-11105515D01*
X1244600Y-11115126D01*
X1239640Y-11123457D01*
X1236738Y-11121571D01*
X1222987Y-11122514D01*
X1214513Y-11129470D01*
X1187603Y-11169050D01*
X1174395Y-11217487D01*
X1171763Y-11260658D01*
X1173242Y-11300464D01*
X1173242Y-11300464D01*
G37*
X1173242Y-11300464D02*
X1181535Y-11328597D01*
X1201273Y-11355759D01*
X1222604Y-11378133D01*
X1256067Y-11409700D01*
X1282891Y-11426342D01*
X1312967Y-11432421D01*
X1346200Y-11432602D01*
X1396548Y-11428780D01*
X1431714Y-11418073D01*
X1461735Y-11396610D01*
X1476179Y-11382476D01*
X1501880Y-11351558D01*
X1514508Y-11320510D01*
X1518874Y-11277142D01*
X1518973Y-11274064D01*
X1518946Y-11232379D01*
X1516671Y-11199484D01*
X1514573Y-11188700D01*
X1493870Y-11154631D01*
X1458719Y-11119589D01*
X1418433Y-11091570D01*
X1387061Y-11079238D01*
X1350978Y-11077466D01*
X1310844Y-11082593D01*
X1274626Y-11092612D01*
X1250294Y-11105515D01*
X1244600Y-11115126D01*
X1239640Y-11123457D01*
X1236738Y-11121571D01*
X1222987Y-11122514D01*
X1214513Y-11129470D01*
X1187603Y-11169050D01*
X1174395Y-11217487D01*
X1171763Y-11260658D01*
X1173242Y-11300464D01*
G36*
X14673427Y-19708235D02*
X14731739Y-19695113D01*
X14786234Y-19672386D01*
X14828612Y-19647049D01*
X14837244Y-19640433D01*
X14850424Y-19629100D01*
X14868443Y-19612762D01*
X14891594Y-19591134D01*
X14920168Y-19563927D01*
X14954458Y-19530854D01*
X14994756Y-19491630D01*
X15041353Y-19445967D01*
X15094541Y-19393577D01*
X15154613Y-19334175D01*
X15221860Y-19267473D01*
X15296575Y-19193184D01*
X15379049Y-19111021D01*
X15469575Y-19020698D01*
X15568444Y-18921927D01*
X15675949Y-18814421D01*
X15678143Y-18812226D01*
X16481412Y-18008595D01*
X15038830Y-16566013D01*
X14994952Y-16579892D01*
X14949112Y-16590541D01*
X14896021Y-16596640D01*
X14840359Y-16597997D01*
X14786804Y-16594418D01*
X14757071Y-16589709D01*
X14681103Y-16568142D01*
X14610188Y-16535652D01*
X14545520Y-16493156D01*
X14488295Y-16441572D01*
X14439707Y-16381819D01*
X14401910Y-16316817D01*
X14379532Y-16266586D01*
X14364115Y-16221846D01*
X14354635Y-16178212D01*
X14350070Y-16131298D01*
X14349258Y-16090900D01*
X14355580Y-16010370D01*
X14373496Y-15934001D01*
X14402334Y-15862675D01*
X14441418Y-15797276D01*
X14490075Y-15738687D01*
X14547631Y-15687789D01*
X14613410Y-15645466D01*
X14686740Y-15612600D01*
X14723750Y-15600634D01*
X14763373Y-15592433D01*
X14810653Y-15587499D01*
X14861313Y-15585876D01*
X14911073Y-15587611D01*
X14955655Y-15592751D01*
X14979650Y-15597889D01*
X15055839Y-15624910D01*
X15125951Y-15662681D01*
X15189083Y-15710356D01*
X15244329Y-15767087D01*
X15290788Y-15832026D01*
X15327554Y-15904325D01*
X15339418Y-15935325D01*
X15346060Y-15955159D01*
X15350799Y-15972349D01*
X15353953Y-15989700D01*
X15355842Y-16010016D01*
X15356783Y-16036099D01*
X15357097Y-16070754D01*
X15357119Y-16090900D01*
X15356915Y-16131795D01*
X15356138Y-16162677D01*
X15354533Y-16186229D01*
X15351840Y-16205133D01*
X15347804Y-16222072D01*
X15343117Y-16236950D01*
X15329124Y-16278225D01*
X16770586Y-17719675D01*
X16997493Y-17491075D01*
X17058685Y-17429148D01*
X17110883Y-17375712D01*
X17154314Y-17330526D01*
X17189206Y-17293348D01*
X17215784Y-17263936D01*
X17234276Y-17242049D01*
X17244908Y-17227444D01*
X17245474Y-17226500D01*
X17276870Y-17160915D01*
X17295989Y-17092891D01*
X17302802Y-17023360D01*
X17297276Y-16953256D01*
X17279381Y-16883512D01*
X17258725Y-16833850D01*
X17232511Y-16779875D01*
X14843125Y-14390489D01*
X14789150Y-14364281D01*
X14720624Y-14337473D01*
X14650909Y-14322749D01*
X14581143Y-14320262D01*
X14519275Y-14328605D01*
X14457220Y-14348186D01*
X14396620Y-14378932D01*
X14367696Y-14398148D01*
X14359154Y-14405558D01*
X14342125Y-14421494D01*
X14317083Y-14445486D01*
X14284506Y-14477063D01*
X14244869Y-14515756D01*
X14198648Y-14561094D01*
X14146319Y-14612606D01*
X14088358Y-14669824D01*
X14025242Y-14732275D01*
X13957446Y-14799491D01*
X13885447Y-14871001D01*
X13809720Y-14946334D01*
X13730742Y-15025020D01*
X13648988Y-15106590D01*
X13564935Y-15190572D01*
X13520737Y-15234781D01*
X12712699Y-16043295D01*
X13464104Y-16794680D01*
X14215510Y-17546066D01*
X14262617Y-17531271D01*
X14283952Y-17525138D01*
X14304174Y-17520938D01*
X14326526Y-17518326D01*
X14354248Y-17516959D01*
X14390580Y-17516492D01*
X14401800Y-17516475D01*
X14440894Y-17516766D01*
X14470555Y-17517868D01*
X14494039Y-17520129D01*
X14514604Y-17523896D01*
X14535508Y-17529515D01*
X14541500Y-17531354D01*
X14617114Y-17561116D01*
X14685210Y-17600230D01*
X14745270Y-17647660D01*
X14796778Y-17702375D01*
X14839217Y-17763341D01*
X14872069Y-17829526D01*
X14894819Y-17899895D01*
X14906948Y-17973416D01*
X14907942Y-18049055D01*
X14897281Y-18125781D01*
X14875670Y-18199320D01*
X14843497Y-18267941D01*
X14800779Y-18331367D01*
X14749022Y-18388141D01*
X14689731Y-18436806D01*
X14624410Y-18475905D01*
X14564059Y-18500936D01*
X14486804Y-18520269D01*
X14409282Y-18527407D01*
X14332701Y-18522773D01*
X14258270Y-18506785D01*
X14187198Y-18479864D01*
X14120692Y-18442431D01*
X14059962Y-18394905D01*
X14006215Y-18337707D01*
X13976229Y-18296506D01*
X13939090Y-18228590D01*
X13912866Y-18155672D01*
X13897840Y-18079604D01*
X13894296Y-18002239D01*
X13902516Y-17925430D01*
X13912758Y-17881970D01*
X13926269Y-17834715D01*
X13175045Y-17083470D01*
X12423820Y-16332226D01*
X12215470Y-16540176D01*
X12159681Y-16596051D01*
X12112249Y-16644091D01*
X12072382Y-16685268D01*
X12039286Y-16720554D01*
X12012170Y-16750920D01*
X11990238Y-16777339D01*
X11972700Y-16800782D01*
X11958761Y-16822222D01*
X11947629Y-16842629D01*
X11938511Y-16862976D01*
X11930614Y-16884235D01*
X11927749Y-16892813D01*
X11919416Y-16920868D01*
X11914206Y-16946174D01*
X11911423Y-16973596D01*
X11910372Y-17008000D01*
X11910316Y-17014825D01*
X11911446Y-17060262D01*
X11916155Y-17099061D01*
X11925510Y-17135576D01*
X11940580Y-17174161D01*
X11958598Y-17211675D01*
X11961377Y-17217025D01*
X11964438Y-17222474D01*
X11968105Y-17228353D01*
X11972705Y-17234996D01*
X11978562Y-17242734D01*
X11986004Y-17251901D01*
X11995356Y-17262830D01*
X12006943Y-17275851D01*
X12021092Y-17291299D01*
X12038128Y-17309505D01*
X12058376Y-17330802D01*
X12082164Y-17355523D01*
X12109816Y-17383999D01*
X12141659Y-17416564D01*
X12178017Y-17453550D01*
X12219218Y-17495290D01*
X12265586Y-17542115D01*
X12317448Y-17594359D01*
X12375129Y-17652354D01*
X12438955Y-17716432D01*
X12509252Y-17786927D01*
X12586346Y-17864170D01*
X12670562Y-17948494D01*
X12762226Y-18040231D01*
X12861665Y-18139714D01*
X12969203Y-18247276D01*
X13085167Y-18363249D01*
X13172458Y-18450542D01*
X13294581Y-18572662D01*
X13408058Y-18686126D01*
X13513221Y-18791260D01*
X13610403Y-18888390D01*
X13699937Y-18977841D01*
X13782154Y-19059939D01*
X13857387Y-19135010D01*
X13925970Y-19203379D01*
X13988233Y-19265373D01*
X14044511Y-19321317D01*
X14095135Y-19371538D01*
X14140437Y-19416360D01*
X14180751Y-19456110D01*
X14216409Y-19491113D01*
X14247743Y-19521696D01*
X14275086Y-19548183D01*
X14298770Y-19570901D01*
X14319128Y-19590176D01*
X14336493Y-19606333D01*
X14351196Y-19619699D01*
X14363570Y-19630598D01*
X14373949Y-19639357D01*
X14382664Y-19646301D01*
X14390047Y-19651757D01*
X14396432Y-19656050D01*
X14402151Y-19659506D01*
X14407536Y-19662451D01*
X14411325Y-19664402D01*
X14455065Y-19685145D01*
X14493050Y-19699269D01*
X14529632Y-19707842D01*
X14569166Y-19711933D01*
X14608175Y-19712684D01*
X14673427Y-19708235D01*
X14673427Y-19708235D01*
G37*
X14673427Y-19708235D02*
X14731739Y-19695113D01*
X14786234Y-19672386D01*
X14828612Y-19647049D01*
X14837244Y-19640433D01*
X14850424Y-19629100D01*
X14868443Y-19612762D01*
X14891594Y-19591134D01*
X14920168Y-19563927D01*
X14954458Y-19530854D01*
X14994756Y-19491630D01*
X15041353Y-19445967D01*
X15094541Y-19393577D01*
X15154613Y-19334175D01*
X15221860Y-19267473D01*
X15296575Y-19193184D01*
X15379049Y-19111021D01*
X15469575Y-19020698D01*
X15568444Y-18921927D01*
X15675949Y-18814421D01*
X15678143Y-18812226D01*
X16481412Y-18008595D01*
X15038830Y-16566013D01*
X14994952Y-16579892D01*
X14949112Y-16590541D01*
X14896021Y-16596640D01*
X14840359Y-16597997D01*
X14786804Y-16594418D01*
X14757071Y-16589709D01*
X14681103Y-16568142D01*
X14610188Y-16535652D01*
X14545520Y-16493156D01*
X14488295Y-16441572D01*
X14439707Y-16381819D01*
X14401910Y-16316817D01*
X14379532Y-16266586D01*
X14364115Y-16221846D01*
X14354635Y-16178212D01*
X14350070Y-16131298D01*
X14349258Y-16090900D01*
X14355580Y-16010370D01*
X14373496Y-15934001D01*
X14402334Y-15862675D01*
X14441418Y-15797276D01*
X14490075Y-15738687D01*
X14547631Y-15687789D01*
X14613410Y-15645466D01*
X14686740Y-15612600D01*
X14723750Y-15600634D01*
X14763373Y-15592433D01*
X14810653Y-15587499D01*
X14861313Y-15585876D01*
X14911073Y-15587611D01*
X14955655Y-15592751D01*
X14979650Y-15597889D01*
X15055839Y-15624910D01*
X15125951Y-15662681D01*
X15189083Y-15710356D01*
X15244329Y-15767087D01*
X15290788Y-15832026D01*
X15327554Y-15904325D01*
X15339418Y-15935325D01*
X15346060Y-15955159D01*
X15350799Y-15972349D01*
X15353953Y-15989700D01*
X15355842Y-16010016D01*
X15356783Y-16036099D01*
X15357097Y-16070754D01*
X15357119Y-16090900D01*
X15356915Y-16131795D01*
X15356138Y-16162677D01*
X15354533Y-16186229D01*
X15351840Y-16205133D01*
X15347804Y-16222072D01*
X15343117Y-16236950D01*
X15329124Y-16278225D01*
X16770586Y-17719675D01*
X16997493Y-17491075D01*
X17058685Y-17429148D01*
X17110883Y-17375712D01*
X17154314Y-17330526D01*
X17189206Y-17293348D01*
X17215784Y-17263936D01*
X17234276Y-17242049D01*
X17244908Y-17227444D01*
X17245474Y-17226500D01*
X17276870Y-17160915D01*
X17295989Y-17092891D01*
X17302802Y-17023360D01*
X17297276Y-16953256D01*
X17279381Y-16883512D01*
X17258725Y-16833850D01*
X17232511Y-16779875D01*
X14843125Y-14390489D01*
X14789150Y-14364281D01*
X14720624Y-14337473D01*
X14650909Y-14322749D01*
X14581143Y-14320262D01*
X14519275Y-14328605D01*
X14457220Y-14348186D01*
X14396620Y-14378932D01*
X14367696Y-14398148D01*
X14359154Y-14405558D01*
X14342125Y-14421494D01*
X14317083Y-14445486D01*
X14284506Y-14477063D01*
X14244869Y-14515756D01*
X14198648Y-14561094D01*
X14146319Y-14612606D01*
X14088358Y-14669824D01*
X14025242Y-14732275D01*
X13957446Y-14799491D01*
X13885447Y-14871001D01*
X13809720Y-14946334D01*
X13730742Y-15025020D01*
X13648988Y-15106590D01*
X13564935Y-15190572D01*
X13520737Y-15234781D01*
X12712699Y-16043295D01*
X13464104Y-16794680D01*
X14215510Y-17546066D01*
X14262617Y-17531271D01*
X14283952Y-17525138D01*
X14304174Y-17520938D01*
X14326526Y-17518326D01*
X14354248Y-17516959D01*
X14390580Y-17516492D01*
X14401800Y-17516475D01*
X14440894Y-17516766D01*
X14470555Y-17517868D01*
X14494039Y-17520129D01*
X14514604Y-17523896D01*
X14535508Y-17529515D01*
X14541500Y-17531354D01*
X14617114Y-17561116D01*
X14685210Y-17600230D01*
X14745270Y-17647660D01*
X14796778Y-17702375D01*
X14839217Y-17763341D01*
X14872069Y-17829526D01*
X14894819Y-17899895D01*
X14906948Y-17973416D01*
X14907942Y-18049055D01*
X14897281Y-18125781D01*
X14875670Y-18199320D01*
X14843497Y-18267941D01*
X14800779Y-18331367D01*
X14749022Y-18388141D01*
X14689731Y-18436806D01*
X14624410Y-18475905D01*
X14564059Y-18500936D01*
X14486804Y-18520269D01*
X14409282Y-18527407D01*
X14332701Y-18522773D01*
X14258270Y-18506785D01*
X14187198Y-18479864D01*
X14120692Y-18442431D01*
X14059962Y-18394905D01*
X14006215Y-18337707D01*
X13976229Y-18296506D01*
X13939090Y-18228590D01*
X13912866Y-18155672D01*
X13897840Y-18079604D01*
X13894296Y-18002239D01*
X13902516Y-17925430D01*
X13912758Y-17881970D01*
X13926269Y-17834715D01*
X13175045Y-17083470D01*
X12423820Y-16332226D01*
X12215470Y-16540176D01*
X12159681Y-16596051D01*
X12112249Y-16644091D01*
X12072382Y-16685268D01*
X12039286Y-16720554D01*
X12012170Y-16750920D01*
X11990238Y-16777339D01*
X11972700Y-16800782D01*
X11958761Y-16822222D01*
X11947629Y-16842629D01*
X11938511Y-16862976D01*
X11930614Y-16884235D01*
X11927749Y-16892813D01*
X11919416Y-16920868D01*
X11914206Y-16946174D01*
X11911423Y-16973596D01*
X11910372Y-17008000D01*
X11910316Y-17014825D01*
X11911446Y-17060262D01*
X11916155Y-17099061D01*
X11925510Y-17135576D01*
X11940580Y-17174161D01*
X11958598Y-17211675D01*
X11961377Y-17217025D01*
X11964438Y-17222474D01*
X11968105Y-17228353D01*
X11972705Y-17234996D01*
X11978562Y-17242734D01*
X11986004Y-17251901D01*
X11995356Y-17262830D01*
X12006943Y-17275851D01*
X12021092Y-17291299D01*
X12038128Y-17309505D01*
X12058376Y-17330802D01*
X12082164Y-17355523D01*
X12109816Y-17383999D01*
X12141659Y-17416564D01*
X12178017Y-17453550D01*
X12219218Y-17495290D01*
X12265586Y-17542115D01*
X12317448Y-17594359D01*
X12375129Y-17652354D01*
X12438955Y-17716432D01*
X12509252Y-17786927D01*
X12586346Y-17864170D01*
X12670562Y-17948494D01*
X12762226Y-18040231D01*
X12861665Y-18139714D01*
X12969203Y-18247276D01*
X13085167Y-18363249D01*
X13172458Y-18450542D01*
X13294581Y-18572662D01*
X13408058Y-18686126D01*
X13513221Y-18791260D01*
X13610403Y-18888390D01*
X13699937Y-18977841D01*
X13782154Y-19059939D01*
X13857387Y-19135010D01*
X13925970Y-19203379D01*
X13988233Y-19265373D01*
X14044511Y-19321317D01*
X14095135Y-19371538D01*
X14140437Y-19416360D01*
X14180751Y-19456110D01*
X14216409Y-19491113D01*
X14247743Y-19521696D01*
X14275086Y-19548183D01*
X14298770Y-19570901D01*
X14319128Y-19590176D01*
X14336493Y-19606333D01*
X14351196Y-19619699D01*
X14363570Y-19630598D01*
X14373949Y-19639357D01*
X14382664Y-19646301D01*
X14390047Y-19651757D01*
X14396432Y-19656050D01*
X14402151Y-19659506D01*
X14407536Y-19662451D01*
X14411325Y-19664402D01*
X14455065Y-19685145D01*
X14493050Y-19699269D01*
X14529632Y-19707842D01*
X14569166Y-19711933D01*
X14608175Y-19712684D01*
X14673427Y-19708235D01*
G36*
X14892666Y-16288933D02*
X14930687Y-16278359D01*
X14936064Y-16275914D01*
X14980315Y-16248198D01*
X15015130Y-16212898D01*
X15034825Y-16181224D01*
X15044073Y-16160500D01*
X15049464Y-16141881D01*
X15051960Y-16120464D01*
X15052519Y-16091349D01*
X15052518Y-16090900D01*
X15051668Y-16060460D01*
X15048758Y-16038004D01*
X15042939Y-16018875D01*
X15036911Y-16005443D01*
X15009706Y-15963680D01*
X14974222Y-15930591D01*
X14932225Y-15907081D01*
X14885480Y-15894050D01*
X14835752Y-15892401D01*
X14819636Y-15894401D01*
X14782441Y-15905346D01*
X14745080Y-15924686D01*
X14712899Y-15949417D01*
X14702784Y-15960019D01*
X14676086Y-16000393D01*
X14660866Y-16045891D01*
X14656998Y-16096909D01*
X14657301Y-16103600D01*
X14665997Y-16154301D01*
X14685599Y-16198757D01*
X14715643Y-16236264D01*
X14755666Y-16266116D01*
X14769080Y-16273245D01*
X14807348Y-16286304D01*
X14850049Y-16291557D01*
X14892666Y-16288933D01*
X14892666Y-16288933D01*
G37*
X14892666Y-16288933D02*
X14930687Y-16278359D01*
X14936064Y-16275914D01*
X14980315Y-16248198D01*
X15015130Y-16212898D01*
X15034825Y-16181224D01*
X15044073Y-16160500D01*
X15049464Y-16141881D01*
X15051960Y-16120464D01*
X15052519Y-16091349D01*
X15052518Y-16090900D01*
X15051668Y-16060460D01*
X15048758Y-16038004D01*
X15042939Y-16018875D01*
X15036911Y-16005443D01*
X15009706Y-15963680D01*
X14974222Y-15930591D01*
X14932225Y-15907081D01*
X14885480Y-15894050D01*
X14835752Y-15892401D01*
X14819636Y-15894401D01*
X14782441Y-15905346D01*
X14745080Y-15924686D01*
X14712899Y-15949417D01*
X14702784Y-15960019D01*
X14676086Y-16000393D01*
X14660866Y-16045891D01*
X14656998Y-16096909D01*
X14657301Y-16103600D01*
X14665997Y-16154301D01*
X14685599Y-16198757D01*
X14715643Y-16236264D01*
X14755666Y-16266116D01*
X14769080Y-16273245D01*
X14807348Y-16286304D01*
X14850049Y-16291557D01*
X14892666Y-16288933D01*
G36*
X14462738Y-18209990D02*
X14484944Y-18201498D01*
X14526060Y-18176649D01*
X14558623Y-18144008D01*
X14582284Y-18105475D01*
X14596694Y-18062953D01*
X14601507Y-18018340D01*
X14596374Y-17973539D01*
X14580947Y-17930450D01*
X14554877Y-17890974D01*
X14543958Y-17879142D01*
X14507218Y-17850513D01*
X14464711Y-17830894D01*
X14419301Y-17820981D01*
X14373853Y-17821474D01*
X14340203Y-17829536D01*
X14292177Y-17852462D01*
X14254093Y-17883171D01*
X14226235Y-17921268D01*
X14208888Y-17966360D01*
X14202333Y-18018053D01*
X14202289Y-18021337D01*
X14203025Y-18050065D01*
X14206538Y-18072054D01*
X14214041Y-18093169D01*
X14219640Y-18105174D01*
X14246702Y-18147029D01*
X14281590Y-18180017D01*
X14322469Y-18203472D01*
X14367509Y-18216730D01*
X14414876Y-18219124D01*
X14462738Y-18209990D01*
X14462738Y-18209990D01*
G37*
X14462738Y-18209990D02*
X14484944Y-18201498D01*
X14526060Y-18176649D01*
X14558623Y-18144008D01*
X14582284Y-18105475D01*
X14596694Y-18062953D01*
X14601507Y-18018340D01*
X14596374Y-17973539D01*
X14580947Y-17930450D01*
X14554877Y-17890974D01*
X14543958Y-17879142D01*
X14507218Y-17850513D01*
X14464711Y-17830894D01*
X14419301Y-17820981D01*
X14373853Y-17821474D01*
X14340203Y-17829536D01*
X14292177Y-17852462D01*
X14254093Y-17883171D01*
X14226235Y-17921268D01*
X14208888Y-17966360D01*
X14202333Y-18018053D01*
X14202289Y-18021337D01*
X14203025Y-18050065D01*
X14206538Y-18072054D01*
X14214041Y-18093169D01*
X14219640Y-18105174D01*
X14246702Y-18147029D01*
X14281590Y-18180017D01*
X14322469Y-18203472D01*
X14367509Y-18216730D01*
X14414876Y-18219124D01*
X14462738Y-18209990D01*
M02*
