M48
;DRILL file {KiCad 4.0.7-e2-6376~58~ubuntu16.04.1} date Sat Jan 20 15:47:16 2018
;FORMAT={-:-/ absolute / metric / decimal}
FMAT,2
METRIC,TZ
T1C0.330
T2C0.700
T3C0.899
T4C1.000
T5C1.001
T6C2.200
T7C3.200
%
G90
G05
M71
T1
X4.191Y-14.478
X4.953Y-11.684
X4.953Y-13.716
X13.081Y-12.446
T2
X6.985Y-17.145
X8.985Y-17.145
X10.985Y-17.145
T3
X6.33Y-4.539
X6.335Y-9.794
X11.59Y-4.552
X11.595Y-9.807
T4
X6.517Y-14.112
X9.017Y-14.112
X11.517Y-14.112
T5
X7.747Y-7.366
X9.017Y-3.312
X9.017Y-10.912
X10.287Y-7.366
T6
X4.217Y-7.112
X13.817Y-7.112
T7
X2.413Y-2.286
X15.621Y-2.286
T0
M30
