%TF.GenerationSoftware,KiCad,Pcbnew,4.0.7*%
%TF.CreationDate,2018-07-15T20:06:58+02:00*%
%TF.ProjectId,BasicModule,42617369634D6F64756C652E6B696361,rev?*%
%TF.FileFunction,Soldermask,Bot*%
%FSLAX46Y46*%
G04 Gerber Fmt 4.6, Leading zero omitted, Abs format (unit mm)*
G04 Created by KiCad (PCBNEW 4.0.7) date 07/15/18 20:06:58*
%MOMM*%
%LPD*%
G01*
G04 APERTURE LIST*
%ADD10C,0.100000*%
%ADD11C,0.010000*%
%ADD12R,1.300000X1.800000*%
%ADD13O,1.300000X1.800000*%
%ADD14C,2.100000*%
%ADD15O,1.600000X2.100000*%
%ADD16C,3.600000*%
%ADD17R,2.000000X2.100000*%
%ADD18C,2.000000*%
%ADD19C,3.300000*%
G04 APERTURE END LIST*
D10*
D11*
G36*
X12903698Y-15468896D02*
X12906690Y-15468193D01*
X12965991Y-15447555D01*
X13020035Y-15416226D01*
X13067419Y-15375615D01*
X13106743Y-15327133D01*
X13136606Y-15272188D01*
X13153989Y-15219428D01*
X13163090Y-15155082D01*
X13159748Y-15092847D01*
X13144128Y-15033284D01*
X13116391Y-14976952D01*
X13076701Y-14924411D01*
X13064396Y-14911392D01*
X13020298Y-14872584D01*
X12973986Y-14844379D01*
X12921781Y-14824765D01*
X12893118Y-14817720D01*
X12852462Y-14810853D01*
X12817091Y-14809466D01*
X12780833Y-14813560D01*
X12760325Y-14817688D01*
X12697576Y-14837852D01*
X12641424Y-14868523D01*
X12592766Y-14908858D01*
X12552502Y-14958013D01*
X12521529Y-15015146D01*
X12507025Y-15055416D01*
X12497873Y-15104781D01*
X12497084Y-15159220D01*
X12504219Y-15214650D01*
X12518836Y-15266992D01*
X12533412Y-15299850D01*
X12550129Y-15325370D01*
X12573954Y-15354222D01*
X12601846Y-15383355D01*
X12630765Y-15409714D01*
X12657669Y-15430247D01*
X12671425Y-15438422D01*
X12726923Y-15460374D01*
X12786545Y-15473075D01*
X12846675Y-15476068D01*
X12903698Y-15468896D01*
X12903698Y-15468896D01*
G37*
X12903698Y-15468896D02*
X12906690Y-15468193D01*
X12965991Y-15447555D01*
X13020035Y-15416226D01*
X13067419Y-15375615D01*
X13106743Y-15327133D01*
X13136606Y-15272188D01*
X13153989Y-15219428D01*
X13163090Y-15155082D01*
X13159748Y-15092847D01*
X13144128Y-15033284D01*
X13116391Y-14976952D01*
X13076701Y-14924411D01*
X13064396Y-14911392D01*
X13020298Y-14872584D01*
X12973986Y-14844379D01*
X12921781Y-14824765D01*
X12893118Y-14817720D01*
X12852462Y-14810853D01*
X12817091Y-14809466D01*
X12780833Y-14813560D01*
X12760325Y-14817688D01*
X12697576Y-14837852D01*
X12641424Y-14868523D01*
X12592766Y-14908858D01*
X12552502Y-14958013D01*
X12521529Y-15015146D01*
X12507025Y-15055416D01*
X12497873Y-15104781D01*
X12497084Y-15159220D01*
X12504219Y-15214650D01*
X12518836Y-15266992D01*
X12533412Y-15299850D01*
X12550129Y-15325370D01*
X12573954Y-15354222D01*
X12601846Y-15383355D01*
X12630765Y-15409714D01*
X12657669Y-15430247D01*
X12671425Y-15438422D01*
X12726923Y-15460374D01*
X12786545Y-15473075D01*
X12846675Y-15476068D01*
X12903698Y-15468896D01*
G36*
X14876346Y-17838708D02*
X14899656Y-17835454D01*
X14924321Y-17827858D01*
X14930421Y-17825160D01*
X14941558Y-17817466D01*
X14960645Y-17801314D01*
X14987802Y-17776591D01*
X15023148Y-17743182D01*
X15066803Y-17700973D01*
X15118887Y-17649851D01*
X15179520Y-17589700D01*
X15220921Y-17548361D01*
X15484418Y-17284699D01*
X15208465Y-17008691D01*
X15151521Y-16951779D01*
X15102831Y-16903240D01*
X15061701Y-16862431D01*
X15027442Y-16828709D01*
X14999360Y-16801431D01*
X14976764Y-16779954D01*
X14958964Y-16763636D01*
X14945266Y-16751834D01*
X14934980Y-16743904D01*
X14927414Y-16739203D01*
X14921876Y-16737090D01*
X14917674Y-16736920D01*
X14916393Y-16737201D01*
X14882015Y-16741714D01*
X14843860Y-16738566D01*
X14807749Y-16728412D01*
X14797729Y-16723868D01*
X14761703Y-16699007D01*
X14734276Y-16666543D01*
X14716179Y-16628673D01*
X14708139Y-16587598D01*
X14710888Y-16545514D01*
X14725033Y-16504858D01*
X14743490Y-16478101D01*
X14769247Y-16452788D01*
X14798140Y-16432444D01*
X14823903Y-16421148D01*
X14868457Y-16414523D01*
X14910816Y-16419126D01*
X14949366Y-16433781D01*
X14982491Y-16457312D01*
X15008576Y-16488545D01*
X15026006Y-16526304D01*
X15033166Y-16569413D01*
X15033251Y-16573500D01*
X15032740Y-16597103D01*
X15031035Y-16617042D01*
X15028913Y-16627554D01*
X15029069Y-16631370D01*
X15032064Y-16637493D01*
X15038505Y-16646570D01*
X15049001Y-16659246D01*
X15064159Y-16676170D01*
X15084586Y-16697987D01*
X15110889Y-16725343D01*
X15143677Y-16758886D01*
X15183557Y-16799262D01*
X15231137Y-16847117D01*
X15287023Y-16903099D01*
X15300337Y-16916413D01*
X15576473Y-17192494D01*
X15649975Y-17119535D01*
X15685254Y-17083799D01*
X15712018Y-17054680D01*
X15731358Y-17030493D01*
X15744369Y-17009552D01*
X15752143Y-16990171D01*
X15755772Y-16970663D01*
X15756433Y-16955312D01*
X15753847Y-16926099D01*
X15747006Y-16901218D01*
X15745240Y-16897350D01*
X15738912Y-16889176D01*
X15724335Y-16872899D01*
X15702312Y-16849325D01*
X15673645Y-16819258D01*
X15639137Y-16783506D01*
X15599592Y-16742872D01*
X15555813Y-16698162D01*
X15508601Y-16650182D01*
X15458761Y-16599736D01*
X15407095Y-16547630D01*
X15354406Y-16494670D01*
X15301496Y-16441660D01*
X15249170Y-16389407D01*
X15198229Y-16338714D01*
X15149477Y-16290389D01*
X15103716Y-16245235D01*
X15061750Y-16204058D01*
X15024382Y-16167664D01*
X14992413Y-16136858D01*
X14966648Y-16112445D01*
X14947889Y-16095231D01*
X14936939Y-16086020D01*
X14935200Y-16084886D01*
X14903412Y-16073302D01*
X14869361Y-16068797D01*
X14842224Y-16071421D01*
X14823006Y-16078303D01*
X14802783Y-16088550D01*
X14800949Y-16089672D01*
X14792617Y-16096548D01*
X14776214Y-16111591D01*
X14752613Y-16133954D01*
X14722686Y-16162786D01*
X14687305Y-16197239D01*
X14647345Y-16236463D01*
X14603677Y-16279611D01*
X14557173Y-16325833D01*
X14519294Y-16363675D01*
X14258963Y-16624320D01*
X14811375Y-17176066D01*
X14841406Y-17169018D01*
X14882052Y-17165728D01*
X14922327Y-17174033D01*
X14960116Y-17192951D01*
X14993303Y-17221497D01*
X15014438Y-17249497D01*
X15024627Y-17267527D01*
X15030407Y-17283529D01*
X15032962Y-17302427D01*
X15033477Y-17328653D01*
X15030258Y-17369218D01*
X15019864Y-17402149D01*
X15000775Y-17431182D01*
X14984968Y-17447854D01*
X14949243Y-17474035D01*
X14909917Y-17489162D01*
X14868982Y-17493583D01*
X14828428Y-17487645D01*
X14790248Y-17471698D01*
X14756431Y-17446090D01*
X14728969Y-17411169D01*
X14723928Y-17402175D01*
X14715354Y-17377284D01*
X14710574Y-17345713D01*
X14710043Y-17313037D01*
X14714216Y-17284831D01*
X14714321Y-17284457D01*
X14714689Y-17280563D01*
X14713344Y-17275583D01*
X14709645Y-17268824D01*
X14702947Y-17259594D01*
X14692608Y-17247201D01*
X14677984Y-17230954D01*
X14658433Y-17210161D01*
X14633311Y-17184130D01*
X14601976Y-17152169D01*
X14563785Y-17113586D01*
X14518094Y-17067690D01*
X14464261Y-17013788D01*
X14442894Y-16992420D01*
X14166921Y-16716502D01*
X14090523Y-16792639D01*
X14061980Y-16821955D01*
X14036901Y-16849381D01*
X14016989Y-16872955D01*
X14003946Y-16890709D01*
X14000854Y-16896106D01*
X13989476Y-16933346D01*
X13989076Y-16972817D01*
X13999655Y-17010363D01*
X14000847Y-17012895D01*
X14006933Y-17021743D01*
X14019825Y-17037054D01*
X14039778Y-17059091D01*
X14067043Y-17088115D01*
X14101876Y-17124388D01*
X14144529Y-17168172D01*
X14195256Y-17219728D01*
X14254311Y-17279318D01*
X14321947Y-17347204D01*
X14398418Y-17423649D01*
X14406392Y-17431606D01*
X14476213Y-17501270D01*
X14537650Y-17562520D01*
X14591326Y-17615897D01*
X14637864Y-17661940D01*
X14677887Y-17701188D01*
X14712018Y-17734183D01*
X14740881Y-17761462D01*
X14765098Y-17783567D01*
X14785292Y-17801037D01*
X14802087Y-17814411D01*
X14816105Y-17824230D01*
X14827971Y-17831033D01*
X14838306Y-17835360D01*
X14847733Y-17837750D01*
X14856877Y-17838744D01*
X14866360Y-17838881D01*
X14876346Y-17838708D01*
X14876346Y-17838708D01*
G37*
X14876346Y-17838708D02*
X14899656Y-17835454D01*
X14924321Y-17827858D01*
X14930421Y-17825160D01*
X14941558Y-17817466D01*
X14960645Y-17801314D01*
X14987802Y-17776591D01*
X15023148Y-17743182D01*
X15066803Y-17700973D01*
X15118887Y-17649851D01*
X15179520Y-17589700D01*
X15220921Y-17548361D01*
X15484418Y-17284699D01*
X15208465Y-17008691D01*
X15151521Y-16951779D01*
X15102831Y-16903240D01*
X15061701Y-16862431D01*
X15027442Y-16828709D01*
X14999360Y-16801431D01*
X14976764Y-16779954D01*
X14958964Y-16763636D01*
X14945266Y-16751834D01*
X14934980Y-16743904D01*
X14927414Y-16739203D01*
X14921876Y-16737090D01*
X14917674Y-16736920D01*
X14916393Y-16737201D01*
X14882015Y-16741714D01*
X14843860Y-16738566D01*
X14807749Y-16728412D01*
X14797729Y-16723868D01*
X14761703Y-16699007D01*
X14734276Y-16666543D01*
X14716179Y-16628673D01*
X14708139Y-16587598D01*
X14710888Y-16545514D01*
X14725033Y-16504858D01*
X14743490Y-16478101D01*
X14769247Y-16452788D01*
X14798140Y-16432444D01*
X14823903Y-16421148D01*
X14868457Y-16414523D01*
X14910816Y-16419126D01*
X14949366Y-16433781D01*
X14982491Y-16457312D01*
X15008576Y-16488545D01*
X15026006Y-16526304D01*
X15033166Y-16569413D01*
X15033251Y-16573500D01*
X15032740Y-16597103D01*
X15031035Y-16617042D01*
X15028913Y-16627554D01*
X15029069Y-16631370D01*
X15032064Y-16637493D01*
X15038505Y-16646570D01*
X15049001Y-16659246D01*
X15064159Y-16676170D01*
X15084586Y-16697987D01*
X15110889Y-16725343D01*
X15143677Y-16758886D01*
X15183557Y-16799262D01*
X15231137Y-16847117D01*
X15287023Y-16903099D01*
X15300337Y-16916413D01*
X15576473Y-17192494D01*
X15649975Y-17119535D01*
X15685254Y-17083799D01*
X15712018Y-17054680D01*
X15731358Y-17030493D01*
X15744369Y-17009552D01*
X15752143Y-16990171D01*
X15755772Y-16970663D01*
X15756433Y-16955312D01*
X15753847Y-16926099D01*
X15747006Y-16901218D01*
X15745240Y-16897350D01*
X15738912Y-16889176D01*
X15724335Y-16872899D01*
X15702312Y-16849325D01*
X15673645Y-16819258D01*
X15639137Y-16783506D01*
X15599592Y-16742872D01*
X15555813Y-16698162D01*
X15508601Y-16650182D01*
X15458761Y-16599736D01*
X15407095Y-16547630D01*
X15354406Y-16494670D01*
X15301496Y-16441660D01*
X15249170Y-16389407D01*
X15198229Y-16338714D01*
X15149477Y-16290389D01*
X15103716Y-16245235D01*
X15061750Y-16204058D01*
X15024382Y-16167664D01*
X14992413Y-16136858D01*
X14966648Y-16112445D01*
X14947889Y-16095231D01*
X14936939Y-16086020D01*
X14935200Y-16084886D01*
X14903412Y-16073302D01*
X14869361Y-16068797D01*
X14842224Y-16071421D01*
X14823006Y-16078303D01*
X14802783Y-16088550D01*
X14800949Y-16089672D01*
X14792617Y-16096548D01*
X14776214Y-16111591D01*
X14752613Y-16133954D01*
X14722686Y-16162786D01*
X14687305Y-16197239D01*
X14647345Y-16236463D01*
X14603677Y-16279611D01*
X14557173Y-16325833D01*
X14519294Y-16363675D01*
X14258963Y-16624320D01*
X14811375Y-17176066D01*
X14841406Y-17169018D01*
X14882052Y-17165728D01*
X14922327Y-17174033D01*
X14960116Y-17192951D01*
X14993303Y-17221497D01*
X15014438Y-17249497D01*
X15024627Y-17267527D01*
X15030407Y-17283529D01*
X15032962Y-17302427D01*
X15033477Y-17328653D01*
X15030258Y-17369218D01*
X15019864Y-17402149D01*
X15000775Y-17431182D01*
X14984968Y-17447854D01*
X14949243Y-17474035D01*
X14909917Y-17489162D01*
X14868982Y-17493583D01*
X14828428Y-17487645D01*
X14790248Y-17471698D01*
X14756431Y-17446090D01*
X14728969Y-17411169D01*
X14723928Y-17402175D01*
X14715354Y-17377284D01*
X14710574Y-17345713D01*
X14710043Y-17313037D01*
X14714216Y-17284831D01*
X14714321Y-17284457D01*
X14714689Y-17280563D01*
X14713344Y-17275583D01*
X14709645Y-17268824D01*
X14702947Y-17259594D01*
X14692608Y-17247201D01*
X14677984Y-17230954D01*
X14658433Y-17210161D01*
X14633311Y-17184130D01*
X14601976Y-17152169D01*
X14563785Y-17113586D01*
X14518094Y-17067690D01*
X14464261Y-17013788D01*
X14442894Y-16992420D01*
X14166921Y-16716502D01*
X14090523Y-16792639D01*
X14061980Y-16821955D01*
X14036901Y-16849381D01*
X14016989Y-16872955D01*
X14003946Y-16890709D01*
X14000854Y-16896106D01*
X13989476Y-16933346D01*
X13989076Y-16972817D01*
X13999655Y-17010363D01*
X14000847Y-17012895D01*
X14006933Y-17021743D01*
X14019825Y-17037054D01*
X14039778Y-17059091D01*
X14067043Y-17088115D01*
X14101876Y-17124388D01*
X14144529Y-17168172D01*
X14195256Y-17219728D01*
X14254311Y-17279318D01*
X14321947Y-17347204D01*
X14398418Y-17423649D01*
X14406392Y-17431606D01*
X14476213Y-17501270D01*
X14537650Y-17562520D01*
X14591326Y-17615897D01*
X14637864Y-17661940D01*
X14677887Y-17701188D01*
X14712018Y-17734183D01*
X14740881Y-17761462D01*
X14765098Y-17783567D01*
X14785292Y-17801037D01*
X14802087Y-17814411D01*
X14816105Y-17824230D01*
X14827971Y-17831033D01*
X14838306Y-17835360D01*
X14847733Y-17837750D01*
X14856877Y-17838744D01*
X14866360Y-17838881D01*
X14876346Y-17838708D01*
G36*
X17394662Y-16683746D02*
X17452116Y-16670224D01*
X17506392Y-16645216D01*
X17556111Y-16608959D01*
X17574801Y-16590959D01*
X17613754Y-16543073D01*
X17640710Y-16492415D01*
X17656320Y-16437367D01*
X17661233Y-16376313D01*
X17661232Y-16376044D01*
X17654881Y-16317239D01*
X17637113Y-16260907D01*
X17609140Y-16208805D01*
X17572173Y-16162690D01*
X17527423Y-16124319D01*
X17476102Y-16095450D01*
X17464558Y-16090742D01*
X17429212Y-16081062D01*
X17386838Y-16075236D01*
X17342376Y-16073502D01*
X17300766Y-16076096D01*
X17272664Y-16081502D01*
X17214800Y-16104122D01*
X17163407Y-16137222D01*
X17119592Y-16179772D01*
X17084460Y-16230739D01*
X17063561Y-16276315D01*
X17048786Y-16333696D01*
X17045849Y-16391728D01*
X17054094Y-16448798D01*
X17072861Y-16503291D01*
X17101495Y-16553593D01*
X17139337Y-16598091D01*
X17185730Y-16635169D01*
X17217015Y-16652995D01*
X17275733Y-16675370D01*
X17335408Y-16685540D01*
X17394662Y-16683746D01*
X17394662Y-16683746D01*
G37*
X17394662Y-16683746D02*
X17452116Y-16670224D01*
X17506392Y-16645216D01*
X17556111Y-16608959D01*
X17574801Y-16590959D01*
X17613754Y-16543073D01*
X17640710Y-16492415D01*
X17656320Y-16437367D01*
X17661233Y-16376313D01*
X17661232Y-16376044D01*
X17654881Y-16317239D01*
X17637113Y-16260907D01*
X17609140Y-16208805D01*
X17572173Y-16162690D01*
X17527423Y-16124319D01*
X17476102Y-16095450D01*
X17464558Y-16090742D01*
X17429212Y-16081062D01*
X17386838Y-16075236D01*
X17342376Y-16073502D01*
X17300766Y-16076096D01*
X17272664Y-16081502D01*
X17214800Y-16104122D01*
X17163407Y-16137222D01*
X17119592Y-16179772D01*
X17084460Y-16230739D01*
X17063561Y-16276315D01*
X17048786Y-16333696D01*
X17045849Y-16391728D01*
X17054094Y-16448798D01*
X17072861Y-16503291D01*
X17101495Y-16553593D01*
X17139337Y-16598091D01*
X17185730Y-16635169D01*
X17217015Y-16652995D01*
X17275733Y-16675370D01*
X17335408Y-16685540D01*
X17394662Y-16683746D01*
G36*
X14897085Y-16637962D02*
X14919340Y-16623732D01*
X14934623Y-16603564D01*
X14938268Y-16593037D01*
X14937890Y-16568617D01*
X14928346Y-16544237D01*
X14912001Y-16524983D01*
X14904265Y-16519947D01*
X14878018Y-16511013D01*
X14853563Y-16513643D01*
X14836017Y-16522126D01*
X14816359Y-16540279D01*
X14806586Y-16562621D01*
X14805906Y-16586464D01*
X14813527Y-16609120D01*
X14828658Y-16627898D01*
X14850508Y-16640112D01*
X14871700Y-16643350D01*
X14897085Y-16637962D01*
X14897085Y-16637962D01*
G37*
X14897085Y-16637962D02*
X14919340Y-16623732D01*
X14934623Y-16603564D01*
X14938268Y-16593037D01*
X14937890Y-16568617D01*
X14928346Y-16544237D01*
X14912001Y-16524983D01*
X14904265Y-16519947D01*
X14878018Y-16511013D01*
X14853563Y-16513643D01*
X14836017Y-16522126D01*
X14816359Y-16540279D01*
X14806586Y-16562621D01*
X14805906Y-16586464D01*
X14813527Y-16609120D01*
X14828658Y-16627898D01*
X14850508Y-16640112D01*
X14871700Y-16643350D01*
X14897085Y-16637962D01*
G36*
X14887330Y-17396021D02*
X14900846Y-17390482D01*
X14921208Y-17374602D01*
X14934872Y-17351817D01*
X14939577Y-17326566D01*
X14938426Y-17316685D01*
X14927358Y-17293542D01*
X14907499Y-17275477D01*
X14882448Y-17264770D01*
X14855801Y-17263707D01*
X14855112Y-17263830D01*
X14842219Y-17269884D01*
X14827038Y-17281800D01*
X14823506Y-17285294D01*
X14808612Y-17308763D01*
X14804676Y-17334153D01*
X14810912Y-17358559D01*
X14826531Y-17379076D01*
X14850746Y-17392797D01*
X14852844Y-17393459D01*
X14872057Y-17397725D01*
X14887330Y-17396021D01*
X14887330Y-17396021D01*
G37*
X14887330Y-17396021D02*
X14900846Y-17390482D01*
X14921208Y-17374602D01*
X14934872Y-17351817D01*
X14939577Y-17326566D01*
X14938426Y-17316685D01*
X14927358Y-17293542D01*
X14907499Y-17275477D01*
X14882448Y-17264770D01*
X14855801Y-17263707D01*
X14855112Y-17263830D01*
X14842219Y-17269884D01*
X14827038Y-17281800D01*
X14823506Y-17285294D01*
X14808612Y-17308763D01*
X14804676Y-17334153D01*
X14810912Y-17358559D01*
X14826531Y-17379076D01*
X14850746Y-17392797D01*
X14852844Y-17393459D01*
X14872057Y-17397725D01*
X14887330Y-17396021D01*
G36*
X14166399Y-19842265D02*
X14223101Y-19831238D01*
X14276387Y-19810039D01*
X14324828Y-19779502D01*
X14366997Y-19740460D01*
X14401466Y-19693745D01*
X14426807Y-19640192D01*
X14437388Y-19603560D01*
X14444528Y-19543945D01*
X14440026Y-19485230D01*
X14424743Y-19428981D01*
X14399540Y-19376769D01*
X14365278Y-19330159D01*
X14322817Y-19290719D01*
X14273019Y-19260018D01*
X14241634Y-19247013D01*
X14199109Y-19236278D01*
X14151805Y-19230876D01*
X14104999Y-19231095D01*
X14063973Y-19237226D01*
X14063806Y-19237268D01*
X14012605Y-19254887D01*
X13966989Y-19281088D01*
X13923685Y-19317796D01*
X13919123Y-19322355D01*
X13881474Y-19366265D01*
X13854974Y-19411455D01*
X13838553Y-19460561D01*
X13831138Y-19516223D01*
X13830455Y-19540738D01*
X13835225Y-19598193D01*
X13850423Y-19650478D01*
X13876804Y-19699439D01*
X13914948Y-19746733D01*
X13956305Y-19784489D01*
X14000859Y-19811995D01*
X14048456Y-19830475D01*
X14107708Y-19842289D01*
X14166399Y-19842265D01*
X14166399Y-19842265D01*
G37*
X14166399Y-19842265D02*
X14223101Y-19831238D01*
X14276387Y-19810039D01*
X14324828Y-19779502D01*
X14366997Y-19740460D01*
X14401466Y-19693745D01*
X14426807Y-19640192D01*
X14437388Y-19603560D01*
X14444528Y-19543945D01*
X14440026Y-19485230D01*
X14424743Y-19428981D01*
X14399540Y-19376769D01*
X14365278Y-19330159D01*
X14322817Y-19290719D01*
X14273019Y-19260018D01*
X14241634Y-19247013D01*
X14199109Y-19236278D01*
X14151805Y-19230876D01*
X14104999Y-19231095D01*
X14063973Y-19237226D01*
X14063806Y-19237268D01*
X14012605Y-19254887D01*
X13966989Y-19281088D01*
X13923685Y-19317796D01*
X13919123Y-19322355D01*
X13881474Y-19366265D01*
X13854974Y-19411455D01*
X13838553Y-19460561D01*
X13831138Y-19516223D01*
X13830455Y-19540738D01*
X13835225Y-19598193D01*
X13850423Y-19650478D01*
X13876804Y-19699439D01*
X13914948Y-19746733D01*
X13956305Y-19784489D01*
X14000859Y-19811995D01*
X14048456Y-19830475D01*
X14107708Y-19842289D01*
X14166399Y-19842265D01*
D12*
X6985000Y-18669000D03*
D13*
X8985000Y-18669000D03*
X10985000Y-18669000D03*
D14*
X9017000Y-10911840D03*
X9017000Y-3312160D03*
D15*
X6517000Y-14112000D03*
X9017000Y-14112000D03*
X11517000Y-14112000D03*
D16*
X4217000Y-7112000D03*
X13817000Y-7112000D03*
D17*
X10287000Y-7366000D03*
D18*
X7747000Y-7366000D03*
D19*
X2413000Y-2286000D03*
X15621000Y-2286000D03*
M02*
