%TF.GenerationSoftware,KiCad,Pcbnew,4.0.7*%
%TF.CreationDate,2018-07-15T20:06:58+02:00*%
%TF.ProjectId,BasicModule,42617369634D6F64756C652E6B696361,rev?*%
%TF.FileFunction,Legend,Bot*%
%FSLAX46Y46*%
G04 Gerber Fmt 4.6, Leading zero omitted, Abs format (unit mm)*
G04 Created by KiCad (PCBNEW 4.0.7) date 07/15/18 20:06:58*
%MOMM*%
%LPD*%
G01*
G04 APERTURE LIST*
%ADD10C,0.100000*%
%ADD11C,0.010000*%
G04 APERTURE END LIST*
D10*
D11*
G36*
X1139824Y-14652790D02*
X1169505Y-14662572D01*
X1187450Y-14667637D01*
X1206784Y-14677742D01*
X1219200Y-14687550D01*
X1237608Y-14701729D01*
X1244600Y-14704802D01*
X1262947Y-14709977D01*
X1299972Y-14724349D01*
X1351401Y-14746236D01*
X1365250Y-14752347D01*
X1397578Y-14766437D01*
X1418901Y-14775234D01*
X1422400Y-14776450D01*
X1436900Y-14782110D01*
X1465877Y-14794525D01*
X1479550Y-14800552D01*
X1540672Y-14827492D01*
X1581308Y-14844942D01*
X1600164Y-14852347D01*
X1600200Y-14852357D01*
X1614706Y-14858198D01*
X1643693Y-14870722D01*
X1657350Y-14876752D01*
X1720452Y-14904557D01*
X1760705Y-14921779D01*
X1778000Y-14928425D01*
X1792302Y-14934257D01*
X1821670Y-14947220D01*
X1841500Y-14956192D01*
X1896140Y-14980199D01*
X1930637Y-14993056D01*
X1947244Y-14995588D01*
X1948249Y-14995177D01*
X1960015Y-15000602D01*
X1979866Y-15016543D01*
X1998747Y-15030608D01*
X2006600Y-15030450D01*
X2014278Y-15029637D01*
X2028825Y-15040276D01*
X2049856Y-15056541D01*
X2060441Y-15061642D01*
X2089174Y-15069826D01*
X2137926Y-15089623D01*
X2171700Y-15104707D01*
X2206447Y-15119952D01*
X2231097Y-15129661D01*
X2237316Y-15131410D01*
X2253487Y-15137465D01*
X2249970Y-15149277D01*
X2230798Y-15163516D01*
X2200001Y-15176850D01*
X2173883Y-15183823D01*
X2147638Y-15191868D01*
X2135783Y-15196649D01*
X2114531Y-15205748D01*
X2108200Y-15208217D01*
X2091397Y-15214629D01*
X2061650Y-15226416D01*
X2029529Y-15239356D01*
X2006600Y-15248804D01*
X1986243Y-15257142D01*
X1981200Y-15259050D01*
X1965474Y-15265486D01*
X1953616Y-15270650D01*
X1925901Y-15280312D01*
X1915516Y-15282610D01*
X1890146Y-15291399D01*
X1879600Y-15297139D01*
X1850303Y-15309582D01*
X1836146Y-15312910D01*
X1808429Y-15321476D01*
X1798046Y-15327497D01*
X1777858Y-15337955D01*
X1744410Y-15350735D01*
X1733550Y-15354300D01*
X1698622Y-15366653D01*
X1673886Y-15377805D01*
X1670050Y-15380275D01*
X1653787Y-15389861D01*
X1651000Y-15390500D01*
X1644246Y-15391655D01*
X1630815Y-15395819D01*
X1605970Y-15404649D01*
X1564971Y-15419805D01*
X1530350Y-15432736D01*
X1490060Y-15447692D01*
X1460137Y-15458582D01*
X1447800Y-15462812D01*
X1432372Y-15468317D01*
X1402935Y-15479749D01*
X1368974Y-15493375D01*
X1346200Y-15502804D01*
X1325868Y-15510754D01*
X1320800Y-15512349D01*
X1306796Y-15517369D01*
X1275237Y-15529375D01*
X1232201Y-15546047D01*
X1219200Y-15551127D01*
X1173647Y-15568204D01*
X1137332Y-15580416D01*
X1116552Y-15585690D01*
X1114425Y-15585655D01*
X1110682Y-15596388D01*
X1107630Y-15627630D01*
X1105595Y-15674494D01*
X1104900Y-15728949D01*
X1105868Y-15787945D01*
X1108522Y-15835041D01*
X1112479Y-15865562D01*
X1116773Y-15875000D01*
X1136980Y-15870827D01*
X1158048Y-15863821D01*
X1184383Y-15854697D01*
X1197108Y-15851378D01*
X1214099Y-15845151D01*
X1242297Y-15831733D01*
X1244600Y-15830550D01*
X1273197Y-15816783D01*
X1291440Y-15809833D01*
X1292091Y-15809721D01*
X1310299Y-15804790D01*
X1333500Y-15796901D01*
X1368464Y-15784332D01*
X1387577Y-15778055D01*
X1398790Y-15775499D01*
X1400308Y-15775274D01*
X1417293Y-15768980D01*
X1445519Y-15755522D01*
X1447933Y-15754281D01*
X1473229Y-15743412D01*
X1485642Y-15742418D01*
X1485900Y-15743292D01*
X1493758Y-15742417D01*
X1511300Y-15728950D01*
X1529627Y-15715038D01*
X1536700Y-15714607D01*
X1546415Y-15715343D01*
X1570244Y-15705847D01*
X1574666Y-15703618D01*
X1601177Y-15690664D01*
X1615483Y-15685112D01*
X1615941Y-15685135D01*
X1628902Y-15681928D01*
X1656446Y-15672591D01*
X1689533Y-15660321D01*
X1714500Y-15650295D01*
X1734823Y-15642456D01*
X1739900Y-15640952D01*
X1755406Y-15634064D01*
X1758950Y-15632021D01*
X1777337Y-15624169D01*
X1811479Y-15611911D01*
X1841500Y-15601950D01*
X1881772Y-15588433D01*
X1912512Y-15577055D01*
X1924050Y-15571878D01*
X1940993Y-15563576D01*
X1943100Y-15562980D01*
X1958171Y-15557853D01*
X1985966Y-15547164D01*
X1987550Y-15546534D01*
X2024555Y-15532085D01*
X2045005Y-15525230D01*
X2055795Y-15523800D01*
X2058623Y-15524191D01*
X2073749Y-15518644D01*
X2084023Y-15511555D01*
X2105545Y-15499972D01*
X2142106Y-15485164D01*
X2171700Y-15474950D01*
X2212004Y-15461150D01*
X2242751Y-15449046D01*
X2254250Y-15443174D01*
X2273722Y-15433652D01*
X2306690Y-15421397D01*
X2317750Y-15417787D01*
X2352627Y-15406000D01*
X2377363Y-15396236D01*
X2381250Y-15394264D01*
X2404007Y-15384983D01*
X2406650Y-15384398D01*
X2425669Y-15378209D01*
X2457245Y-15365749D01*
X2466914Y-15361670D01*
X2498268Y-15348965D01*
X2518442Y-15342116D01*
X2521022Y-15341712D01*
X2535660Y-15336720D01*
X2562532Y-15324021D01*
X2565400Y-15322550D01*
X2593997Y-15308783D01*
X2612240Y-15301833D01*
X2612891Y-15301721D01*
X2632426Y-15296302D01*
X2665128Y-15284948D01*
X2700637Y-15271286D01*
X2705100Y-15269454D01*
X2729759Y-15260398D01*
X2736850Y-15258297D01*
X2755579Y-15251431D01*
X2787370Y-15238117D01*
X2800350Y-15232412D01*
X2832663Y-15218365D01*
X2853988Y-15209730D01*
X2857500Y-15208599D01*
X2870751Y-15201396D01*
X2897919Y-15184197D01*
X2919724Y-15169728D01*
X2955528Y-15145699D01*
X2984983Y-15126129D01*
X2995358Y-15119350D01*
X3025223Y-15096961D01*
X3058767Y-15067195D01*
X3090255Y-15035795D01*
X3113957Y-15008503D01*
X3124140Y-14991060D01*
X3124200Y-14990283D01*
X3130661Y-14974739D01*
X3134999Y-14973300D01*
X3145228Y-14962853D01*
X3162407Y-14935972D01*
X3182976Y-14899349D01*
X3203376Y-14859672D01*
X3220047Y-14823633D01*
X3229430Y-14797922D01*
X3230140Y-14794476D01*
X3237628Y-14769079D01*
X3240285Y-14763750D01*
X3244326Y-14745418D01*
X3247870Y-14709376D01*
X3250169Y-14663313D01*
X3250212Y-14661820D01*
X3252719Y-14572590D01*
X3132219Y-14573068D01*
X3079543Y-14573887D01*
X3037178Y-14575695D01*
X3011019Y-14578180D01*
X3005651Y-14579748D01*
X3000850Y-14594813D01*
X2994894Y-14627068D01*
X2990849Y-14655800D01*
X2983716Y-14697596D01*
X2974771Y-14729966D01*
X2969053Y-14741525D01*
X2962449Y-14755072D01*
X2965450Y-14757400D01*
X2966361Y-14765288D01*
X2957975Y-14777804D01*
X2938077Y-14806482D01*
X2927741Y-14824887D01*
X2909493Y-14848096D01*
X2878864Y-14875717D01*
X2863745Y-14887028D01*
X2823562Y-14913229D01*
X2776562Y-14941012D01*
X2727996Y-14967647D01*
X2683120Y-14990404D01*
X2647186Y-15006552D01*
X2625449Y-15013363D01*
X2621795Y-15012761D01*
X2605728Y-15004447D01*
X2605616Y-15004438D01*
X2590587Y-14999099D01*
X2559510Y-14985725D01*
X2520950Y-14968065D01*
X2479733Y-14949374D01*
X2446792Y-14935619D01*
X2430156Y-14930020D01*
X2408122Y-14920416D01*
X2398406Y-14913498D01*
X2378668Y-14900367D01*
X2371858Y-14897832D01*
X2341736Y-14888978D01*
X2291190Y-14868285D01*
X2260600Y-14854592D01*
X2226348Y-14839354D01*
X2202709Y-14829549D01*
X2197100Y-14827694D01*
X2182235Y-14820984D01*
X2171700Y-14814712D01*
X2148358Y-14803032D01*
X2139950Y-14800607D01*
X2121681Y-14794526D01*
X2089528Y-14781269D01*
X2070100Y-14772638D01*
X1985830Y-14734483D01*
X1913042Y-14701925D01*
X1854551Y-14676201D01*
X1813170Y-14658546D01*
X1791715Y-14650198D01*
X1790700Y-14649902D01*
X1776795Y-14644040D01*
X1746577Y-14630329D01*
X1708150Y-14612465D01*
X1667296Y-14593843D01*
X1635094Y-14580171D01*
X1619250Y-14574619D01*
X1598156Y-14566447D01*
X1587500Y-14560387D01*
X1567956Y-14549446D01*
X1562100Y-14547272D01*
X1547610Y-14541969D01*
X1518655Y-14529767D01*
X1504950Y-14523747D01*
X1446663Y-14498039D01*
X1408732Y-14481757D01*
X1388424Y-14473741D01*
X1384300Y-14472519D01*
X1369410Y-14465429D01*
X1358900Y-14459112D01*
X1335549Y-14447362D01*
X1327150Y-14444880D01*
X1309804Y-14438725D01*
X1276901Y-14424681D01*
X1238250Y-14407034D01*
X1198219Y-14388719D01*
X1167654Y-14375612D01*
X1153583Y-14370661D01*
X1137564Y-14362353D01*
X1135591Y-14360525D01*
X1122999Y-14352206D01*
X1114238Y-14358443D01*
X1108704Y-14381898D01*
X1105794Y-14425232D01*
X1104902Y-14491108D01*
X1104899Y-14495807D01*
X1104899Y-14640615D01*
X1139824Y-14652790D01*
X1139824Y-14652790D01*
G37*
X1139824Y-14652790D02*
X1169505Y-14662572D01*
X1187450Y-14667637D01*
X1206784Y-14677742D01*
X1219200Y-14687550D01*
X1237608Y-14701729D01*
X1244600Y-14704802D01*
X1262947Y-14709977D01*
X1299972Y-14724349D01*
X1351401Y-14746236D01*
X1365250Y-14752347D01*
X1397578Y-14766437D01*
X1418901Y-14775234D01*
X1422400Y-14776450D01*
X1436900Y-14782110D01*
X1465877Y-14794525D01*
X1479550Y-14800552D01*
X1540672Y-14827492D01*
X1581308Y-14844942D01*
X1600164Y-14852347D01*
X1600200Y-14852357D01*
X1614706Y-14858198D01*
X1643693Y-14870722D01*
X1657350Y-14876752D01*
X1720452Y-14904557D01*
X1760705Y-14921779D01*
X1778000Y-14928425D01*
X1792302Y-14934257D01*
X1821670Y-14947220D01*
X1841500Y-14956192D01*
X1896140Y-14980199D01*
X1930637Y-14993056D01*
X1947244Y-14995588D01*
X1948249Y-14995177D01*
X1960015Y-15000602D01*
X1979866Y-15016543D01*
X1998747Y-15030608D01*
X2006600Y-15030450D01*
X2014278Y-15029637D01*
X2028825Y-15040276D01*
X2049856Y-15056541D01*
X2060441Y-15061642D01*
X2089174Y-15069826D01*
X2137926Y-15089623D01*
X2171700Y-15104707D01*
X2206447Y-15119952D01*
X2231097Y-15129661D01*
X2237316Y-15131410D01*
X2253487Y-15137465D01*
X2249970Y-15149277D01*
X2230798Y-15163516D01*
X2200001Y-15176850D01*
X2173883Y-15183823D01*
X2147638Y-15191868D01*
X2135783Y-15196649D01*
X2114531Y-15205748D01*
X2108200Y-15208217D01*
X2091397Y-15214629D01*
X2061650Y-15226416D01*
X2029529Y-15239356D01*
X2006600Y-15248804D01*
X1986243Y-15257142D01*
X1981200Y-15259050D01*
X1965474Y-15265486D01*
X1953616Y-15270650D01*
X1925901Y-15280312D01*
X1915516Y-15282610D01*
X1890146Y-15291399D01*
X1879600Y-15297139D01*
X1850303Y-15309582D01*
X1836146Y-15312910D01*
X1808429Y-15321476D01*
X1798046Y-15327497D01*
X1777858Y-15337955D01*
X1744410Y-15350735D01*
X1733550Y-15354300D01*
X1698622Y-15366653D01*
X1673886Y-15377805D01*
X1670050Y-15380275D01*
X1653787Y-15389861D01*
X1651000Y-15390500D01*
X1644246Y-15391655D01*
X1630815Y-15395819D01*
X1605970Y-15404649D01*
X1564971Y-15419805D01*
X1530350Y-15432736D01*
X1490060Y-15447692D01*
X1460137Y-15458582D01*
X1447800Y-15462812D01*
X1432372Y-15468317D01*
X1402935Y-15479749D01*
X1368974Y-15493375D01*
X1346200Y-15502804D01*
X1325868Y-15510754D01*
X1320800Y-15512349D01*
X1306796Y-15517369D01*
X1275237Y-15529375D01*
X1232201Y-15546047D01*
X1219200Y-15551127D01*
X1173647Y-15568204D01*
X1137332Y-15580416D01*
X1116552Y-15585690D01*
X1114425Y-15585655D01*
X1110682Y-15596388D01*
X1107630Y-15627630D01*
X1105595Y-15674494D01*
X1104900Y-15728949D01*
X1105868Y-15787945D01*
X1108522Y-15835041D01*
X1112479Y-15865562D01*
X1116773Y-15875000D01*
X1136980Y-15870827D01*
X1158048Y-15863821D01*
X1184383Y-15854697D01*
X1197108Y-15851378D01*
X1214099Y-15845151D01*
X1242297Y-15831733D01*
X1244600Y-15830550D01*
X1273197Y-15816783D01*
X1291440Y-15809833D01*
X1292091Y-15809721D01*
X1310299Y-15804790D01*
X1333500Y-15796901D01*
X1368464Y-15784332D01*
X1387577Y-15778055D01*
X1398790Y-15775499D01*
X1400308Y-15775274D01*
X1417293Y-15768980D01*
X1445519Y-15755522D01*
X1447933Y-15754281D01*
X1473229Y-15743412D01*
X1485642Y-15742418D01*
X1485900Y-15743292D01*
X1493758Y-15742417D01*
X1511300Y-15728950D01*
X1529627Y-15715038D01*
X1536700Y-15714607D01*
X1546415Y-15715343D01*
X1570244Y-15705847D01*
X1574666Y-15703618D01*
X1601177Y-15690664D01*
X1615483Y-15685112D01*
X1615941Y-15685135D01*
X1628902Y-15681928D01*
X1656446Y-15672591D01*
X1689533Y-15660321D01*
X1714500Y-15650295D01*
X1734823Y-15642456D01*
X1739900Y-15640952D01*
X1755406Y-15634064D01*
X1758950Y-15632021D01*
X1777337Y-15624169D01*
X1811479Y-15611911D01*
X1841500Y-15601950D01*
X1881772Y-15588433D01*
X1912512Y-15577055D01*
X1924050Y-15571878D01*
X1940993Y-15563576D01*
X1943100Y-15562980D01*
X1958171Y-15557853D01*
X1985966Y-15547164D01*
X1987550Y-15546534D01*
X2024555Y-15532085D01*
X2045005Y-15525230D01*
X2055795Y-15523800D01*
X2058623Y-15524191D01*
X2073749Y-15518644D01*
X2084023Y-15511555D01*
X2105545Y-15499972D01*
X2142106Y-15485164D01*
X2171700Y-15474950D01*
X2212004Y-15461150D01*
X2242751Y-15449046D01*
X2254250Y-15443174D01*
X2273722Y-15433652D01*
X2306690Y-15421397D01*
X2317750Y-15417787D01*
X2352627Y-15406000D01*
X2377363Y-15396236D01*
X2381250Y-15394264D01*
X2404007Y-15384983D01*
X2406650Y-15384398D01*
X2425669Y-15378209D01*
X2457245Y-15365749D01*
X2466914Y-15361670D01*
X2498268Y-15348965D01*
X2518442Y-15342116D01*
X2521022Y-15341712D01*
X2535660Y-15336720D01*
X2562532Y-15324021D01*
X2565400Y-15322550D01*
X2593997Y-15308783D01*
X2612240Y-15301833D01*
X2612891Y-15301721D01*
X2632426Y-15296302D01*
X2665128Y-15284948D01*
X2700637Y-15271286D01*
X2705100Y-15269454D01*
X2729759Y-15260398D01*
X2736850Y-15258297D01*
X2755579Y-15251431D01*
X2787370Y-15238117D01*
X2800350Y-15232412D01*
X2832663Y-15218365D01*
X2853988Y-15209730D01*
X2857500Y-15208599D01*
X2870751Y-15201396D01*
X2897919Y-15184197D01*
X2919724Y-15169728D01*
X2955528Y-15145699D01*
X2984983Y-15126129D01*
X2995358Y-15119350D01*
X3025223Y-15096961D01*
X3058767Y-15067195D01*
X3090255Y-15035795D01*
X3113957Y-15008503D01*
X3124140Y-14991060D01*
X3124200Y-14990283D01*
X3130661Y-14974739D01*
X3134999Y-14973300D01*
X3145228Y-14962853D01*
X3162407Y-14935972D01*
X3182976Y-14899349D01*
X3203376Y-14859672D01*
X3220047Y-14823633D01*
X3229430Y-14797922D01*
X3230140Y-14794476D01*
X3237628Y-14769079D01*
X3240285Y-14763750D01*
X3244326Y-14745418D01*
X3247870Y-14709376D01*
X3250169Y-14663313D01*
X3250212Y-14661820D01*
X3252719Y-14572590D01*
X3132219Y-14573068D01*
X3079543Y-14573887D01*
X3037178Y-14575695D01*
X3011019Y-14578180D01*
X3005651Y-14579748D01*
X3000850Y-14594813D01*
X2994894Y-14627068D01*
X2990849Y-14655800D01*
X2983716Y-14697596D01*
X2974771Y-14729966D01*
X2969053Y-14741525D01*
X2962449Y-14755072D01*
X2965450Y-14757400D01*
X2966361Y-14765288D01*
X2957975Y-14777804D01*
X2938077Y-14806482D01*
X2927741Y-14824887D01*
X2909493Y-14848096D01*
X2878864Y-14875717D01*
X2863745Y-14887028D01*
X2823562Y-14913229D01*
X2776562Y-14941012D01*
X2727996Y-14967647D01*
X2683120Y-14990404D01*
X2647186Y-15006552D01*
X2625449Y-15013363D01*
X2621795Y-15012761D01*
X2605728Y-15004447D01*
X2605616Y-15004438D01*
X2590587Y-14999099D01*
X2559510Y-14985725D01*
X2520950Y-14968065D01*
X2479733Y-14949374D01*
X2446792Y-14935619D01*
X2430156Y-14930020D01*
X2408122Y-14920416D01*
X2398406Y-14913498D01*
X2378668Y-14900367D01*
X2371858Y-14897832D01*
X2341736Y-14888978D01*
X2291190Y-14868285D01*
X2260600Y-14854592D01*
X2226348Y-14839354D01*
X2202709Y-14829549D01*
X2197100Y-14827694D01*
X2182235Y-14820984D01*
X2171700Y-14814712D01*
X2148358Y-14803032D01*
X2139950Y-14800607D01*
X2121681Y-14794526D01*
X2089528Y-14781269D01*
X2070100Y-14772638D01*
X1985830Y-14734483D01*
X1913042Y-14701925D01*
X1854551Y-14676201D01*
X1813170Y-14658546D01*
X1791715Y-14650198D01*
X1790700Y-14649902D01*
X1776795Y-14644040D01*
X1746577Y-14630329D01*
X1708150Y-14612465D01*
X1667296Y-14593843D01*
X1635094Y-14580171D01*
X1619250Y-14574619D01*
X1598156Y-14566447D01*
X1587500Y-14560387D01*
X1567956Y-14549446D01*
X1562100Y-14547272D01*
X1547610Y-14541969D01*
X1518655Y-14529767D01*
X1504950Y-14523747D01*
X1446663Y-14498039D01*
X1408732Y-14481757D01*
X1388424Y-14473741D01*
X1384300Y-14472519D01*
X1369410Y-14465429D01*
X1358900Y-14459112D01*
X1335549Y-14447362D01*
X1327150Y-14444880D01*
X1309804Y-14438725D01*
X1276901Y-14424681D01*
X1238250Y-14407034D01*
X1198219Y-14388719D01*
X1167654Y-14375612D01*
X1153583Y-14370661D01*
X1137564Y-14362353D01*
X1135591Y-14360525D01*
X1122999Y-14352206D01*
X1114238Y-14358443D01*
X1108704Y-14381898D01*
X1105794Y-14425232D01*
X1104902Y-14491108D01*
X1104899Y-14495807D01*
X1104899Y-14640615D01*
X1139824Y-14652790D01*
G36*
X2914650Y-14833600D02*
X2921000Y-14827250D01*
X2914650Y-14820900D01*
X2908300Y-14827250D01*
X2914650Y-14833600D01*
X2914650Y-14833600D01*
G37*
X2914650Y-14833600D02*
X2921000Y-14827250D01*
X2914650Y-14820900D01*
X2908300Y-14827250D01*
X2914650Y-14833600D01*
G36*
X2293594Y-16056299D02*
X2299560Y-16085961D01*
X2314450Y-16110637D01*
X2342356Y-16140528D01*
X2345479Y-16143656D01*
X2378868Y-16174495D01*
X2406786Y-16190897D01*
X2440069Y-16197900D01*
X2465890Y-16199630D01*
X2528045Y-16196463D01*
X2577877Y-16177843D01*
X2625005Y-16139853D01*
X2633168Y-16131472D01*
X2660723Y-16086879D01*
X2675646Y-16030265D01*
X2676504Y-15971985D01*
X2662085Y-15922806D01*
X2641148Y-15886730D01*
X2621959Y-15858008D01*
X2608199Y-15841716D01*
X2603500Y-15841979D01*
X2595667Y-15843934D01*
X2583211Y-15835872D01*
X2545227Y-15816712D01*
X2495918Y-15807637D01*
X2445074Y-15808907D01*
X2402486Y-15820781D01*
X2387469Y-15830667D01*
X2369281Y-15843663D01*
X2362200Y-15842270D01*
X2355915Y-15844942D01*
X2339847Y-15864130D01*
X2327275Y-15881576D01*
X2306494Y-15916672D01*
X2295929Y-15951603D01*
X2292544Y-15997697D01*
X2292462Y-16011450D01*
X2293594Y-16056299D01*
X2293594Y-16056299D01*
G37*
X2293594Y-16056299D02*
X2299560Y-16085961D01*
X2314450Y-16110637D01*
X2342356Y-16140528D01*
X2345479Y-16143656D01*
X2378868Y-16174495D01*
X2406786Y-16190897D01*
X2440069Y-16197900D01*
X2465890Y-16199630D01*
X2528045Y-16196463D01*
X2577877Y-16177843D01*
X2625005Y-16139853D01*
X2633168Y-16131472D01*
X2660723Y-16086879D01*
X2675646Y-16030265D01*
X2676504Y-15971985D01*
X2662085Y-15922806D01*
X2641148Y-15886730D01*
X2621959Y-15858008D01*
X2608199Y-15841716D01*
X2603500Y-15841979D01*
X2595667Y-15843934D01*
X2583211Y-15835872D01*
X2545227Y-15816712D01*
X2495918Y-15807637D01*
X2445074Y-15808907D01*
X2402486Y-15820781D01*
X2387469Y-15830667D01*
X2369281Y-15843663D01*
X2362200Y-15842270D01*
X2355915Y-15844942D01*
X2339847Y-15864130D01*
X2327275Y-15881576D01*
X2306494Y-15916672D01*
X2295929Y-15951603D01*
X2292544Y-15997697D01*
X2292462Y-16011450D01*
X2293594Y-16056299D01*
G36*
X1073338Y-17248951D02*
X1080220Y-17329714D01*
X1095884Y-17401718D01*
X1122262Y-17473045D01*
X1161286Y-17551774D01*
X1175052Y-17576800D01*
X1190581Y-17598067D01*
X1218060Y-17629935D01*
X1253075Y-17667883D01*
X1291214Y-17707390D01*
X1328063Y-17743936D01*
X1359210Y-17773001D01*
X1380242Y-17790066D01*
X1385832Y-17792700D01*
X1401667Y-17799274D01*
X1429562Y-17815797D01*
X1441839Y-17823894D01*
X1484952Y-17848385D01*
X1541181Y-17874177D01*
X1599511Y-17896689D01*
X1648927Y-17911341D01*
X1655339Y-17912663D01*
X1676976Y-17917582D01*
X1682750Y-17920016D01*
X1694438Y-17924439D01*
X1725469Y-17928138D01*
X1769794Y-17930974D01*
X1821362Y-17932807D01*
X1874122Y-17933496D01*
X1922025Y-17932901D01*
X1959022Y-17930884D01*
X1979060Y-17927302D01*
X1979844Y-17926887D01*
X1983357Y-17915653D01*
X1986324Y-17885967D01*
X1988768Y-17836820D01*
X1990709Y-17767204D01*
X1992171Y-17676110D01*
X1993175Y-17562528D01*
X1993743Y-17425451D01*
X1993900Y-17283769D01*
X1993900Y-16649337D01*
X2034655Y-16656517D01*
X2068373Y-16665628D01*
X2091805Y-16677304D01*
X2105717Y-16685470D01*
X2108200Y-16683758D01*
X2117183Y-16681844D01*
X2140710Y-16692598D01*
X2173648Y-16712625D01*
X2210864Y-16738530D01*
X2247224Y-16766919D01*
X2277596Y-16794398D01*
X2281302Y-16798215D01*
X2305174Y-16828682D01*
X2333158Y-16871966D01*
X2360597Y-16919894D01*
X2382836Y-16964293D01*
X2395218Y-16996988D01*
X2395663Y-16998950D01*
X2399984Y-17021378D01*
X2402844Y-17037050D01*
X2410533Y-17064678D01*
X2415625Y-17075628D01*
X2419326Y-17094092D01*
X2421699Y-17130635D01*
X2422767Y-17177972D01*
X2422555Y-17228819D01*
X2421088Y-17275890D01*
X2418391Y-17311901D01*
X2414761Y-17329150D01*
X2406562Y-17351945D01*
X2403651Y-17365851D01*
X2391719Y-17406020D01*
X2369870Y-17454249D01*
X2343996Y-17498713D01*
X2325675Y-17522293D01*
X2306634Y-17544373D01*
X2298700Y-17558116D01*
X2298700Y-17558126D01*
X2290775Y-17572362D01*
X2279650Y-17584964D01*
X2264666Y-17597191D01*
X2260600Y-17596841D01*
X2252420Y-17599061D01*
X2232509Y-17614110D01*
X2230325Y-17615991D01*
X2210415Y-17636288D01*
X2207933Y-17654479D01*
X2218430Y-17679154D01*
X2234433Y-17706841D01*
X2247622Y-17722671D01*
X2247890Y-17722844D01*
X2259019Y-17737183D01*
X2276617Y-17767422D01*
X2292891Y-17799018D01*
X2313115Y-17837463D01*
X2330120Y-17855961D01*
X2349817Y-17855217D01*
X2378114Y-17835935D01*
X2405450Y-17812451D01*
X2431783Y-17791529D01*
X2450620Y-17780503D01*
X2453075Y-17780000D01*
X2462312Y-17769554D01*
X2463800Y-17758833D01*
X2467424Y-17744651D01*
X2471661Y-17745528D01*
X2485007Y-17744429D01*
X2502159Y-17730320D01*
X2513658Y-17711853D01*
X2514600Y-17706262D01*
X2523317Y-17688808D01*
X2533086Y-17678867D01*
X2548217Y-17659401D01*
X2569241Y-17624014D01*
X2592597Y-17579845D01*
X2614726Y-17534030D01*
X2632067Y-17493705D01*
X2641061Y-17466010D01*
X2641600Y-17461329D01*
X2646630Y-17438263D01*
X2650434Y-17432499D01*
X2657376Y-17422210D01*
X2662519Y-17404637D01*
X2666300Y-17375754D01*
X2669153Y-17331539D01*
X2671516Y-17267965D01*
X2672653Y-17227550D01*
X2673374Y-17161495D01*
X2672254Y-17098889D01*
X2669532Y-17047410D01*
X2666113Y-17018000D01*
X2654940Y-16959395D01*
X2646004Y-16919130D01*
X2637361Y-16890490D01*
X2627068Y-16866762D01*
X2616836Y-16847683D01*
X2602750Y-16818928D01*
X2597696Y-16800789D01*
X2598357Y-16798776D01*
X2594889Y-16787320D01*
X2584756Y-16776954D01*
X2568501Y-16756341D01*
X2565400Y-16745363D01*
X2556747Y-16725883D01*
X2540000Y-16706850D01*
X2520960Y-16684543D01*
X2514600Y-16668928D01*
X2505962Y-16653513D01*
X2483132Y-16626434D01*
X2450732Y-16593092D01*
X2444750Y-16587328D01*
X2411789Y-16557031D01*
X2387208Y-16536647D01*
X2375364Y-16529727D01*
X2374900Y-16530407D01*
X2366948Y-16528730D01*
X2346941Y-16513013D01*
X2336800Y-16503650D01*
X2313599Y-16483648D01*
X2300097Y-16476315D01*
X2298700Y-16477842D01*
X2290871Y-16479249D01*
X2276475Y-16469448D01*
X2246429Y-16449253D01*
X2217639Y-16438154D01*
X2209800Y-16437562D01*
X2195062Y-16432618D01*
X2174050Y-16422358D01*
X2143048Y-16408421D01*
X2123250Y-16402222D01*
X2097546Y-16396641D01*
X2060225Y-16388233D01*
X2049672Y-16385814D01*
X2011639Y-16380580D01*
X1957344Y-16377552D01*
X1893292Y-16376599D01*
X1825992Y-16377589D01*
X1765300Y-16380243D01*
X1765300Y-16648174D01*
X1765300Y-17157793D01*
X1765272Y-17284813D01*
X1765113Y-17388710D01*
X1764708Y-17471761D01*
X1763943Y-17536244D01*
X1762701Y-17584437D01*
X1760868Y-17618615D01*
X1758331Y-17641058D01*
X1754973Y-17654041D01*
X1750679Y-17659841D01*
X1745336Y-17660738D01*
X1740008Y-17659384D01*
X1707642Y-17650851D01*
X1680078Y-17645076D01*
X1648153Y-17635602D01*
X1629169Y-17625292D01*
X1615331Y-17617210D01*
X1612900Y-17618941D01*
X1603772Y-17619280D01*
X1580233Y-17607990D01*
X1548045Y-17588872D01*
X1512971Y-17565728D01*
X1480775Y-17542358D01*
X1457220Y-17522565D01*
X1448071Y-17510221D01*
X1440311Y-17494953D01*
X1421929Y-17471044D01*
X1421095Y-17470080D01*
X1403974Y-17447277D01*
X1398660Y-17433612D01*
X1398870Y-17433217D01*
X1395072Y-17420226D01*
X1382923Y-17403508D01*
X1368107Y-17380947D01*
X1353824Y-17351067D01*
X1343204Y-17321994D01*
X1339374Y-17301853D01*
X1342065Y-17297400D01*
X1341789Y-17289658D01*
X1335724Y-17281029D01*
X1330324Y-17261708D01*
X1327180Y-17224348D01*
X1326249Y-17176208D01*
X1327487Y-17124545D01*
X1330851Y-17076617D01*
X1336298Y-17039682D01*
X1337192Y-17035925D01*
X1357549Y-16964385D01*
X1376703Y-16915336D01*
X1395788Y-16885978D01*
X1398948Y-16882886D01*
X1416949Y-16862758D01*
X1422400Y-16851028D01*
X1432012Y-16830933D01*
X1456596Y-16802707D01*
X1489776Y-16771839D01*
X1525172Y-16743823D01*
X1556407Y-16724148D01*
X1576641Y-16718219D01*
X1591004Y-16711574D01*
X1611566Y-16695356D01*
X1630493Y-16680818D01*
X1638300Y-16679928D01*
X1647624Y-16681535D01*
X1665450Y-16674162D01*
X1699198Y-16661005D01*
X1728950Y-16653903D01*
X1765300Y-16648174D01*
X1765300Y-16380243D01*
X1761949Y-16380390D01*
X1707671Y-16384871D01*
X1669664Y-16390899D01*
X1660525Y-16393695D01*
X1636003Y-16401735D01*
X1625602Y-16401487D01*
X1625600Y-16401409D01*
X1615830Y-16402219D01*
X1591874Y-16412529D01*
X1587500Y-16414750D01*
X1562149Y-16425654D01*
X1549670Y-16426696D01*
X1549400Y-16425807D01*
X1541541Y-16426682D01*
X1524000Y-16440150D01*
X1505722Y-16453529D01*
X1498600Y-16452850D01*
X1490876Y-16452200D01*
X1475344Y-16463609D01*
X1455506Y-16477285D01*
X1445633Y-16478199D01*
X1433587Y-16481592D01*
X1416120Y-16497222D01*
X1395049Y-16516199D01*
X1381415Y-16522700D01*
X1363740Y-16531780D01*
X1334771Y-16555854D01*
X1299190Y-16590167D01*
X1261680Y-16629967D01*
X1226924Y-16670502D01*
X1199605Y-16707017D01*
X1199168Y-16707672D01*
X1162093Y-16768902D01*
X1130366Y-16831610D01*
X1107804Y-16887733D01*
X1099685Y-16917798D01*
X1094746Y-16940904D01*
X1092172Y-16948150D01*
X1086303Y-16960560D01*
X1081179Y-16996646D01*
X1076961Y-17054690D01*
X1073806Y-17132974D01*
X1073306Y-17151350D01*
X1073338Y-17248951D01*
X1073338Y-17248951D01*
G37*
X1073338Y-17248951D02*
X1080220Y-17329714D01*
X1095884Y-17401718D01*
X1122262Y-17473045D01*
X1161286Y-17551774D01*
X1175052Y-17576800D01*
X1190581Y-17598067D01*
X1218060Y-17629935D01*
X1253075Y-17667883D01*
X1291214Y-17707390D01*
X1328063Y-17743936D01*
X1359210Y-17773001D01*
X1380242Y-17790066D01*
X1385832Y-17792700D01*
X1401667Y-17799274D01*
X1429562Y-17815797D01*
X1441839Y-17823894D01*
X1484952Y-17848385D01*
X1541181Y-17874177D01*
X1599511Y-17896689D01*
X1648927Y-17911341D01*
X1655339Y-17912663D01*
X1676976Y-17917582D01*
X1682750Y-17920016D01*
X1694438Y-17924439D01*
X1725469Y-17928138D01*
X1769794Y-17930974D01*
X1821362Y-17932807D01*
X1874122Y-17933496D01*
X1922025Y-17932901D01*
X1959022Y-17930884D01*
X1979060Y-17927302D01*
X1979844Y-17926887D01*
X1983357Y-17915653D01*
X1986324Y-17885967D01*
X1988768Y-17836820D01*
X1990709Y-17767204D01*
X1992171Y-17676110D01*
X1993175Y-17562528D01*
X1993743Y-17425451D01*
X1993900Y-17283769D01*
X1993900Y-16649337D01*
X2034655Y-16656517D01*
X2068373Y-16665628D01*
X2091805Y-16677304D01*
X2105717Y-16685470D01*
X2108200Y-16683758D01*
X2117183Y-16681844D01*
X2140710Y-16692598D01*
X2173648Y-16712625D01*
X2210864Y-16738530D01*
X2247224Y-16766919D01*
X2277596Y-16794398D01*
X2281302Y-16798215D01*
X2305174Y-16828682D01*
X2333158Y-16871966D01*
X2360597Y-16919894D01*
X2382836Y-16964293D01*
X2395218Y-16996988D01*
X2395663Y-16998950D01*
X2399984Y-17021378D01*
X2402844Y-17037050D01*
X2410533Y-17064678D01*
X2415625Y-17075628D01*
X2419326Y-17094092D01*
X2421699Y-17130635D01*
X2422767Y-17177972D01*
X2422555Y-17228819D01*
X2421088Y-17275890D01*
X2418391Y-17311901D01*
X2414761Y-17329150D01*
X2406562Y-17351945D01*
X2403651Y-17365851D01*
X2391719Y-17406020D01*
X2369870Y-17454249D01*
X2343996Y-17498713D01*
X2325675Y-17522293D01*
X2306634Y-17544373D01*
X2298700Y-17558116D01*
X2298700Y-17558126D01*
X2290775Y-17572362D01*
X2279650Y-17584964D01*
X2264666Y-17597191D01*
X2260600Y-17596841D01*
X2252420Y-17599061D01*
X2232509Y-17614110D01*
X2230325Y-17615991D01*
X2210415Y-17636288D01*
X2207933Y-17654479D01*
X2218430Y-17679154D01*
X2234433Y-17706841D01*
X2247622Y-17722671D01*
X2247890Y-17722844D01*
X2259019Y-17737183D01*
X2276617Y-17767422D01*
X2292891Y-17799018D01*
X2313115Y-17837463D01*
X2330120Y-17855961D01*
X2349817Y-17855217D01*
X2378114Y-17835935D01*
X2405450Y-17812451D01*
X2431783Y-17791529D01*
X2450620Y-17780503D01*
X2453075Y-17780000D01*
X2462312Y-17769554D01*
X2463800Y-17758833D01*
X2467424Y-17744651D01*
X2471661Y-17745528D01*
X2485007Y-17744429D01*
X2502159Y-17730320D01*
X2513658Y-17711853D01*
X2514600Y-17706262D01*
X2523317Y-17688808D01*
X2533086Y-17678867D01*
X2548217Y-17659401D01*
X2569241Y-17624014D01*
X2592597Y-17579845D01*
X2614726Y-17534030D01*
X2632067Y-17493705D01*
X2641061Y-17466010D01*
X2641600Y-17461329D01*
X2646630Y-17438263D01*
X2650434Y-17432499D01*
X2657376Y-17422210D01*
X2662519Y-17404637D01*
X2666300Y-17375754D01*
X2669153Y-17331539D01*
X2671516Y-17267965D01*
X2672653Y-17227550D01*
X2673374Y-17161495D01*
X2672254Y-17098889D01*
X2669532Y-17047410D01*
X2666113Y-17018000D01*
X2654940Y-16959395D01*
X2646004Y-16919130D01*
X2637361Y-16890490D01*
X2627068Y-16866762D01*
X2616836Y-16847683D01*
X2602750Y-16818928D01*
X2597696Y-16800789D01*
X2598357Y-16798776D01*
X2594889Y-16787320D01*
X2584756Y-16776954D01*
X2568501Y-16756341D01*
X2565400Y-16745363D01*
X2556747Y-16725883D01*
X2540000Y-16706850D01*
X2520960Y-16684543D01*
X2514600Y-16668928D01*
X2505962Y-16653513D01*
X2483132Y-16626434D01*
X2450732Y-16593092D01*
X2444750Y-16587328D01*
X2411789Y-16557031D01*
X2387208Y-16536647D01*
X2375364Y-16529727D01*
X2374900Y-16530407D01*
X2366948Y-16528730D01*
X2346941Y-16513013D01*
X2336800Y-16503650D01*
X2313599Y-16483648D01*
X2300097Y-16476315D01*
X2298700Y-16477842D01*
X2290871Y-16479249D01*
X2276475Y-16469448D01*
X2246429Y-16449253D01*
X2217639Y-16438154D01*
X2209800Y-16437562D01*
X2195062Y-16432618D01*
X2174050Y-16422358D01*
X2143048Y-16408421D01*
X2123250Y-16402222D01*
X2097546Y-16396641D01*
X2060225Y-16388233D01*
X2049672Y-16385814D01*
X2011639Y-16380580D01*
X1957344Y-16377552D01*
X1893292Y-16376599D01*
X1825992Y-16377589D01*
X1765300Y-16380243D01*
X1765300Y-16648174D01*
X1765300Y-17157793D01*
X1765272Y-17284813D01*
X1765113Y-17388710D01*
X1764708Y-17471761D01*
X1763943Y-17536244D01*
X1762701Y-17584437D01*
X1760868Y-17618615D01*
X1758331Y-17641058D01*
X1754973Y-17654041D01*
X1750679Y-17659841D01*
X1745336Y-17660738D01*
X1740008Y-17659384D01*
X1707642Y-17650851D01*
X1680078Y-17645076D01*
X1648153Y-17635602D01*
X1629169Y-17625292D01*
X1615331Y-17617210D01*
X1612900Y-17618941D01*
X1603772Y-17619280D01*
X1580233Y-17607990D01*
X1548045Y-17588872D01*
X1512971Y-17565728D01*
X1480775Y-17542358D01*
X1457220Y-17522565D01*
X1448071Y-17510221D01*
X1440311Y-17494953D01*
X1421929Y-17471044D01*
X1421095Y-17470080D01*
X1403974Y-17447277D01*
X1398660Y-17433612D01*
X1398870Y-17433217D01*
X1395072Y-17420226D01*
X1382923Y-17403508D01*
X1368107Y-17380947D01*
X1353824Y-17351067D01*
X1343204Y-17321994D01*
X1339374Y-17301853D01*
X1342065Y-17297400D01*
X1341789Y-17289658D01*
X1335724Y-17281029D01*
X1330324Y-17261708D01*
X1327180Y-17224348D01*
X1326249Y-17176208D01*
X1327487Y-17124545D01*
X1330851Y-17076617D01*
X1336298Y-17039682D01*
X1337192Y-17035925D01*
X1357549Y-16964385D01*
X1376703Y-16915336D01*
X1395788Y-16885978D01*
X1398948Y-16882886D01*
X1416949Y-16862758D01*
X1422400Y-16851028D01*
X1432012Y-16830933D01*
X1456596Y-16802707D01*
X1489776Y-16771839D01*
X1525172Y-16743823D01*
X1556407Y-16724148D01*
X1576641Y-16718219D01*
X1591004Y-16711574D01*
X1611566Y-16695356D01*
X1630493Y-16680818D01*
X1638300Y-16679928D01*
X1647624Y-16681535D01*
X1665450Y-16674162D01*
X1699198Y-16661005D01*
X1728950Y-16653903D01*
X1765300Y-16648174D01*
X1765300Y-16380243D01*
X1761949Y-16380390D01*
X1707671Y-16384871D01*
X1669664Y-16390899D01*
X1660525Y-16393695D01*
X1636003Y-16401735D01*
X1625602Y-16401487D01*
X1625600Y-16401409D01*
X1615830Y-16402219D01*
X1591874Y-16412529D01*
X1587500Y-16414750D01*
X1562149Y-16425654D01*
X1549670Y-16426696D01*
X1549400Y-16425807D01*
X1541541Y-16426682D01*
X1524000Y-16440150D01*
X1505722Y-16453529D01*
X1498600Y-16452850D01*
X1490876Y-16452200D01*
X1475344Y-16463609D01*
X1455506Y-16477285D01*
X1445633Y-16478199D01*
X1433587Y-16481592D01*
X1416120Y-16497222D01*
X1395049Y-16516199D01*
X1381415Y-16522700D01*
X1363740Y-16531780D01*
X1334771Y-16555854D01*
X1299190Y-16590167D01*
X1261680Y-16629967D01*
X1226924Y-16670502D01*
X1199605Y-16707017D01*
X1199168Y-16707672D01*
X1162093Y-16768902D01*
X1130366Y-16831610D01*
X1107804Y-16887733D01*
X1099685Y-16917798D01*
X1094746Y-16940904D01*
X1092172Y-16948150D01*
X1086303Y-16960560D01*
X1081179Y-16996646D01*
X1076961Y-17054690D01*
X1073806Y-17132974D01*
X1073306Y-17151350D01*
X1073338Y-17248951D01*
G36*
X1078381Y-18783737D02*
X1104158Y-18902922D01*
X1150812Y-19008003D01*
X1218567Y-19099476D01*
X1307650Y-19177837D01*
X1315412Y-19183350D01*
X1359492Y-19210935D01*
X1386782Y-19220349D01*
X1396937Y-19211481D01*
X1397000Y-19209895D01*
X1405942Y-19188020D01*
X1416093Y-19176963D01*
X1431218Y-19157745D01*
X1451998Y-19123084D01*
X1472389Y-19083605D01*
X1493854Y-19030761D01*
X1498522Y-18995778D01*
X1486341Y-18977420D01*
X1467786Y-18973800D01*
X1445874Y-18963450D01*
X1417791Y-18936713D01*
X1388449Y-18900053D01*
X1362760Y-18859936D01*
X1345638Y-18822828D01*
X1341930Y-18808156D01*
X1334650Y-18782660D01*
X1331904Y-18776950D01*
X1324790Y-18749264D01*
X1322288Y-18705594D01*
X1324106Y-18654879D01*
X1329954Y-18606055D01*
X1338615Y-18570575D01*
X1348666Y-18538519D01*
X1352171Y-18519180D01*
X1351031Y-18516600D01*
X1355292Y-18508359D01*
X1373200Y-18486969D01*
X1395311Y-18462977D01*
X1426297Y-18432393D01*
X1451254Y-18416381D01*
X1480726Y-18410265D01*
X1516268Y-18409355D01*
X1562436Y-18411845D01*
X1593695Y-18421370D01*
X1619949Y-18440752D01*
X1646285Y-18469292D01*
X1664480Y-18496021D01*
X1665205Y-18497550D01*
X1679599Y-18525644D01*
X1699427Y-18560445D01*
X1701700Y-18564225D01*
X1715816Y-18590440D01*
X1720063Y-18604657D01*
X1719036Y-18605500D01*
X1719047Y-18613256D01*
X1725392Y-18622371D01*
X1738960Y-18648758D01*
X1743553Y-18666494D01*
X1750643Y-18692387D01*
X1756506Y-18702539D01*
X1763643Y-18721167D01*
X1765300Y-18738850D01*
X1769298Y-18765225D01*
X1774825Y-18775891D01*
X1784415Y-18792062D01*
X1784655Y-18793883D01*
X1788685Y-18816369D01*
X1798042Y-18853181D01*
X1809938Y-18894580D01*
X1821583Y-18930824D01*
X1829761Y-18951402D01*
X1839875Y-18979985D01*
X1841500Y-18992850D01*
X1851036Y-19025018D01*
X1876534Y-19066662D01*
X1913325Y-19112439D01*
X1956738Y-19157006D01*
X2002107Y-19195022D01*
X2038205Y-19217930D01*
X2118778Y-19246666D01*
X2209995Y-19257698D01*
X2304269Y-19251009D01*
X2394013Y-19226581D01*
X2412429Y-19218810D01*
X2442142Y-19201355D01*
X2477901Y-19174853D01*
X2513797Y-19144475D01*
X2543923Y-19115392D01*
X2562371Y-19092773D01*
X2565400Y-19084924D01*
X2573246Y-19068733D01*
X2589738Y-19048213D01*
X2611195Y-19017239D01*
X2621589Y-18992155D01*
X2632280Y-18957323D01*
X2643652Y-18926735D01*
X2656024Y-18894543D01*
X2663448Y-18872200D01*
X2666178Y-18850257D01*
X2668596Y-18809387D01*
X2670567Y-18756060D01*
X2671960Y-18696746D01*
X2672640Y-18637918D01*
X2672475Y-18586047D01*
X2671331Y-18547602D01*
X2670376Y-18535650D01*
X2664603Y-18501529D01*
X2658185Y-18478500D01*
X2648967Y-18450641D01*
X2646998Y-18442504D01*
X2637547Y-18415263D01*
X2619820Y-18376783D01*
X2598191Y-18335362D01*
X2577035Y-18299301D01*
X2560725Y-18276902D01*
X2558758Y-18275057D01*
X2542837Y-18254537D01*
X2540000Y-18244035D01*
X2530947Y-18226973D01*
X2507665Y-18201541D01*
X2475967Y-18172575D01*
X2441666Y-18144912D01*
X2410576Y-18123388D01*
X2388509Y-18112842D01*
X2382717Y-18113170D01*
X2370702Y-18108267D01*
X2352894Y-18094222D01*
X2333558Y-18079529D01*
X2319303Y-18083021D01*
X2305143Y-18097397D01*
X2291788Y-18115714D01*
X2292595Y-18122900D01*
X2292849Y-18130898D01*
X2279044Y-18150269D01*
X2277993Y-18151475D01*
X2254875Y-18183049D01*
X2232431Y-18222180D01*
X2214044Y-18261636D01*
X2203096Y-18294186D01*
X2202769Y-18312298D01*
X2221288Y-18325388D01*
X2226554Y-18326100D01*
X2245409Y-18334116D01*
X2271539Y-18353749D01*
X2275239Y-18357098D01*
X2299032Y-18375503D01*
X2314878Y-18381181D01*
X2316385Y-18380381D01*
X2323021Y-18383385D01*
X2324100Y-18392278D01*
X2333149Y-18416390D01*
X2343384Y-18427894D01*
X2362622Y-18451663D01*
X2383432Y-18487980D01*
X2399659Y-18525194D01*
X2404811Y-18544188D01*
X2412425Y-18569362D01*
X2414633Y-18573750D01*
X2419155Y-18593863D01*
X2421847Y-18630279D01*
X2422790Y-18675741D01*
X2422062Y-18722992D01*
X2419742Y-18764774D01*
X2415910Y-18793833D01*
X2412137Y-18802882D01*
X2402227Y-18820144D01*
X2399371Y-18838024D01*
X2387592Y-18881634D01*
X2359372Y-18925674D01*
X2321381Y-18960039D01*
X2317085Y-18962681D01*
X2283624Y-18975920D01*
X2242838Y-18983672D01*
X2203471Y-18985311D01*
X2174265Y-18980208D01*
X2165221Y-18973592D01*
X2150498Y-18965950D01*
X2146212Y-18967504D01*
X2133996Y-18961487D01*
X2113862Y-18938472D01*
X2089378Y-18904115D01*
X2064111Y-18864073D01*
X2041630Y-18824001D01*
X2025503Y-18789556D01*
X2019300Y-18766393D01*
X2019300Y-18766332D01*
X2014914Y-18750944D01*
X2004489Y-18723801D01*
X1993585Y-18696579D01*
X1988308Y-18681700D01*
X1982276Y-18657257D01*
X1972361Y-18620052D01*
X1961220Y-18579726D01*
X1951511Y-18545923D01*
X1946290Y-18529300D01*
X1937665Y-18501280D01*
X1935809Y-18493383D01*
X1927805Y-18467080D01*
X1923120Y-18455283D01*
X1912646Y-18425278D01*
X1909868Y-18414099D01*
X1891247Y-18364956D01*
X1856886Y-18310680D01*
X1812049Y-18256888D01*
X1761998Y-18209198D01*
X1711998Y-18173228D01*
X1667310Y-18154596D01*
X1666620Y-18154460D01*
X1647960Y-18149958D01*
X1644650Y-18148300D01*
X1633340Y-18143572D01*
X1604785Y-18138052D01*
X1567048Y-18133115D01*
X1543050Y-18130982D01*
X1460601Y-18135420D01*
X1375432Y-18158165D01*
X1363684Y-18162813D01*
X1334951Y-18173817D01*
X1317383Y-18178985D01*
X1302083Y-18188517D01*
X1275343Y-18211848D01*
X1242422Y-18243641D01*
X1208579Y-18278556D01*
X1179074Y-18311255D01*
X1159166Y-18336400D01*
X1154548Y-18344257D01*
X1139267Y-18374700D01*
X1130322Y-18389600D01*
X1115426Y-18417943D01*
X1098512Y-18458280D01*
X1084699Y-18498227D01*
X1083079Y-18503900D01*
X1080413Y-18524210D01*
X1077471Y-18563409D01*
X1074691Y-18614993D01*
X1073255Y-18649950D01*
X1078381Y-18783737D01*
X1078381Y-18783737D01*
G37*
X1078381Y-18783737D02*
X1104158Y-18902922D01*
X1150812Y-19008003D01*
X1218567Y-19099476D01*
X1307650Y-19177837D01*
X1315412Y-19183350D01*
X1359492Y-19210935D01*
X1386782Y-19220349D01*
X1396937Y-19211481D01*
X1397000Y-19209895D01*
X1405942Y-19188020D01*
X1416093Y-19176963D01*
X1431218Y-19157745D01*
X1451998Y-19123084D01*
X1472389Y-19083605D01*
X1493854Y-19030761D01*
X1498522Y-18995778D01*
X1486341Y-18977420D01*
X1467786Y-18973800D01*
X1445874Y-18963450D01*
X1417791Y-18936713D01*
X1388449Y-18900053D01*
X1362760Y-18859936D01*
X1345638Y-18822828D01*
X1341930Y-18808156D01*
X1334650Y-18782660D01*
X1331904Y-18776950D01*
X1324790Y-18749264D01*
X1322288Y-18705594D01*
X1324106Y-18654879D01*
X1329954Y-18606055D01*
X1338615Y-18570575D01*
X1348666Y-18538519D01*
X1352171Y-18519180D01*
X1351031Y-18516600D01*
X1355292Y-18508359D01*
X1373200Y-18486969D01*
X1395311Y-18462977D01*
X1426297Y-18432393D01*
X1451254Y-18416381D01*
X1480726Y-18410265D01*
X1516268Y-18409355D01*
X1562436Y-18411845D01*
X1593695Y-18421370D01*
X1619949Y-18440752D01*
X1646285Y-18469292D01*
X1664480Y-18496021D01*
X1665205Y-18497550D01*
X1679599Y-18525644D01*
X1699427Y-18560445D01*
X1701700Y-18564225D01*
X1715816Y-18590440D01*
X1720063Y-18604657D01*
X1719036Y-18605500D01*
X1719047Y-18613256D01*
X1725392Y-18622371D01*
X1738960Y-18648758D01*
X1743553Y-18666494D01*
X1750643Y-18692387D01*
X1756506Y-18702539D01*
X1763643Y-18721167D01*
X1765300Y-18738850D01*
X1769298Y-18765225D01*
X1774825Y-18775891D01*
X1784415Y-18792062D01*
X1784655Y-18793883D01*
X1788685Y-18816369D01*
X1798042Y-18853181D01*
X1809938Y-18894580D01*
X1821583Y-18930824D01*
X1829761Y-18951402D01*
X1839875Y-18979985D01*
X1841500Y-18992850D01*
X1851036Y-19025018D01*
X1876534Y-19066662D01*
X1913325Y-19112439D01*
X1956738Y-19157006D01*
X2002107Y-19195022D01*
X2038205Y-19217930D01*
X2118778Y-19246666D01*
X2209995Y-19257698D01*
X2304269Y-19251009D01*
X2394013Y-19226581D01*
X2412429Y-19218810D01*
X2442142Y-19201355D01*
X2477901Y-19174853D01*
X2513797Y-19144475D01*
X2543923Y-19115392D01*
X2562371Y-19092773D01*
X2565400Y-19084924D01*
X2573246Y-19068733D01*
X2589738Y-19048213D01*
X2611195Y-19017239D01*
X2621589Y-18992155D01*
X2632280Y-18957323D01*
X2643652Y-18926735D01*
X2656024Y-18894543D01*
X2663448Y-18872200D01*
X2666178Y-18850257D01*
X2668596Y-18809387D01*
X2670567Y-18756060D01*
X2671960Y-18696746D01*
X2672640Y-18637918D01*
X2672475Y-18586047D01*
X2671331Y-18547602D01*
X2670376Y-18535650D01*
X2664603Y-18501529D01*
X2658185Y-18478500D01*
X2648967Y-18450641D01*
X2646998Y-18442504D01*
X2637547Y-18415263D01*
X2619820Y-18376783D01*
X2598191Y-18335362D01*
X2577035Y-18299301D01*
X2560725Y-18276902D01*
X2558758Y-18275057D01*
X2542837Y-18254537D01*
X2540000Y-18244035D01*
X2530947Y-18226973D01*
X2507665Y-18201541D01*
X2475967Y-18172575D01*
X2441666Y-18144912D01*
X2410576Y-18123388D01*
X2388509Y-18112842D01*
X2382717Y-18113170D01*
X2370702Y-18108267D01*
X2352894Y-18094222D01*
X2333558Y-18079529D01*
X2319303Y-18083021D01*
X2305143Y-18097397D01*
X2291788Y-18115714D01*
X2292595Y-18122900D01*
X2292849Y-18130898D01*
X2279044Y-18150269D01*
X2277993Y-18151475D01*
X2254875Y-18183049D01*
X2232431Y-18222180D01*
X2214044Y-18261636D01*
X2203096Y-18294186D01*
X2202769Y-18312298D01*
X2221288Y-18325388D01*
X2226554Y-18326100D01*
X2245409Y-18334116D01*
X2271539Y-18353749D01*
X2275239Y-18357098D01*
X2299032Y-18375503D01*
X2314878Y-18381181D01*
X2316385Y-18380381D01*
X2323021Y-18383385D01*
X2324100Y-18392278D01*
X2333149Y-18416390D01*
X2343384Y-18427894D01*
X2362622Y-18451663D01*
X2383432Y-18487980D01*
X2399659Y-18525194D01*
X2404811Y-18544188D01*
X2412425Y-18569362D01*
X2414633Y-18573750D01*
X2419155Y-18593863D01*
X2421847Y-18630279D01*
X2422790Y-18675741D01*
X2422062Y-18722992D01*
X2419742Y-18764774D01*
X2415910Y-18793833D01*
X2412137Y-18802882D01*
X2402227Y-18820144D01*
X2399371Y-18838024D01*
X2387592Y-18881634D01*
X2359372Y-18925674D01*
X2321381Y-18960039D01*
X2317085Y-18962681D01*
X2283624Y-18975920D01*
X2242838Y-18983672D01*
X2203471Y-18985311D01*
X2174265Y-18980208D01*
X2165221Y-18973592D01*
X2150498Y-18965950D01*
X2146212Y-18967504D01*
X2133996Y-18961487D01*
X2113862Y-18938472D01*
X2089378Y-18904115D01*
X2064111Y-18864073D01*
X2041630Y-18824001D01*
X2025503Y-18789556D01*
X2019300Y-18766393D01*
X2019300Y-18766332D01*
X2014914Y-18750944D01*
X2004489Y-18723801D01*
X1993585Y-18696579D01*
X1988308Y-18681700D01*
X1982276Y-18657257D01*
X1972361Y-18620052D01*
X1961220Y-18579726D01*
X1951511Y-18545923D01*
X1946290Y-18529300D01*
X1937665Y-18501280D01*
X1935809Y-18493383D01*
X1927805Y-18467080D01*
X1923120Y-18455283D01*
X1912646Y-18425278D01*
X1909868Y-18414099D01*
X1891247Y-18364956D01*
X1856886Y-18310680D01*
X1812049Y-18256888D01*
X1761998Y-18209198D01*
X1711998Y-18173228D01*
X1667310Y-18154596D01*
X1666620Y-18154460D01*
X1647960Y-18149958D01*
X1644650Y-18148300D01*
X1633340Y-18143572D01*
X1604785Y-18138052D01*
X1567048Y-18133115D01*
X1543050Y-18130982D01*
X1460601Y-18135420D01*
X1375432Y-18158165D01*
X1363684Y-18162813D01*
X1334951Y-18173817D01*
X1317383Y-18178985D01*
X1302083Y-18188517D01*
X1275343Y-18211848D01*
X1242422Y-18243641D01*
X1208579Y-18278556D01*
X1179074Y-18311255D01*
X1159166Y-18336400D01*
X1154548Y-18344257D01*
X1139267Y-18374700D01*
X1130322Y-18389600D01*
X1115426Y-18417943D01*
X1098512Y-18458280D01*
X1084699Y-18498227D01*
X1083079Y-18503900D01*
X1080413Y-18524210D01*
X1077471Y-18563409D01*
X1074691Y-18614993D01*
X1073255Y-18649950D01*
X1078381Y-18783737D01*
G36*
X711200Y-9792588D02*
X712787Y-9715944D01*
X714354Y-9665176D01*
X716909Y-9633393D01*
X721108Y-9614184D01*
X723900Y-9607550D01*
X729708Y-9590587D01*
X730250Y-9588500D01*
X736058Y-9570613D01*
X736600Y-9569450D01*
X741064Y-9552291D01*
X741362Y-9550110D01*
X750548Y-9534736D01*
X772770Y-9508060D01*
X797036Y-9482237D01*
X853068Y-9436602D01*
X916993Y-9408001D01*
X994984Y-9394063D01*
X1031875Y-9392053D01*
X1104900Y-9390052D01*
X1104900Y-9791700D01*
X1358255Y-9791700D01*
X1361752Y-9591675D01*
X1365250Y-9391650D01*
X2641600Y-9391776D01*
X2641600Y-9118600D01*
X1358900Y-9118600D01*
X1358900Y-8877300D01*
X1104900Y-8877300D01*
X1104900Y-9115019D01*
X1000125Y-9122477D01*
X929698Y-9128231D01*
X877083Y-9134970D01*
X834701Y-9144386D01*
X794973Y-9158171D01*
X750322Y-9178020D01*
X749300Y-9178503D01*
X711511Y-9200169D01*
X668507Y-9230559D01*
X625390Y-9265272D01*
X587265Y-9299906D01*
X559234Y-9330059D01*
X546402Y-9351331D01*
X546100Y-9353751D01*
X537957Y-9373906D01*
X530225Y-9383395D01*
X515943Y-9401600D01*
X513285Y-9408160D01*
X507867Y-9424951D01*
X496196Y-9453469D01*
X495459Y-9455150D01*
X482460Y-9487742D01*
X474853Y-9512300D01*
X465174Y-9571948D01*
X457194Y-9641880D01*
X452555Y-9706979D01*
X452087Y-9721850D01*
X450850Y-9785350D01*
X711200Y-9792588D01*
X711200Y-9792588D01*
G37*
X711200Y-9792588D02*
X712787Y-9715944D01*
X714354Y-9665176D01*
X716909Y-9633393D01*
X721108Y-9614184D01*
X723900Y-9607550D01*
X729708Y-9590587D01*
X730250Y-9588500D01*
X736058Y-9570613D01*
X736600Y-9569450D01*
X741064Y-9552291D01*
X741362Y-9550110D01*
X750548Y-9534736D01*
X772770Y-9508060D01*
X797036Y-9482237D01*
X853068Y-9436602D01*
X916993Y-9408001D01*
X994984Y-9394063D01*
X1031875Y-9392053D01*
X1104900Y-9390052D01*
X1104900Y-9791700D01*
X1358255Y-9791700D01*
X1361752Y-9591675D01*
X1365250Y-9391650D01*
X2641600Y-9391776D01*
X2641600Y-9118600D01*
X1358900Y-9118600D01*
X1358900Y-8877300D01*
X1104900Y-8877300D01*
X1104900Y-9115019D01*
X1000125Y-9122477D01*
X929698Y-9128231D01*
X877083Y-9134970D01*
X834701Y-9144386D01*
X794973Y-9158171D01*
X750322Y-9178020D01*
X749300Y-9178503D01*
X711511Y-9200169D01*
X668507Y-9230559D01*
X625390Y-9265272D01*
X587265Y-9299906D01*
X559234Y-9330059D01*
X546402Y-9351331D01*
X546100Y-9353751D01*
X537957Y-9373906D01*
X530225Y-9383395D01*
X515943Y-9401600D01*
X513285Y-9408160D01*
X507867Y-9424951D01*
X496196Y-9453469D01*
X495459Y-9455150D01*
X482460Y-9487742D01*
X474853Y-9512300D01*
X465174Y-9571948D01*
X457194Y-9641880D01*
X452555Y-9706979D01*
X452087Y-9721850D01*
X450850Y-9785350D01*
X711200Y-9792588D01*
G36*
X1211138Y-10738013D02*
X1266703Y-10737254D01*
X1312214Y-10735545D01*
X1342075Y-10733161D01*
X1350816Y-10731117D01*
X1355827Y-10715757D01*
X1361448Y-10683738D01*
X1364278Y-10661402D01*
X1370227Y-10612558D01*
X1376346Y-10578907D01*
X1384907Y-10550329D01*
X1395048Y-10524298D01*
X1405401Y-10497520D01*
X1409700Y-10483394D01*
X1416409Y-10471053D01*
X1433713Y-10444631D01*
X1450471Y-10420399D01*
X1478946Y-10386589D01*
X1514250Y-10353529D01*
X1549671Y-10326642D01*
X1578492Y-10311353D01*
X1587500Y-10309702D01*
X1602558Y-10304572D01*
X1617188Y-10297404D01*
X1648044Y-10285231D01*
X1674338Y-10278397D01*
X1707161Y-10271892D01*
X1727200Y-10267712D01*
X1743973Y-10266714D01*
X1783118Y-10265747D01*
X1841606Y-10264845D01*
X1916408Y-10264039D01*
X2004496Y-10263365D01*
X2102842Y-10262855D01*
X2193925Y-10262571D01*
X2641600Y-10261600D01*
X2641600Y-9994900D01*
X1104900Y-9994900D01*
X1104900Y-10261600D01*
X1226299Y-10261600D01*
X1287731Y-10262855D01*
X1325982Y-10266549D01*
X1340112Y-10272575D01*
X1339721Y-10274507D01*
X1325964Y-10282764D01*
X1322234Y-10281536D01*
X1307695Y-10285417D01*
X1283961Y-10302501D01*
X1278662Y-10307243D01*
X1256751Y-10325727D01*
X1245153Y-10331938D01*
X1244599Y-10331056D01*
X1238592Y-10331282D01*
X1220049Y-10350456D01*
X1188188Y-10389427D01*
X1173698Y-10407963D01*
X1137348Y-10468181D01*
X1107284Y-10543098D01*
X1087179Y-10622149D01*
X1080980Y-10674648D01*
X1077922Y-10738447D01*
X1211138Y-10738013D01*
X1211138Y-10738013D01*
G37*
X1211138Y-10738013D02*
X1266703Y-10737254D01*
X1312214Y-10735545D01*
X1342075Y-10733161D01*
X1350816Y-10731117D01*
X1355827Y-10715757D01*
X1361448Y-10683738D01*
X1364278Y-10661402D01*
X1370227Y-10612558D01*
X1376346Y-10578907D01*
X1384907Y-10550329D01*
X1395048Y-10524298D01*
X1405401Y-10497520D01*
X1409700Y-10483394D01*
X1416409Y-10471053D01*
X1433713Y-10444631D01*
X1450471Y-10420399D01*
X1478946Y-10386589D01*
X1514250Y-10353529D01*
X1549671Y-10326642D01*
X1578492Y-10311353D01*
X1587500Y-10309702D01*
X1602558Y-10304572D01*
X1617188Y-10297404D01*
X1648044Y-10285231D01*
X1674338Y-10278397D01*
X1707161Y-10271892D01*
X1727200Y-10267712D01*
X1743973Y-10266714D01*
X1783118Y-10265747D01*
X1841606Y-10264845D01*
X1916408Y-10264039D01*
X2004496Y-10263365D01*
X2102842Y-10262855D01*
X2193925Y-10262571D01*
X2641600Y-10261600D01*
X2641600Y-9994900D01*
X1104900Y-9994900D01*
X1104900Y-10261600D01*
X1226299Y-10261600D01*
X1287731Y-10262855D01*
X1325982Y-10266549D01*
X1340112Y-10272575D01*
X1339721Y-10274507D01*
X1325964Y-10282764D01*
X1322234Y-10281536D01*
X1307695Y-10285417D01*
X1283961Y-10302501D01*
X1278662Y-10307243D01*
X1256751Y-10325727D01*
X1245153Y-10331938D01*
X1244599Y-10331056D01*
X1238592Y-10331282D01*
X1220049Y-10350456D01*
X1188188Y-10389427D01*
X1173698Y-10407963D01*
X1137348Y-10468181D01*
X1107284Y-10543098D01*
X1087179Y-10622149D01*
X1080980Y-10674648D01*
X1077922Y-10738447D01*
X1211138Y-10738013D01*
G36*
X2641600Y-11264900D02*
X2641600Y-10991797D01*
X1104900Y-10991797D01*
X1104900Y-11264900D01*
X2641600Y-11264900D01*
X2641600Y-11264900D01*
G37*
X2641600Y-11264900D02*
X2641600Y-10991797D01*
X1104900Y-10991797D01*
X1104900Y-11264900D01*
X2641600Y-11264900D01*
G36*
X1193972Y-12776200D02*
X1255406Y-12773390D01*
X1301123Y-12763053D01*
X1340375Y-12742330D01*
X1365250Y-12723236D01*
X1389456Y-12704512D01*
X1428793Y-12675657D01*
X1477404Y-12640845D01*
X1529432Y-12604250D01*
X1579019Y-12570048D01*
X1601346Y-12554962D01*
X1635392Y-12530554D01*
X1663180Y-12507929D01*
X1668021Y-12503363D01*
X1683993Y-12490385D01*
X1689100Y-12490858D01*
X1697492Y-12488465D01*
X1718866Y-12472791D01*
X1733991Y-12460015D01*
X1762371Y-12436679D01*
X1783036Y-12422540D01*
X1788096Y-12420600D01*
X1802594Y-12412732D01*
X1826630Y-12393310D01*
X1832104Y-12388336D01*
X1854255Y-12369924D01*
X1866217Y-12364124D01*
X1866900Y-12365312D01*
X1874862Y-12363319D01*
X1894893Y-12347400D01*
X1905000Y-12338050D01*
X1928237Y-12317744D01*
X1941728Y-12309744D01*
X1943100Y-12310917D01*
X1951192Y-12308888D01*
X1971696Y-12293030D01*
X1984375Y-12281602D01*
X2012527Y-12258005D01*
X2034664Y-12244274D01*
X2039969Y-12242858D01*
X2059115Y-12233964D01*
X2071139Y-12222497D01*
X2089456Y-12205855D01*
X2122496Y-12180401D01*
X2163682Y-12151158D01*
X2171119Y-12146105D01*
X2220917Y-12111838D01*
X2271390Y-12076034D01*
X2311400Y-12046601D01*
X2344247Y-12022698D01*
X2369041Y-12006571D01*
X2378075Y-12002343D01*
X2380395Y-12014329D01*
X2382511Y-12048707D01*
X2384352Y-12102469D01*
X2385846Y-12172607D01*
X2386923Y-12256113D01*
X2387510Y-12349980D01*
X2387600Y-12405051D01*
X2387600Y-12808603D01*
X2511425Y-12808114D01*
X2635250Y-12807624D01*
X2638548Y-12216824D01*
X2641847Y-11626023D01*
X2549648Y-11626865D01*
X2486901Y-11630568D01*
X2438362Y-11642967D01*
X2394118Y-11668005D01*
X2346325Y-11707739D01*
X2324103Y-11725426D01*
X2312091Y-11730017D01*
X2311400Y-11728450D01*
X2303352Y-11728680D01*
X2283341Y-11743014D01*
X2276475Y-11749026D01*
X2242295Y-11777107D01*
X2202148Y-11806300D01*
X2194011Y-11811727D01*
X2165304Y-11832392D01*
X2148339Y-11848335D01*
X2146386Y-11852275D01*
X2136402Y-11861400D01*
X2132433Y-11861800D01*
X2116209Y-11867512D01*
X2087976Y-11885769D01*
X2045350Y-11918248D01*
X1999783Y-11955190D01*
X1973754Y-11974884D01*
X1957975Y-11983441D01*
X1955800Y-11982450D01*
X1947213Y-11984209D01*
X1925448Y-11998921D01*
X1911816Y-12009709D01*
X1856096Y-12054648D01*
X1816655Y-12084035D01*
X1791112Y-12099549D01*
X1779166Y-12103100D01*
X1765819Y-12109900D01*
X1765213Y-12112625D01*
X1755463Y-12124701D01*
X1730970Y-12144055D01*
X1717588Y-12153172D01*
X1678257Y-12180985D01*
X1641390Y-12210349D01*
X1635125Y-12215873D01*
X1612886Y-12233487D01*
X1600882Y-12238013D01*
X1600200Y-12236450D01*
X1592152Y-12236680D01*
X1572141Y-12251014D01*
X1565275Y-12257026D01*
X1531095Y-12285107D01*
X1490948Y-12314300D01*
X1482811Y-12319727D01*
X1454104Y-12340392D01*
X1437139Y-12356335D01*
X1435186Y-12360275D01*
X1425099Y-12369272D01*
X1420225Y-12369800D01*
X1399968Y-12377655D01*
X1382125Y-12390818D01*
X1375495Y-12395918D01*
X1370263Y-12396168D01*
X1366263Y-12389036D01*
X1363331Y-12371993D01*
X1361302Y-12342508D01*
X1360009Y-12298051D01*
X1359288Y-12236092D01*
X1358973Y-12154100D01*
X1358900Y-12049545D01*
X1358900Y-11658600D01*
X1104900Y-11658600D01*
X1104900Y-12776200D01*
X1193972Y-12776200D01*
X1193972Y-12776200D01*
G37*
X1193972Y-12776200D02*
X1255406Y-12773390D01*
X1301123Y-12763053D01*
X1340375Y-12742330D01*
X1365250Y-12723236D01*
X1389456Y-12704512D01*
X1428793Y-12675657D01*
X1477404Y-12640845D01*
X1529432Y-12604250D01*
X1579019Y-12570048D01*
X1601346Y-12554962D01*
X1635392Y-12530554D01*
X1663180Y-12507929D01*
X1668021Y-12503363D01*
X1683993Y-12490385D01*
X1689100Y-12490858D01*
X1697492Y-12488465D01*
X1718866Y-12472791D01*
X1733991Y-12460015D01*
X1762371Y-12436679D01*
X1783036Y-12422540D01*
X1788096Y-12420600D01*
X1802594Y-12412732D01*
X1826630Y-12393310D01*
X1832104Y-12388336D01*
X1854255Y-12369924D01*
X1866217Y-12364124D01*
X1866900Y-12365312D01*
X1874862Y-12363319D01*
X1894893Y-12347400D01*
X1905000Y-12338050D01*
X1928237Y-12317744D01*
X1941728Y-12309744D01*
X1943100Y-12310917D01*
X1951192Y-12308888D01*
X1971696Y-12293030D01*
X1984375Y-12281602D01*
X2012527Y-12258005D01*
X2034664Y-12244274D01*
X2039969Y-12242858D01*
X2059115Y-12233964D01*
X2071139Y-12222497D01*
X2089456Y-12205855D01*
X2122496Y-12180401D01*
X2163682Y-12151158D01*
X2171119Y-12146105D01*
X2220917Y-12111838D01*
X2271390Y-12076034D01*
X2311400Y-12046601D01*
X2344247Y-12022698D01*
X2369041Y-12006571D01*
X2378075Y-12002343D01*
X2380395Y-12014329D01*
X2382511Y-12048707D01*
X2384352Y-12102469D01*
X2385846Y-12172607D01*
X2386923Y-12256113D01*
X2387510Y-12349980D01*
X2387600Y-12405051D01*
X2387600Y-12808603D01*
X2511425Y-12808114D01*
X2635250Y-12807624D01*
X2638548Y-12216824D01*
X2641847Y-11626023D01*
X2549648Y-11626865D01*
X2486901Y-11630568D01*
X2438362Y-11642967D01*
X2394118Y-11668005D01*
X2346325Y-11707739D01*
X2324103Y-11725426D01*
X2312091Y-11730017D01*
X2311400Y-11728450D01*
X2303352Y-11728680D01*
X2283341Y-11743014D01*
X2276475Y-11749026D01*
X2242295Y-11777107D01*
X2202148Y-11806300D01*
X2194011Y-11811727D01*
X2165304Y-11832392D01*
X2148339Y-11848335D01*
X2146386Y-11852275D01*
X2136402Y-11861400D01*
X2132433Y-11861800D01*
X2116209Y-11867512D01*
X2087976Y-11885769D01*
X2045350Y-11918248D01*
X1999783Y-11955190D01*
X1973754Y-11974884D01*
X1957975Y-11983441D01*
X1955800Y-11982450D01*
X1947213Y-11984209D01*
X1925448Y-11998921D01*
X1911816Y-12009709D01*
X1856096Y-12054648D01*
X1816655Y-12084035D01*
X1791112Y-12099549D01*
X1779166Y-12103100D01*
X1765819Y-12109900D01*
X1765213Y-12112625D01*
X1755463Y-12124701D01*
X1730970Y-12144055D01*
X1717588Y-12153172D01*
X1678257Y-12180985D01*
X1641390Y-12210349D01*
X1635125Y-12215873D01*
X1612886Y-12233487D01*
X1600882Y-12238013D01*
X1600200Y-12236450D01*
X1592152Y-12236680D01*
X1572141Y-12251014D01*
X1565275Y-12257026D01*
X1531095Y-12285107D01*
X1490948Y-12314300D01*
X1482811Y-12319727D01*
X1454104Y-12340392D01*
X1437139Y-12356335D01*
X1435186Y-12360275D01*
X1425099Y-12369272D01*
X1420225Y-12369800D01*
X1399968Y-12377655D01*
X1382125Y-12390818D01*
X1375495Y-12395918D01*
X1370263Y-12396168D01*
X1366263Y-12389036D01*
X1363331Y-12371993D01*
X1361302Y-12342508D01*
X1360009Y-12298051D01*
X1359288Y-12236092D01*
X1358973Y-12154100D01*
X1358900Y-12049545D01*
X1358900Y-11658600D01*
X1104900Y-11658600D01*
X1104900Y-12776200D01*
X1193972Y-12776200D01*
G36*
X1195660Y-14185900D02*
X1246477Y-14184633D01*
X1282505Y-14178870D01*
X1314311Y-14165664D01*
X1352202Y-14142236D01*
X1390037Y-14115726D01*
X1420599Y-14091821D01*
X1434447Y-14078736D01*
X1454510Y-14062223D01*
X1465230Y-14058841D01*
X1482574Y-14050731D01*
X1509320Y-14030396D01*
X1520825Y-14020097D01*
X1545298Y-13998996D01*
X1560095Y-13989782D01*
X1562100Y-13990782D01*
X1570059Y-13988871D01*
X1590084Y-13973003D01*
X1600200Y-13963650D01*
X1623441Y-13943314D01*
X1636930Y-13935248D01*
X1638300Y-13936387D01*
X1646313Y-13934839D01*
X1666240Y-13919538D01*
X1673095Y-13913363D01*
X1698049Y-13892308D01*
X1715267Y-13881485D01*
X1717103Y-13881100D01*
X1731330Y-13873397D01*
X1756869Y-13853875D01*
X1771208Y-13841684D01*
X1797292Y-13820202D01*
X1813485Y-13809602D01*
X1816100Y-13809850D01*
X1824250Y-13808115D01*
X1843935Y-13793442D01*
X1844675Y-13792807D01*
X1862630Y-13777933D01*
X1885312Y-13760537D01*
X1916446Y-13737934D01*
X1959757Y-13707438D01*
X2018970Y-13666365D01*
X2045874Y-13647798D01*
X2087681Y-13617958D01*
X2122453Y-13591294D01*
X2143777Y-13572767D01*
X2145854Y-13570486D01*
X2165884Y-13554109D01*
X2176430Y-13550841D01*
X2193774Y-13542731D01*
X2220520Y-13522396D01*
X2232025Y-13512097D01*
X2256498Y-13490996D01*
X2271295Y-13481782D01*
X2273300Y-13482782D01*
X2281259Y-13480871D01*
X2301284Y-13465003D01*
X2311400Y-13455650D01*
X2334612Y-13435553D01*
X2348110Y-13428013D01*
X2349500Y-13429428D01*
X2357268Y-13431281D01*
X2368369Y-13424049D01*
X2373647Y-13422083D01*
X2377917Y-13427451D01*
X2381316Y-13442546D01*
X2383979Y-13469760D01*
X2386045Y-13511484D01*
X2387650Y-13570111D01*
X2388929Y-13648032D01*
X2390021Y-13747640D01*
X2390594Y-13812858D01*
X2393950Y-14217328D01*
X2517775Y-14217816D01*
X2641600Y-14218303D01*
X2641600Y-13027510D01*
X2542117Y-13032030D01*
X2490073Y-13035295D01*
X2455242Y-13041037D01*
X2429436Y-13051817D01*
X2404466Y-13070194D01*
X2395625Y-13077825D01*
X2366621Y-13101779D01*
X2345274Y-13116672D01*
X2339403Y-13119100D01*
X2324905Y-13126967D01*
X2300869Y-13146389D01*
X2295395Y-13151363D01*
X2273244Y-13169775D01*
X2261282Y-13175575D01*
X2260600Y-13174387D01*
X2252501Y-13175820D01*
X2232379Y-13190869D01*
X2225675Y-13196767D01*
X2193640Y-13222815D01*
X2152591Y-13252499D01*
X2133600Y-13265150D01*
X2092736Y-13293241D01*
X2054825Y-13322199D01*
X2041525Y-13333532D01*
X2019207Y-13351730D01*
X2007241Y-13357577D01*
X2006600Y-13356510D01*
X1998480Y-13357488D01*
X1978859Y-13371777D01*
X1978025Y-13372492D01*
X1946518Y-13398022D01*
X1903251Y-13430129D01*
X1844869Y-13471238D01*
X1777419Y-13517399D01*
X1735529Y-13546908D01*
X1700634Y-13573466D01*
X1679292Y-13592041D01*
X1677439Y-13594097D01*
X1657310Y-13610859D01*
X1646269Y-13614458D01*
X1628925Y-13622568D01*
X1602179Y-13642903D01*
X1590675Y-13653202D01*
X1566201Y-13674303D01*
X1551404Y-13683517D01*
X1549400Y-13682517D01*
X1541304Y-13683865D01*
X1521189Y-13698863D01*
X1514475Y-13704767D01*
X1484549Y-13729531D01*
X1448134Y-13756510D01*
X1411955Y-13781115D01*
X1382734Y-13798759D01*
X1367742Y-13804900D01*
X1365490Y-13792726D01*
X1363450Y-13758310D01*
X1361698Y-13704809D01*
X1360307Y-13635380D01*
X1359356Y-13553181D01*
X1358919Y-13461368D01*
X1358900Y-13436600D01*
X1358900Y-13068300D01*
X1104900Y-13068300D01*
X1104900Y-14185900D01*
X1195660Y-14185900D01*
X1195660Y-14185900D01*
G37*
X1195660Y-14185900D02*
X1246477Y-14184633D01*
X1282505Y-14178870D01*
X1314311Y-14165664D01*
X1352202Y-14142236D01*
X1390037Y-14115726D01*
X1420599Y-14091821D01*
X1434447Y-14078736D01*
X1454510Y-14062223D01*
X1465230Y-14058841D01*
X1482574Y-14050731D01*
X1509320Y-14030396D01*
X1520825Y-14020097D01*
X1545298Y-13998996D01*
X1560095Y-13989782D01*
X1562100Y-13990782D01*
X1570059Y-13988871D01*
X1590084Y-13973003D01*
X1600200Y-13963650D01*
X1623441Y-13943314D01*
X1636930Y-13935248D01*
X1638300Y-13936387D01*
X1646313Y-13934839D01*
X1666240Y-13919538D01*
X1673095Y-13913363D01*
X1698049Y-13892308D01*
X1715267Y-13881485D01*
X1717103Y-13881100D01*
X1731330Y-13873397D01*
X1756869Y-13853875D01*
X1771208Y-13841684D01*
X1797292Y-13820202D01*
X1813485Y-13809602D01*
X1816100Y-13809850D01*
X1824250Y-13808115D01*
X1843935Y-13793442D01*
X1844675Y-13792807D01*
X1862630Y-13777933D01*
X1885312Y-13760537D01*
X1916446Y-13737934D01*
X1959757Y-13707438D01*
X2018970Y-13666365D01*
X2045874Y-13647798D01*
X2087681Y-13617958D01*
X2122453Y-13591294D01*
X2143777Y-13572767D01*
X2145854Y-13570486D01*
X2165884Y-13554109D01*
X2176430Y-13550841D01*
X2193774Y-13542731D01*
X2220520Y-13522396D01*
X2232025Y-13512097D01*
X2256498Y-13490996D01*
X2271295Y-13481782D01*
X2273300Y-13482782D01*
X2281259Y-13480871D01*
X2301284Y-13465003D01*
X2311400Y-13455650D01*
X2334612Y-13435553D01*
X2348110Y-13428013D01*
X2349500Y-13429428D01*
X2357268Y-13431281D01*
X2368369Y-13424049D01*
X2373647Y-13422083D01*
X2377917Y-13427451D01*
X2381316Y-13442546D01*
X2383979Y-13469760D01*
X2386045Y-13511484D01*
X2387650Y-13570111D01*
X2388929Y-13648032D01*
X2390021Y-13747640D01*
X2390594Y-13812858D01*
X2393950Y-14217328D01*
X2517775Y-14217816D01*
X2641600Y-14218303D01*
X2641600Y-13027510D01*
X2542117Y-13032030D01*
X2490073Y-13035295D01*
X2455242Y-13041037D01*
X2429436Y-13051817D01*
X2404466Y-13070194D01*
X2395625Y-13077825D01*
X2366621Y-13101779D01*
X2345274Y-13116672D01*
X2339403Y-13119100D01*
X2324905Y-13126967D01*
X2300869Y-13146389D01*
X2295395Y-13151363D01*
X2273244Y-13169775D01*
X2261282Y-13175575D01*
X2260600Y-13174387D01*
X2252501Y-13175820D01*
X2232379Y-13190869D01*
X2225675Y-13196767D01*
X2193640Y-13222815D01*
X2152591Y-13252499D01*
X2133600Y-13265150D01*
X2092736Y-13293241D01*
X2054825Y-13322199D01*
X2041525Y-13333532D01*
X2019207Y-13351730D01*
X2007241Y-13357577D01*
X2006600Y-13356510D01*
X1998480Y-13357488D01*
X1978859Y-13371777D01*
X1978025Y-13372492D01*
X1946518Y-13398022D01*
X1903251Y-13430129D01*
X1844869Y-13471238D01*
X1777419Y-13517399D01*
X1735529Y-13546908D01*
X1700634Y-13573466D01*
X1679292Y-13592041D01*
X1677439Y-13594097D01*
X1657310Y-13610859D01*
X1646269Y-13614458D01*
X1628925Y-13622568D01*
X1602179Y-13642903D01*
X1590675Y-13653202D01*
X1566201Y-13674303D01*
X1551404Y-13683517D01*
X1549400Y-13682517D01*
X1541304Y-13683865D01*
X1521189Y-13698863D01*
X1514475Y-13704767D01*
X1484549Y-13729531D01*
X1448134Y-13756510D01*
X1411955Y-13781115D01*
X1382734Y-13798759D01*
X1367742Y-13804900D01*
X1365490Y-13792726D01*
X1363450Y-13758310D01*
X1361698Y-13704809D01*
X1360307Y-13635380D01*
X1359356Y-13553181D01*
X1358919Y-13461368D01*
X1358900Y-13436600D01*
X1358900Y-13068300D01*
X1104900Y-13068300D01*
X1104900Y-14185900D01*
X1195660Y-14185900D01*
G36*
X2559050Y-18262600D02*
X2565400Y-18256250D01*
X2559050Y-18249900D01*
X2552700Y-18256250D01*
X2559050Y-18262600D01*
X2559050Y-18262600D01*
G37*
X2559050Y-18262600D02*
X2565400Y-18256250D01*
X2559050Y-18249900D01*
X2552700Y-18256250D01*
X2559050Y-18262600D01*
G36*
X2254250Y-17754600D02*
X2260600Y-17748250D01*
X2254250Y-17741900D01*
X2247900Y-17748250D01*
X2254250Y-17754600D01*
X2254250Y-17754600D01*
G37*
X2254250Y-17754600D02*
X2260600Y-17748250D01*
X2254250Y-17741900D01*
X2247900Y-17748250D01*
X2254250Y-17754600D01*
G36*
X1136650Y-18364200D02*
X1143000Y-18357850D01*
X1136650Y-18351500D01*
X1130300Y-18357850D01*
X1136650Y-18364200D01*
X1136650Y-18364200D01*
G37*
X1136650Y-18364200D02*
X1143000Y-18357850D01*
X1136650Y-18351500D01*
X1130300Y-18357850D01*
X1136650Y-18364200D01*
G36*
X474742Y-11173464D02*
X483035Y-11201597D01*
X502773Y-11228759D01*
X524104Y-11251133D01*
X557567Y-11282700D01*
X584391Y-11299342D01*
X614467Y-11305421D01*
X647700Y-11305602D01*
X698048Y-11301780D01*
X733214Y-11291073D01*
X763235Y-11269610D01*
X777679Y-11255476D01*
X803380Y-11224558D01*
X816008Y-11193510D01*
X820374Y-11150142D01*
X820473Y-11147064D01*
X820446Y-11105379D01*
X818171Y-11072484D01*
X816073Y-11061700D01*
X795370Y-11027631D01*
X760219Y-10992589D01*
X719933Y-10964570D01*
X688561Y-10952238D01*
X652478Y-10950466D01*
X612344Y-10955593D01*
X576126Y-10965612D01*
X551794Y-10978515D01*
X546100Y-10988126D01*
X541140Y-10996457D01*
X538238Y-10994571D01*
X524487Y-10995514D01*
X516013Y-11002470D01*
X489103Y-11042050D01*
X475895Y-11090487D01*
X473263Y-11133658D01*
X474742Y-11173464D01*
X474742Y-11173464D01*
G37*
X474742Y-11173464D02*
X483035Y-11201597D01*
X502773Y-11228759D01*
X524104Y-11251133D01*
X557567Y-11282700D01*
X584391Y-11299342D01*
X614467Y-11305421D01*
X647700Y-11305602D01*
X698048Y-11301780D01*
X733214Y-11291073D01*
X763235Y-11269610D01*
X777679Y-11255476D01*
X803380Y-11224558D01*
X816008Y-11193510D01*
X820374Y-11150142D01*
X820473Y-11147064D01*
X820446Y-11105379D01*
X818171Y-11072484D01*
X816073Y-11061700D01*
X795370Y-11027631D01*
X760219Y-10992589D01*
X719933Y-10964570D01*
X688561Y-10952238D01*
X652478Y-10950466D01*
X612344Y-10955593D01*
X576126Y-10965612D01*
X551794Y-10978515D01*
X546100Y-10988126D01*
X541140Y-10996457D01*
X538238Y-10994571D01*
X524487Y-10995514D01*
X516013Y-11002470D01*
X489103Y-11042050D01*
X475895Y-11090487D01*
X473263Y-11133658D01*
X474742Y-11173464D01*
G36*
X14895576Y-20131812D02*
X14925713Y-20131023D01*
X14949319Y-20129314D01*
X14969477Y-20126345D01*
X14989271Y-20121775D01*
X15011784Y-20115264D01*
X15014183Y-20114530D01*
X15097960Y-20082274D01*
X15179681Y-20037652D01*
X15259215Y-19980848D01*
X15336431Y-19912048D01*
X15411199Y-19831439D01*
X15483388Y-19739206D01*
X15552868Y-19635534D01*
X15619507Y-19520611D01*
X15683176Y-19394621D01*
X15743743Y-19257751D01*
X15801078Y-19110187D01*
X15855050Y-18952114D01*
X15874065Y-18891250D01*
X15884767Y-18857137D01*
X15894546Y-18827781D01*
X15902707Y-18805125D01*
X15908557Y-18791112D01*
X15911148Y-18787435D01*
X15918709Y-18789110D01*
X15936577Y-18793173D01*
X15962688Y-18799153D01*
X15994975Y-18806577D01*
X16028432Y-18814292D01*
X16212866Y-18852869D01*
X16392290Y-18882357D01*
X16467131Y-18892117D01*
X16517436Y-18897123D01*
X16575115Y-18901149D01*
X16637690Y-18904163D01*
X16702685Y-18906132D01*
X16767622Y-18907024D01*
X16830025Y-18906807D01*
X16887415Y-18905448D01*
X16937315Y-18902915D01*
X16977249Y-18899175D01*
X16979900Y-18898828D01*
X17092463Y-18880002D01*
X17194284Y-18855113D01*
X17285894Y-18823940D01*
X17367828Y-18786259D01*
X17440620Y-18741851D01*
X17504802Y-18690491D01*
X17523525Y-18672636D01*
X17578608Y-18609361D01*
X17622518Y-18540455D01*
X17655333Y-18466178D01*
X17677132Y-18386789D01*
X17687991Y-18302548D01*
X17687990Y-18213714D01*
X17677207Y-18120547D01*
X17655720Y-18023307D01*
X17623606Y-17922253D01*
X17580945Y-17817644D01*
X17527815Y-17709740D01*
X17464293Y-17598800D01*
X17390458Y-17485085D01*
X17306389Y-17368853D01*
X17212162Y-17250364D01*
X17107857Y-17129878D01*
X17034883Y-17050817D01*
X17010489Y-17024757D01*
X16989480Y-17001823D01*
X16973288Y-16983617D01*
X16963345Y-16971744D01*
X16960850Y-16967926D01*
X16965071Y-16961252D01*
X16975838Y-16949315D01*
X16983769Y-16941459D01*
X16996496Y-16928743D01*
X17015482Y-16909066D01*
X17038425Y-16884845D01*
X17063021Y-16858500D01*
X17069970Y-16850984D01*
X17133252Y-16782393D01*
X17096263Y-16758184D01*
X17073964Y-16742420D01*
X17053203Y-16725792D01*
X17040491Y-16713924D01*
X17021708Y-16693873D01*
X16938283Y-16781298D01*
X16854857Y-16868722D01*
X16782441Y-16801605D01*
X16622494Y-16659163D01*
X16450675Y-16517347D01*
X16266582Y-16375824D01*
X16255852Y-16367864D01*
X16211471Y-16335022D01*
X16176210Y-16308879D01*
X16149025Y-16288521D01*
X16128873Y-16273032D01*
X16114711Y-16261497D01*
X16105494Y-16252999D01*
X16100179Y-16246625D01*
X16097722Y-16241458D01*
X16097081Y-16236583D01*
X16097211Y-16231085D01*
X16097246Y-16228742D01*
X16096241Y-16205654D01*
X16093384Y-16171736D01*
X16088905Y-16128687D01*
X16083029Y-16078207D01*
X16075987Y-16021994D01*
X16068005Y-15961747D01*
X16059311Y-15899166D01*
X16050134Y-15835949D01*
X16040701Y-15773795D01*
X16031241Y-15714403D01*
X16021980Y-15659472D01*
X16017404Y-15633700D01*
X16010014Y-15594050D01*
X16001468Y-15550066D01*
X15992217Y-15503894D01*
X15982713Y-15457677D01*
X15973407Y-15413563D01*
X15964751Y-15373695D01*
X15957197Y-15340220D01*
X15951196Y-15315282D01*
X15947700Y-15302547D01*
X15948144Y-15297776D01*
X15953849Y-15293221D01*
X15966546Y-15288225D01*
X15987968Y-15282128D01*
X16019848Y-15274270D01*
X16025585Y-15272911D01*
X16159608Y-15243098D01*
X16284641Y-15219190D01*
X16402803Y-15200931D01*
X16516209Y-15188066D01*
X16626976Y-15180339D01*
X16737222Y-15177493D01*
X16809678Y-15178142D01*
X16883532Y-15180577D01*
X16947512Y-15184614D01*
X17004381Y-15190614D01*
X17056905Y-15198935D01*
X17107847Y-15209938D01*
X17158153Y-15223451D01*
X17241102Y-15252615D01*
X17315035Y-15289030D01*
X17379483Y-15332279D01*
X17433975Y-15381948D01*
X17478041Y-15437622D01*
X17511212Y-15498886D01*
X17529454Y-15551150D01*
X17540498Y-15610869D01*
X17543832Y-15678444D01*
X17539541Y-15751710D01*
X17527714Y-15828501D01*
X17516179Y-15878696D01*
X17509518Y-15904796D01*
X17504283Y-15926185D01*
X17501176Y-15939952D01*
X17500623Y-15943342D01*
X17505974Y-15948278D01*
X17519547Y-15955542D01*
X17528657Y-15959543D01*
X17550086Y-15969477D01*
X17575374Y-15982763D01*
X17591361Y-15991952D01*
X17626054Y-16012843D01*
X17645743Y-15948684D01*
X17661929Y-15892869D01*
X17673530Y-15844490D01*
X17681189Y-15799411D01*
X17685551Y-15753494D01*
X17687259Y-15702602D01*
X17687347Y-15681325D01*
X17686444Y-15630349D01*
X17683496Y-15588068D01*
X17677811Y-15550552D01*
X17668698Y-15513870D01*
X17655465Y-15474090D01*
X17646858Y-15451219D01*
X17612798Y-15380547D01*
X17567638Y-15315240D01*
X17511984Y-15255735D01*
X17446442Y-15202467D01*
X17371615Y-15155872D01*
X17288110Y-15116386D01*
X17196531Y-15084444D01*
X17106900Y-15062344D01*
X17063463Y-15053903D01*
X17024605Y-15047262D01*
X16987822Y-15042218D01*
X16950610Y-15038570D01*
X16910465Y-15036114D01*
X16864882Y-15034649D01*
X16811359Y-15033972D01*
X16754475Y-15033869D01*
X16652495Y-15035497D01*
X16554754Y-15040312D01*
X16458556Y-15048646D01*
X16361206Y-15060831D01*
X16260010Y-15077197D01*
X16152272Y-15098076D01*
X16049625Y-15120511D01*
X16012428Y-15128991D01*
X15978846Y-15136625D01*
X15951107Y-15142908D01*
X15931444Y-15147334D01*
X15922362Y-15149340D01*
X15915668Y-15149301D01*
X15910197Y-15144462D01*
X15904725Y-15132622D01*
X15898029Y-15111579D01*
X15894481Y-15099200D01*
X15853328Y-14963207D01*
X15807523Y-14829878D01*
X15757718Y-14700644D01*
X15704561Y-14576938D01*
X15648702Y-14460192D01*
X15590791Y-14351837D01*
X15531476Y-14253306D01*
X15471408Y-14166031D01*
X15470894Y-14165339D01*
X15397364Y-14074100D01*
X15321429Y-13995034D01*
X15243190Y-13928221D01*
X15162748Y-13873737D01*
X15080203Y-13831661D01*
X15005050Y-13804711D01*
X14970574Y-13797235D01*
X14928119Y-13791811D01*
X14881549Y-13788584D01*
X14834725Y-13787698D01*
X14791512Y-13789296D01*
X14755774Y-13793522D01*
X14747875Y-13795140D01*
X14663380Y-13820568D01*
X14581735Y-13857303D01*
X14502676Y-13905557D01*
X14425936Y-13965545D01*
X14351252Y-14037479D01*
X14278358Y-14121572D01*
X14206990Y-14218039D01*
X14187945Y-14246238D01*
X14130248Y-14339648D01*
X14073467Y-14444050D01*
X14018346Y-14557736D01*
X13965626Y-14679001D01*
X13916052Y-14806137D01*
X13870365Y-14937437D01*
X13830068Y-15068550D01*
X13821516Y-15097465D01*
X13813815Y-15121929D01*
X13807819Y-15139329D01*
X13804419Y-15147012D01*
X13796932Y-15147495D01*
X13779385Y-15145236D01*
X13754022Y-15140622D01*
X13723092Y-15134041D01*
X13705483Y-15129952D01*
X13614438Y-15109307D01*
X13522548Y-15090494D01*
X13434580Y-15074455D01*
X13379450Y-15065615D01*
X13349914Y-15061167D01*
X13323491Y-15057143D01*
X13303709Y-15054085D01*
X13295871Y-15052835D01*
X13278968Y-15050042D01*
X13279996Y-15122766D01*
X13280946Y-15189943D01*
X13944600Y-15189943D01*
X13946504Y-15180658D01*
X13951801Y-15161296D01*
X13959871Y-15133829D01*
X13970090Y-15100228D01*
X13981838Y-15062466D01*
X13994493Y-15022513D01*
X14007432Y-14982342D01*
X14020034Y-14943923D01*
X14031678Y-14909230D01*
X14041741Y-14880233D01*
X14045893Y-14868737D01*
X14100839Y-14728148D01*
X14158257Y-14598156D01*
X14217986Y-14478977D01*
X14279866Y-14370828D01*
X14343737Y-14273927D01*
X14409437Y-14188490D01*
X14476805Y-14114735D01*
X14545681Y-14052877D01*
X14615905Y-14003135D01*
X14687315Y-13965725D01*
X14726018Y-13950826D01*
X14793736Y-13933910D01*
X14861524Y-13929116D01*
X14931155Y-13936377D01*
X14957425Y-13942029D01*
X15024666Y-13964591D01*
X15092211Y-13999502D01*
X15159671Y-14046427D01*
X15226662Y-14105032D01*
X15292797Y-14174984D01*
X15357688Y-14255950D01*
X15412855Y-14335125D01*
X15439336Y-14377963D01*
X15468978Y-14430040D01*
X15500454Y-14488718D01*
X15532435Y-14551356D01*
X15563593Y-14615314D01*
X15592599Y-14677954D01*
X15618126Y-14736634D01*
X15631714Y-14770100D01*
X15647118Y-14810434D01*
X15663377Y-14854904D01*
X15680000Y-14901980D01*
X15696497Y-14950130D01*
X15712376Y-14997824D01*
X15727147Y-15043531D01*
X15740319Y-15085720D01*
X15751402Y-15122860D01*
X15759904Y-15153421D01*
X15765335Y-15175870D01*
X15767204Y-15188678D01*
X15766633Y-15191000D01*
X15760154Y-15193406D01*
X15743050Y-15199295D01*
X15716762Y-15208183D01*
X15682730Y-15219587D01*
X15642394Y-15233023D01*
X15597195Y-15248008D01*
X15567025Y-15257975D01*
X15441477Y-15300934D01*
X15313172Y-15347730D01*
X15186002Y-15396860D01*
X15063861Y-15446824D01*
X14958491Y-15492591D01*
X14857958Y-15537687D01*
X14764816Y-15496208D01*
X14693866Y-15465280D01*
X14617845Y-15433352D01*
X14538400Y-15401038D01*
X14457180Y-15368951D01*
X14375835Y-15337707D01*
X14296012Y-15307919D01*
X14219359Y-15280201D01*
X14147527Y-15255169D01*
X14082162Y-15233435D01*
X14024914Y-15215615D01*
X13977432Y-15202322D01*
X13973144Y-15201230D01*
X13956273Y-15196184D01*
X13946028Y-15191580D01*
X13944600Y-15189943D01*
X13280946Y-15189943D01*
X13281025Y-15195491D01*
X13300075Y-15198711D01*
X13316178Y-15201292D01*
X13339600Y-15204882D01*
X13363575Y-15208455D01*
X13415176Y-15216754D01*
X13475024Y-15227581D01*
X13539105Y-15240141D01*
X13603408Y-15253646D01*
X13663919Y-15267302D01*
X13673793Y-15269643D01*
X13768112Y-15292177D01*
X13764586Y-15308951D01*
X13762158Y-15320308D01*
X13757525Y-15341804D01*
X13751179Y-15371165D01*
X13743611Y-15406121D01*
X13735312Y-15444398D01*
X13735274Y-15444576D01*
X13713785Y-15549101D01*
X13692843Y-15661522D01*
X13673309Y-15777038D01*
X13659218Y-15868830D01*
X13655730Y-15893912D01*
X13651418Y-15926808D01*
X13646517Y-15965526D01*
X13641265Y-16008072D01*
X13635895Y-16052456D01*
X13630646Y-16096682D01*
X13625751Y-16138760D01*
X13624691Y-16148112D01*
X13768935Y-16148112D01*
X13777345Y-16076644D01*
X13794626Y-15941646D01*
X13814695Y-15805727D01*
X13836975Y-15672345D01*
X13860893Y-15544957D01*
X13884254Y-15434210D01*
X13891778Y-15400475D01*
X13898214Y-15371337D01*
X13903094Y-15348939D01*
X13905950Y-15335420D01*
X13906500Y-15332418D01*
X13912320Y-15332842D01*
X13929064Y-15337091D01*
X13955652Y-15344835D01*
X13991005Y-15355745D01*
X14034046Y-15369490D01*
X14083695Y-15385741D01*
X14115721Y-15396395D01*
X14265843Y-15448944D01*
X14418774Y-15506896D01*
X14564384Y-15566274D01*
X14679916Y-15615183D01*
X15036423Y-15615183D01*
X15037196Y-15614555D01*
X15048097Y-15609364D01*
X15068907Y-15600261D01*
X15097733Y-15588021D01*
X15132684Y-15573421D01*
X15171865Y-15557240D01*
X15213384Y-15540254D01*
X15255348Y-15523239D01*
X15295865Y-15506974D01*
X15333042Y-15492235D01*
X15364985Y-15479800D01*
X15371418Y-15477338D01*
X15405504Y-15464633D01*
X15445417Y-15450233D01*
X15489486Y-15434694D01*
X15536038Y-15418576D01*
X15583403Y-15402436D01*
X15629907Y-15386833D01*
X15673879Y-15372324D01*
X15713647Y-15359468D01*
X15747538Y-15348822D01*
X15773881Y-15340946D01*
X15791004Y-15336396D01*
X15796371Y-15335488D01*
X15805210Y-15337677D01*
X15811155Y-15346597D01*
X15816161Y-15365198D01*
X15816207Y-15365413D01*
X15836552Y-15462537D01*
X15854224Y-15549451D01*
X15869595Y-15628272D01*
X15883038Y-15701120D01*
X15894926Y-15770112D01*
X15905631Y-15837368D01*
X15915528Y-15905005D01*
X15924989Y-15975141D01*
X15928818Y-16005027D01*
X15933706Y-16044084D01*
X15937994Y-16079059D01*
X15941437Y-16107912D01*
X15943795Y-16128607D01*
X15944824Y-16139105D01*
X15944850Y-16139751D01*
X15939879Y-16139227D01*
X15926167Y-16132617D01*
X15905516Y-16120915D01*
X15879724Y-16105117D01*
X15863887Y-16094970D01*
X15736482Y-16014036D01*
X15602910Y-15932769D01*
X15466458Y-15853063D01*
X15330413Y-15776809D01*
X15198063Y-15705901D01*
X15107025Y-15659279D01*
X15073294Y-15641872D01*
X15050683Y-15628976D01*
X15038592Y-15620207D01*
X15036423Y-15615183D01*
X14679916Y-15615183D01*
X14686327Y-15617897D01*
X14558351Y-15684536D01*
X14353943Y-15794087D01*
X14157719Y-15905796D01*
X13965174Y-16022303D01*
X13785330Y-16137359D01*
X13768935Y-16148112D01*
X13624691Y-16148112D01*
X13621449Y-16176696D01*
X13617973Y-16208498D01*
X13615562Y-16232173D01*
X13614449Y-16245728D01*
X13614402Y-16247276D01*
X13609485Y-16253141D01*
X13595848Y-16264981D01*
X13575156Y-16281464D01*
X13549074Y-16301256D01*
X13523912Y-16319685D01*
X13406518Y-16406538D01*
X13288651Y-16497932D01*
X13173596Y-16591223D01*
X13064639Y-16683765D01*
X12996374Y-16744314D01*
X12967109Y-16770723D01*
X12938792Y-16796170D01*
X12913748Y-16818576D01*
X12894299Y-16835859D01*
X12885864Y-16843270D01*
X12856804Y-16868564D01*
X12800305Y-16808345D01*
X12686086Y-16682214D01*
X12582964Y-16559163D01*
X12491045Y-16439362D01*
X12410434Y-16322980D01*
X12341237Y-16210186D01*
X12283560Y-16101151D01*
X12237508Y-15996043D01*
X12203187Y-15895031D01*
X12185189Y-15821964D01*
X12175131Y-15754773D01*
X12171769Y-15687091D01*
X12174906Y-15621496D01*
X12184342Y-15560565D01*
X12199879Y-15506876D01*
X12211527Y-15480227D01*
X12248985Y-15419637D01*
X12295806Y-15365876D01*
X12349965Y-15321233D01*
X12355223Y-15317679D01*
X12372638Y-15305368D01*
X12384789Y-15295349D01*
X12388850Y-15290211D01*
X12387354Y-15281712D01*
X12383479Y-15264969D01*
X12379325Y-15248501D01*
X12373805Y-15221051D01*
X12370367Y-15191910D01*
X12369800Y-15178341D01*
X12368970Y-15159632D01*
X12366837Y-15147438D01*
X12364936Y-15144750D01*
X12355284Y-15148209D01*
X12337897Y-15157509D01*
X12315326Y-15171041D01*
X12290118Y-15187193D01*
X12264823Y-15204355D01*
X12241990Y-15220914D01*
X12231583Y-15229038D01*
X12180508Y-15277206D01*
X12133863Y-15334547D01*
X12093956Y-15397712D01*
X12063098Y-15463351D01*
X12055463Y-15484475D01*
X12039998Y-15544493D01*
X12030383Y-15612306D01*
X12026815Y-15684341D01*
X12029489Y-15757021D01*
X12037102Y-15818319D01*
X12060900Y-15924174D01*
X12096809Y-16033521D01*
X12144836Y-16146373D01*
X12204992Y-16262746D01*
X12277283Y-16382653D01*
X12361718Y-16506109D01*
X12458307Y-16633127D01*
X12567057Y-16763722D01*
X12678238Y-16887454D01*
X12754007Y-16969016D01*
X12961007Y-16969016D01*
X13041641Y-16895823D01*
X13099624Y-16843634D01*
X13153106Y-16796543D01*
X13205687Y-16751467D01*
X13260969Y-16705322D01*
X13322553Y-16655025D01*
X13328650Y-16650091D01*
X13365376Y-16620646D01*
X13403555Y-16590498D01*
X13441817Y-16560684D01*
X13478791Y-16532242D01*
X13513107Y-16506207D01*
X13543396Y-16483618D01*
X13568288Y-16465511D01*
X13586411Y-16452923D01*
X13596397Y-16446890D01*
X13597625Y-16446514D01*
X13600564Y-16451664D01*
X13599624Y-16460788D01*
X13598537Y-16470500D01*
X13597093Y-16491244D01*
X13595378Y-16521359D01*
X13593479Y-16559183D01*
X13591481Y-16603056D01*
X13589469Y-16651317D01*
X13588542Y-16675100D01*
X13586314Y-16749019D01*
X13584890Y-16830716D01*
X13584248Y-16917607D01*
X13584280Y-16942763D01*
X13731716Y-16942763D01*
X13731857Y-16858366D01*
X13732474Y-16775863D01*
X13733566Y-16696537D01*
X13735133Y-16621672D01*
X13737175Y-16552553D01*
X13739693Y-16490462D01*
X13742686Y-16436685D01*
X13746154Y-16392504D01*
X13750097Y-16359204D01*
X13751851Y-16348991D01*
X13754346Y-16342434D01*
X13760141Y-16334808D01*
X13770419Y-16325202D01*
X13786364Y-16312702D01*
X13809159Y-16296396D01*
X13839990Y-16275371D01*
X13880038Y-16248713D01*
X13892864Y-16240248D01*
X14019611Y-16158638D01*
X14153581Y-16075974D01*
X14289943Y-15995190D01*
X14395450Y-15935040D01*
X14421795Y-15920532D01*
X14454882Y-15902686D01*
X14493275Y-15882244D01*
X14535539Y-15859945D01*
X14580241Y-15836531D01*
X14625945Y-15812743D01*
X14671217Y-15789322D01*
X14714622Y-15767008D01*
X14754726Y-15746544D01*
X14790093Y-15728669D01*
X14819291Y-15714126D01*
X14840882Y-15703654D01*
X14853435Y-15697995D01*
X14855919Y-15697200D01*
X14862280Y-15699948D01*
X14878549Y-15707722D01*
X14903301Y-15719821D01*
X14935108Y-15735540D01*
X14972544Y-15754178D01*
X15014184Y-15775032D01*
X15029113Y-15782536D01*
X15196116Y-15868684D01*
X15354430Y-15954899D01*
X15507886Y-16043391D01*
X15660313Y-16136369D01*
X15815539Y-16236043D01*
X15818633Y-16238077D01*
X15962291Y-16332556D01*
X15966238Y-16381591D01*
X15971965Y-16460287D01*
X15972401Y-16467950D01*
X16117326Y-16467950D01*
X16117408Y-16452584D01*
X16118930Y-16446505D01*
X16118994Y-16446500D01*
X16125258Y-16450129D01*
X16139772Y-16460131D01*
X16160683Y-16475184D01*
X16186140Y-16493965D01*
X16200696Y-16504868D01*
X16277710Y-16563868D01*
X16356922Y-16626446D01*
X16436121Y-16690765D01*
X16513097Y-16754984D01*
X16585639Y-16817267D01*
X16651538Y-16875774D01*
X16696687Y-16917401D01*
X16753200Y-16970577D01*
X16661762Y-17053330D01*
X16578665Y-17127606D01*
X16500589Y-17195299D01*
X16424070Y-17259278D01*
X16345645Y-17322410D01*
X16261850Y-17387563D01*
X16215379Y-17422910D01*
X16185517Y-17445234D01*
X16159232Y-17464420D01*
X16138142Y-17479325D01*
X16123862Y-17488807D01*
X16118010Y-17491724D01*
X16117990Y-17491708D01*
X16117537Y-17484878D01*
X16117699Y-17467101D01*
X16118421Y-17440111D01*
X16119650Y-17405644D01*
X16121333Y-17365436D01*
X16122982Y-17330066D01*
X16124350Y-17293793D01*
X16125451Y-17247911D01*
X16126291Y-17193995D01*
X16126880Y-17133617D01*
X16127225Y-17068351D01*
X16127333Y-16999770D01*
X16127214Y-16929448D01*
X16126875Y-16858959D01*
X16126324Y-16789876D01*
X16125569Y-16723771D01*
X16124618Y-16662220D01*
X16123479Y-16606794D01*
X16122160Y-16559068D01*
X16120670Y-16520615D01*
X16119015Y-16493009D01*
X16118705Y-16489363D01*
X16117326Y-16467950D01*
X15972401Y-16467950D01*
X15976547Y-16540700D01*
X15980051Y-16624879D01*
X15982541Y-16714872D01*
X15984084Y-16812728D01*
X15984745Y-16920495D01*
X15984780Y-16960850D01*
X15984591Y-17045779D01*
X15984026Y-17120853D01*
X15982996Y-17188912D01*
X15981409Y-17252798D01*
X15979176Y-17315353D01*
X15976206Y-17379417D01*
X15972409Y-17447832D01*
X15967696Y-17523440D01*
X15966201Y-17546261D01*
X15962136Y-17607797D01*
X15837605Y-17689681D01*
X15645774Y-17812367D01*
X15455458Y-17926923D01*
X15262426Y-18035788D01*
X15062448Y-18141398D01*
X14988070Y-18179025D01*
X14859966Y-18243127D01*
X14784870Y-18207474D01*
X14674816Y-18153443D01*
X14557282Y-18092436D01*
X14434462Y-18025706D01*
X14308551Y-17954507D01*
X14181742Y-17880092D01*
X14056229Y-17803712D01*
X13934208Y-17726621D01*
X13873955Y-17687387D01*
X13755686Y-17609539D01*
X13751833Y-17575707D01*
X13747696Y-17532042D01*
X13744035Y-17478716D01*
X13740849Y-17417013D01*
X13738138Y-17348216D01*
X13735903Y-17273609D01*
X13734143Y-17194477D01*
X13732859Y-17112102D01*
X13732049Y-17027770D01*
X13731716Y-16942763D01*
X13584280Y-16942763D01*
X13584364Y-17007109D01*
X13585213Y-17096639D01*
X13586773Y-17183613D01*
X13589019Y-17265447D01*
X13591928Y-17339560D01*
X13595173Y-17398759D01*
X13597106Y-17431507D01*
X13598398Y-17459484D01*
X13598970Y-17480374D01*
X13598744Y-17491861D01*
X13598402Y-17493315D01*
X13592172Y-17490931D01*
X13577232Y-17481324D01*
X13554681Y-17465342D01*
X13525615Y-17443830D01*
X13491133Y-17417636D01*
X13452331Y-17387606D01*
X13410308Y-17354586D01*
X13366162Y-17319423D01*
X13320989Y-17282965D01*
X13275887Y-17246057D01*
X13249275Y-17224013D01*
X13200638Y-17183339D01*
X13159109Y-17148117D01*
X13121869Y-17115880D01*
X13086098Y-17084156D01*
X13048979Y-17050477D01*
X13007693Y-17012373D01*
X13006716Y-17011465D01*
X12961007Y-16969016D01*
X12754007Y-16969016D01*
X12755295Y-16970402D01*
X12692057Y-17037064D01*
X12573721Y-17166737D01*
X12466426Y-17294578D01*
X12370322Y-17420348D01*
X12285559Y-17543806D01*
X12212287Y-17664714D01*
X12150656Y-17782830D01*
X12100817Y-17897915D01*
X12062920Y-18009729D01*
X12048160Y-18065750D01*
X12038995Y-18113973D01*
X12032343Y-18168602D01*
X12028405Y-18225699D01*
X12027465Y-18276832D01*
X12172135Y-18276832D01*
X12173053Y-18220480D01*
X12177880Y-18164273D01*
X12185219Y-18118661D01*
X12209752Y-18023981D01*
X12245546Y-17924732D01*
X12292263Y-17821516D01*
X12349563Y-17714932D01*
X12417107Y-17605581D01*
X12494556Y-17494062D01*
X12581571Y-17380977D01*
X12645808Y-17303750D01*
X12675909Y-17269041D01*
X12707240Y-17233647D01*
X12738594Y-17198860D01*
X12768765Y-17165970D01*
X12796544Y-17136269D01*
X12820727Y-17111047D01*
X12840106Y-17091595D01*
X12853474Y-17079205D01*
X12859483Y-17075150D01*
X12866261Y-17079270D01*
X12880086Y-17090454D01*
X12898872Y-17106941D01*
X12918228Y-17124790D01*
X12999290Y-17199025D01*
X13089128Y-17277478D01*
X13185401Y-17358234D01*
X13285764Y-17439376D01*
X13387874Y-17518987D01*
X13489389Y-17595151D01*
X13525035Y-17621138D01*
X13558002Y-17645222D01*
X13581961Y-17663470D01*
X13598377Y-17677227D01*
X13608716Y-17687840D01*
X13614442Y-17696654D01*
X13617023Y-17705016D01*
X13617141Y-17705733D01*
X13618934Y-17719179D01*
X13621704Y-17742417D01*
X13625126Y-17772606D01*
X13628609Y-17804488D01*
X13773150Y-17804488D01*
X13775652Y-17801805D01*
X13783884Y-17804035D01*
X13798931Y-17811754D01*
X13821877Y-17825534D01*
X13853809Y-17845952D01*
X13863637Y-17852366D01*
X13898006Y-17874551D01*
X13939829Y-17901053D01*
X13985638Y-17929705D01*
X14031968Y-17958339D01*
X14075352Y-17984789D01*
X14077922Y-17986342D01*
X14164251Y-18037639D01*
X14254464Y-18089736D01*
X14345507Y-18140931D01*
X14434329Y-18189525D01*
X14517876Y-18233816D01*
X14571639Y-18261376D01*
X14605533Y-18278655D01*
X14635164Y-18294134D01*
X14658797Y-18306874D01*
X14674695Y-18315940D01*
X14681122Y-18320391D01*
X14681176Y-18320543D01*
X14680040Y-18321317D01*
X15029404Y-18321317D01*
X15148989Y-18259283D01*
X15289591Y-18184688D01*
X15429858Y-18107063D01*
X15566998Y-18028023D01*
X15698218Y-17949187D01*
X15820726Y-17872170D01*
X15846306Y-17855582D01*
X15876865Y-17835760D01*
X15903494Y-17818701D01*
X15924486Y-17805483D01*
X15938132Y-17797183D01*
X15942727Y-17794812D01*
X15942363Y-17801201D01*
X15940592Y-17818258D01*
X15937634Y-17844051D01*
X15933714Y-17876653D01*
X15929052Y-17914135D01*
X15928333Y-17919814D01*
X15910556Y-18050784D01*
X15891125Y-18175189D01*
X15869058Y-18299146D01*
X15858544Y-18353679D01*
X15849443Y-18399018D01*
X15840121Y-18443894D01*
X15830978Y-18486536D01*
X15822409Y-18525176D01*
X15814815Y-18558042D01*
X15808593Y-18583365D01*
X15804142Y-18599376D01*
X15802161Y-18604256D01*
X15795317Y-18603467D01*
X15778329Y-18599207D01*
X15753089Y-18592060D01*
X15721488Y-18582610D01*
X15685417Y-18571443D01*
X15646768Y-18559142D01*
X15607432Y-18546291D01*
X15569300Y-18533476D01*
X15538450Y-18522765D01*
X15454883Y-18492637D01*
X15370030Y-18460973D01*
X15286464Y-18428785D01*
X15206761Y-18397083D01*
X15133495Y-18366879D01*
X15069242Y-18339184D01*
X15056914Y-18333682D01*
X15029404Y-18321317D01*
X14680040Y-18321317D01*
X14675517Y-18324396D01*
X14659524Y-18332217D01*
X14634705Y-18343383D01*
X14602567Y-18357270D01*
X14564617Y-18373254D01*
X14522362Y-18390710D01*
X14477309Y-18409015D01*
X14430966Y-18427545D01*
X14384839Y-18445676D01*
X14340435Y-18462783D01*
X14309304Y-18474517D01*
X14258041Y-18493315D01*
X14205648Y-18511972D01*
X14153529Y-18530036D01*
X14103091Y-18547057D01*
X14055737Y-18562584D01*
X14012873Y-18576166D01*
X13975904Y-18587351D01*
X13946235Y-18595689D01*
X13925271Y-18600729D01*
X13914417Y-18602020D01*
X13913342Y-18601608D01*
X13910588Y-18593972D01*
X13905725Y-18575808D01*
X13899184Y-18549032D01*
X13891393Y-18515559D01*
X13882781Y-18477305D01*
X13873778Y-18436186D01*
X13864813Y-18394118D01*
X13856316Y-18353016D01*
X13848716Y-18314797D01*
X13846617Y-18303875D01*
X13839531Y-18265085D01*
X13831746Y-18219788D01*
X13823525Y-18169770D01*
X13815131Y-18116816D01*
X13806827Y-18062712D01*
X13798876Y-18009243D01*
X13791539Y-17958195D01*
X13785080Y-17911351D01*
X13779761Y-17870498D01*
X13775845Y-17837422D01*
X13773595Y-17813906D01*
X13773150Y-17804488D01*
X13628609Y-17804488D01*
X13628874Y-17806905D01*
X13630406Y-17821275D01*
X13647426Y-17964122D01*
X13668680Y-18112648D01*
X13693374Y-18261966D01*
X13720712Y-18407191D01*
X13742423Y-18510250D01*
X13750638Y-18547625D01*
X13757870Y-18581056D01*
X13763672Y-18608440D01*
X13767598Y-18627673D01*
X13769203Y-18636650D01*
X13769208Y-18636698D01*
X13765524Y-18641782D01*
X13753249Y-18647832D01*
X13731736Y-18655022D01*
X13700341Y-18663523D01*
X13658420Y-18673510D01*
X13605328Y-18685155D01*
X13540419Y-18698630D01*
X13531850Y-18700370D01*
X13378086Y-18728201D01*
X13230797Y-18748161D01*
X13090511Y-18760241D01*
X12957755Y-18764432D01*
X12833057Y-18760726D01*
X12716946Y-18749115D01*
X12609949Y-18729590D01*
X12557125Y-18716032D01*
X12475058Y-18687544D01*
X12401640Y-18651576D01*
X12337402Y-18608611D01*
X12282875Y-18559135D01*
X12238590Y-18503633D01*
X12205077Y-18442589D01*
X12182867Y-18376488D01*
X12182217Y-18373725D01*
X12175174Y-18329267D01*
X12172135Y-18276832D01*
X12027465Y-18276832D01*
X12027382Y-18281325D01*
X12029473Y-18331542D01*
X12033074Y-18362480D01*
X12045751Y-18419200D01*
X12065133Y-18478478D01*
X12089135Y-18534457D01*
X12104734Y-18563763D01*
X12137774Y-18611558D01*
X12180663Y-18659869D01*
X12230863Y-18706427D01*
X12285833Y-18748965D01*
X12343031Y-18785213D01*
X12366959Y-18797941D01*
X12414411Y-18818767D01*
X12471721Y-18839116D01*
X12536052Y-18858205D01*
X12604566Y-18875252D01*
X12674427Y-18889474D01*
X12731750Y-18898619D01*
X12761144Y-18901519D01*
X12800795Y-18903772D01*
X12848275Y-18905376D01*
X12901159Y-18906332D01*
X12957020Y-18906641D01*
X13013430Y-18906303D01*
X13067963Y-18905317D01*
X13118193Y-18903685D01*
X13161692Y-18901406D01*
X13195300Y-18898563D01*
X13259475Y-18890717D01*
X13331216Y-18880666D01*
X13405878Y-18869140D01*
X13478820Y-18856866D01*
X13545399Y-18844573D01*
X13566734Y-18840320D01*
X13607162Y-18831882D01*
X13648841Y-18822857D01*
X13689548Y-18813759D01*
X13727061Y-18805102D01*
X13759156Y-18797400D01*
X13783610Y-18791169D01*
X13798200Y-18786923D01*
X13799445Y-18786471D01*
X13805251Y-18787189D01*
X13811005Y-18795297D01*
X13817685Y-18812640D01*
X13823717Y-18832222D01*
X13832298Y-18860759D01*
X13842885Y-18894775D01*
X13854807Y-18932233D01*
X13867387Y-18971091D01*
X13879954Y-19009310D01*
X13891832Y-19044852D01*
X13902348Y-19075676D01*
X13910828Y-19099743D01*
X13916599Y-19115014D01*
X13918535Y-19119194D01*
X13923524Y-19123171D01*
X13932623Y-19122953D01*
X13948534Y-19118092D01*
X13965986Y-19111363D01*
X13991359Y-19102094D01*
X14016071Y-19094516D01*
X14032887Y-19090637D01*
X14058076Y-19086609D01*
X14030794Y-19009567D01*
X14019866Y-18977866D01*
X14008076Y-18942241D01*
X13996021Y-18904665D01*
X13984302Y-18867117D01*
X13973517Y-18831570D01*
X13964264Y-18800000D01*
X13957141Y-18774384D01*
X13952748Y-18756697D01*
X13951683Y-18748914D01*
X13951772Y-18748765D01*
X13958142Y-18746303D01*
X13975143Y-18740322D01*
X14001351Y-18731309D01*
X14035345Y-18719747D01*
X14075702Y-18706122D01*
X14120999Y-18690917D01*
X14154150Y-18679838D01*
X14319006Y-18622455D01*
X14483436Y-18560598D01*
X14642958Y-18495999D01*
X14755129Y-18447486D01*
X14857634Y-18401825D01*
X14951979Y-18444096D01*
X15066007Y-18493630D01*
X15186940Y-18543309D01*
X15311113Y-18591734D01*
X15434864Y-18637508D01*
X15446140Y-18641440D01*
X15944850Y-18641440D01*
X15946189Y-18633269D01*
X15949909Y-18614836D01*
X15955558Y-18588261D01*
X15962688Y-18555664D01*
X15969945Y-18523171D01*
X15995408Y-18402865D01*
X16019708Y-18273814D01*
X16042205Y-18139964D01*
X16062261Y-18005259D01*
X16079237Y-17873644D01*
X16088256Y-17792218D01*
X16099082Y-17686961D01*
X16204528Y-17609751D01*
X16336651Y-17511017D01*
X16459760Y-17414750D01*
X16576629Y-17318699D01*
X16690035Y-17220609D01*
X16748125Y-17168444D01*
X16785318Y-17134963D01*
X16814252Y-17109719D01*
X16835743Y-17092068D01*
X16850607Y-17081362D01*
X16859662Y-17076957D01*
X16863229Y-17077492D01*
X16869886Y-17084437D01*
X16883544Y-17098870D01*
X16902522Y-17119008D01*
X16925139Y-17143070D01*
X16938434Y-17157239D01*
X17036058Y-17265235D01*
X17126918Y-17373638D01*
X17210122Y-17481239D01*
X17284775Y-17586825D01*
X17349985Y-17689184D01*
X17404858Y-17787106D01*
X17409554Y-17796239D01*
X17443271Y-17864898D01*
X17470665Y-17926752D01*
X17493061Y-17985137D01*
X17511782Y-18043386D01*
X17521275Y-18077650D01*
X17528824Y-18107448D01*
X17534137Y-18132249D01*
X17537610Y-18155573D01*
X17539635Y-18180943D01*
X17540608Y-18211877D01*
X17540923Y-18251898D01*
X17540926Y-18253075D01*
X17540861Y-18292443D01*
X17540234Y-18322040D01*
X17538723Y-18344797D01*
X17536007Y-18363640D01*
X17531763Y-18381498D01*
X17525671Y-18401300D01*
X17524128Y-18405973D01*
X17495561Y-18472469D01*
X17456528Y-18532587D01*
X17408035Y-18584957D01*
X17370748Y-18615031D01*
X17304414Y-18656427D01*
X17230929Y-18690841D01*
X17149666Y-18718409D01*
X17059992Y-18739268D01*
X16961277Y-18753556D01*
X16852893Y-18761410D01*
X16734207Y-18762967D01*
X16694537Y-18762173D01*
X16580457Y-18756734D01*
X16466495Y-18746453D01*
X16349973Y-18730968D01*
X16228213Y-18709914D01*
X16098537Y-18682926D01*
X16078200Y-18678335D01*
X16043155Y-18670362D01*
X16011288Y-18663135D01*
X15985198Y-18657243D01*
X15967484Y-18653273D01*
X15962312Y-18652134D01*
X15949662Y-18647240D01*
X15944850Y-18641440D01*
X15446140Y-18641440D01*
X15554530Y-18679234D01*
X15649529Y-18710232D01*
X15685367Y-18721556D01*
X15716761Y-18731576D01*
X15741810Y-18739676D01*
X15758613Y-18745241D01*
X15765266Y-18747656D01*
X15765293Y-18747677D01*
X15764283Y-18754301D01*
X15759824Y-18771144D01*
X15752485Y-18796380D01*
X15742834Y-18828181D01*
X15731441Y-18864719D01*
X15718874Y-18904167D01*
X15705702Y-18944697D01*
X15692495Y-18984481D01*
X15681647Y-19016398D01*
X15644917Y-19117744D01*
X15606040Y-19213826D01*
X15562854Y-19309737D01*
X15518474Y-19400192D01*
X15455470Y-19516316D01*
X15390665Y-19619873D01*
X15324058Y-19710863D01*
X15255652Y-19789284D01*
X15185447Y-19855136D01*
X15113443Y-19908417D01*
X15066919Y-19935655D01*
X15024015Y-19956920D01*
X14986730Y-19971939D01*
X14950609Y-19982202D01*
X14911199Y-19989200D01*
X14903950Y-19990160D01*
X14838084Y-19992868D01*
X14772305Y-19984042D01*
X14706042Y-19963477D01*
X14638724Y-19930971D01*
X14569780Y-19886321D01*
X14533239Y-19858351D01*
X14490053Y-19823631D01*
X14463389Y-19851463D01*
X14443477Y-19871117D01*
X14422028Y-19890621D01*
X14411325Y-19899600D01*
X14385925Y-19919906D01*
X14420850Y-19951820D01*
X14447694Y-19974423D01*
X14480987Y-19999582D01*
X14517464Y-20025088D01*
X14553863Y-20048735D01*
X14586922Y-20068317D01*
X14611605Y-20080854D01*
X14634584Y-20090303D01*
X14664045Y-20101445D01*
X14694355Y-20112163D01*
X14700284Y-20114157D01*
X14721714Y-20121001D01*
X14740125Y-20125845D01*
X14758481Y-20129028D01*
X14779751Y-20130891D01*
X14806898Y-20131775D01*
X14842891Y-20132021D01*
X14855825Y-20132022D01*
X14895576Y-20131812D01*
X14895576Y-20131812D01*
G37*
X14895576Y-20131812D02*
X14925713Y-20131023D01*
X14949319Y-20129314D01*
X14969477Y-20126345D01*
X14989271Y-20121775D01*
X15011784Y-20115264D01*
X15014183Y-20114530D01*
X15097960Y-20082274D01*
X15179681Y-20037652D01*
X15259215Y-19980848D01*
X15336431Y-19912048D01*
X15411199Y-19831439D01*
X15483388Y-19739206D01*
X15552868Y-19635534D01*
X15619507Y-19520611D01*
X15683176Y-19394621D01*
X15743743Y-19257751D01*
X15801078Y-19110187D01*
X15855050Y-18952114D01*
X15874065Y-18891250D01*
X15884767Y-18857137D01*
X15894546Y-18827781D01*
X15902707Y-18805125D01*
X15908557Y-18791112D01*
X15911148Y-18787435D01*
X15918709Y-18789110D01*
X15936577Y-18793173D01*
X15962688Y-18799153D01*
X15994975Y-18806577D01*
X16028432Y-18814292D01*
X16212866Y-18852869D01*
X16392290Y-18882357D01*
X16467131Y-18892117D01*
X16517436Y-18897123D01*
X16575115Y-18901149D01*
X16637690Y-18904163D01*
X16702685Y-18906132D01*
X16767622Y-18907024D01*
X16830025Y-18906807D01*
X16887415Y-18905448D01*
X16937315Y-18902915D01*
X16977249Y-18899175D01*
X16979900Y-18898828D01*
X17092463Y-18880002D01*
X17194284Y-18855113D01*
X17285894Y-18823940D01*
X17367828Y-18786259D01*
X17440620Y-18741851D01*
X17504802Y-18690491D01*
X17523525Y-18672636D01*
X17578608Y-18609361D01*
X17622518Y-18540455D01*
X17655333Y-18466178D01*
X17677132Y-18386789D01*
X17687991Y-18302548D01*
X17687990Y-18213714D01*
X17677207Y-18120547D01*
X17655720Y-18023307D01*
X17623606Y-17922253D01*
X17580945Y-17817644D01*
X17527815Y-17709740D01*
X17464293Y-17598800D01*
X17390458Y-17485085D01*
X17306389Y-17368853D01*
X17212162Y-17250364D01*
X17107857Y-17129878D01*
X17034883Y-17050817D01*
X17010489Y-17024757D01*
X16989480Y-17001823D01*
X16973288Y-16983617D01*
X16963345Y-16971744D01*
X16960850Y-16967926D01*
X16965071Y-16961252D01*
X16975838Y-16949315D01*
X16983769Y-16941459D01*
X16996496Y-16928743D01*
X17015482Y-16909066D01*
X17038425Y-16884845D01*
X17063021Y-16858500D01*
X17069970Y-16850984D01*
X17133252Y-16782393D01*
X17096263Y-16758184D01*
X17073964Y-16742420D01*
X17053203Y-16725792D01*
X17040491Y-16713924D01*
X17021708Y-16693873D01*
X16938283Y-16781298D01*
X16854857Y-16868722D01*
X16782441Y-16801605D01*
X16622494Y-16659163D01*
X16450675Y-16517347D01*
X16266582Y-16375824D01*
X16255852Y-16367864D01*
X16211471Y-16335022D01*
X16176210Y-16308879D01*
X16149025Y-16288521D01*
X16128873Y-16273032D01*
X16114711Y-16261497D01*
X16105494Y-16252999D01*
X16100179Y-16246625D01*
X16097722Y-16241458D01*
X16097081Y-16236583D01*
X16097211Y-16231085D01*
X16097246Y-16228742D01*
X16096241Y-16205654D01*
X16093384Y-16171736D01*
X16088905Y-16128687D01*
X16083029Y-16078207D01*
X16075987Y-16021994D01*
X16068005Y-15961747D01*
X16059311Y-15899166D01*
X16050134Y-15835949D01*
X16040701Y-15773795D01*
X16031241Y-15714403D01*
X16021980Y-15659472D01*
X16017404Y-15633700D01*
X16010014Y-15594050D01*
X16001468Y-15550066D01*
X15992217Y-15503894D01*
X15982713Y-15457677D01*
X15973407Y-15413563D01*
X15964751Y-15373695D01*
X15957197Y-15340220D01*
X15951196Y-15315282D01*
X15947700Y-15302547D01*
X15948144Y-15297776D01*
X15953849Y-15293221D01*
X15966546Y-15288225D01*
X15987968Y-15282128D01*
X16019848Y-15274270D01*
X16025585Y-15272911D01*
X16159608Y-15243098D01*
X16284641Y-15219190D01*
X16402803Y-15200931D01*
X16516209Y-15188066D01*
X16626976Y-15180339D01*
X16737222Y-15177493D01*
X16809678Y-15178142D01*
X16883532Y-15180577D01*
X16947512Y-15184614D01*
X17004381Y-15190614D01*
X17056905Y-15198935D01*
X17107847Y-15209938D01*
X17158153Y-15223451D01*
X17241102Y-15252615D01*
X17315035Y-15289030D01*
X17379483Y-15332279D01*
X17433975Y-15381948D01*
X17478041Y-15437622D01*
X17511212Y-15498886D01*
X17529454Y-15551150D01*
X17540498Y-15610869D01*
X17543832Y-15678444D01*
X17539541Y-15751710D01*
X17527714Y-15828501D01*
X17516179Y-15878696D01*
X17509518Y-15904796D01*
X17504283Y-15926185D01*
X17501176Y-15939952D01*
X17500623Y-15943342D01*
X17505974Y-15948278D01*
X17519547Y-15955542D01*
X17528657Y-15959543D01*
X17550086Y-15969477D01*
X17575374Y-15982763D01*
X17591361Y-15991952D01*
X17626054Y-16012843D01*
X17645743Y-15948684D01*
X17661929Y-15892869D01*
X17673530Y-15844490D01*
X17681189Y-15799411D01*
X17685551Y-15753494D01*
X17687259Y-15702602D01*
X17687347Y-15681325D01*
X17686444Y-15630349D01*
X17683496Y-15588068D01*
X17677811Y-15550552D01*
X17668698Y-15513870D01*
X17655465Y-15474090D01*
X17646858Y-15451219D01*
X17612798Y-15380547D01*
X17567638Y-15315240D01*
X17511984Y-15255735D01*
X17446442Y-15202467D01*
X17371615Y-15155872D01*
X17288110Y-15116386D01*
X17196531Y-15084444D01*
X17106900Y-15062344D01*
X17063463Y-15053903D01*
X17024605Y-15047262D01*
X16987822Y-15042218D01*
X16950610Y-15038570D01*
X16910465Y-15036114D01*
X16864882Y-15034649D01*
X16811359Y-15033972D01*
X16754475Y-15033869D01*
X16652495Y-15035497D01*
X16554754Y-15040312D01*
X16458556Y-15048646D01*
X16361206Y-15060831D01*
X16260010Y-15077197D01*
X16152272Y-15098076D01*
X16049625Y-15120511D01*
X16012428Y-15128991D01*
X15978846Y-15136625D01*
X15951107Y-15142908D01*
X15931444Y-15147334D01*
X15922362Y-15149340D01*
X15915668Y-15149301D01*
X15910197Y-15144462D01*
X15904725Y-15132622D01*
X15898029Y-15111579D01*
X15894481Y-15099200D01*
X15853328Y-14963207D01*
X15807523Y-14829878D01*
X15757718Y-14700644D01*
X15704561Y-14576938D01*
X15648702Y-14460192D01*
X15590791Y-14351837D01*
X15531476Y-14253306D01*
X15471408Y-14166031D01*
X15470894Y-14165339D01*
X15397364Y-14074100D01*
X15321429Y-13995034D01*
X15243190Y-13928221D01*
X15162748Y-13873737D01*
X15080203Y-13831661D01*
X15005050Y-13804711D01*
X14970574Y-13797235D01*
X14928119Y-13791811D01*
X14881549Y-13788584D01*
X14834725Y-13787698D01*
X14791512Y-13789296D01*
X14755774Y-13793522D01*
X14747875Y-13795140D01*
X14663380Y-13820568D01*
X14581735Y-13857303D01*
X14502676Y-13905557D01*
X14425936Y-13965545D01*
X14351252Y-14037479D01*
X14278358Y-14121572D01*
X14206990Y-14218039D01*
X14187945Y-14246238D01*
X14130248Y-14339648D01*
X14073467Y-14444050D01*
X14018346Y-14557736D01*
X13965626Y-14679001D01*
X13916052Y-14806137D01*
X13870365Y-14937437D01*
X13830068Y-15068550D01*
X13821516Y-15097465D01*
X13813815Y-15121929D01*
X13807819Y-15139329D01*
X13804419Y-15147012D01*
X13796932Y-15147495D01*
X13779385Y-15145236D01*
X13754022Y-15140622D01*
X13723092Y-15134041D01*
X13705483Y-15129952D01*
X13614438Y-15109307D01*
X13522548Y-15090494D01*
X13434580Y-15074455D01*
X13379450Y-15065615D01*
X13349914Y-15061167D01*
X13323491Y-15057143D01*
X13303709Y-15054085D01*
X13295871Y-15052835D01*
X13278968Y-15050042D01*
X13279996Y-15122766D01*
X13280946Y-15189943D01*
X13944600Y-15189943D01*
X13946504Y-15180658D01*
X13951801Y-15161296D01*
X13959871Y-15133829D01*
X13970090Y-15100228D01*
X13981838Y-15062466D01*
X13994493Y-15022513D01*
X14007432Y-14982342D01*
X14020034Y-14943923D01*
X14031678Y-14909230D01*
X14041741Y-14880233D01*
X14045893Y-14868737D01*
X14100839Y-14728148D01*
X14158257Y-14598156D01*
X14217986Y-14478977D01*
X14279866Y-14370828D01*
X14343737Y-14273927D01*
X14409437Y-14188490D01*
X14476805Y-14114735D01*
X14545681Y-14052877D01*
X14615905Y-14003135D01*
X14687315Y-13965725D01*
X14726018Y-13950826D01*
X14793736Y-13933910D01*
X14861524Y-13929116D01*
X14931155Y-13936377D01*
X14957425Y-13942029D01*
X15024666Y-13964591D01*
X15092211Y-13999502D01*
X15159671Y-14046427D01*
X15226662Y-14105032D01*
X15292797Y-14174984D01*
X15357688Y-14255950D01*
X15412855Y-14335125D01*
X15439336Y-14377963D01*
X15468978Y-14430040D01*
X15500454Y-14488718D01*
X15532435Y-14551356D01*
X15563593Y-14615314D01*
X15592599Y-14677954D01*
X15618126Y-14736634D01*
X15631714Y-14770100D01*
X15647118Y-14810434D01*
X15663377Y-14854904D01*
X15680000Y-14901980D01*
X15696497Y-14950130D01*
X15712376Y-14997824D01*
X15727147Y-15043531D01*
X15740319Y-15085720D01*
X15751402Y-15122860D01*
X15759904Y-15153421D01*
X15765335Y-15175870D01*
X15767204Y-15188678D01*
X15766633Y-15191000D01*
X15760154Y-15193406D01*
X15743050Y-15199295D01*
X15716762Y-15208183D01*
X15682730Y-15219587D01*
X15642394Y-15233023D01*
X15597195Y-15248008D01*
X15567025Y-15257975D01*
X15441477Y-15300934D01*
X15313172Y-15347730D01*
X15186002Y-15396860D01*
X15063861Y-15446824D01*
X14958491Y-15492591D01*
X14857958Y-15537687D01*
X14764816Y-15496208D01*
X14693866Y-15465280D01*
X14617845Y-15433352D01*
X14538400Y-15401038D01*
X14457180Y-15368951D01*
X14375835Y-15337707D01*
X14296012Y-15307919D01*
X14219359Y-15280201D01*
X14147527Y-15255169D01*
X14082162Y-15233435D01*
X14024914Y-15215615D01*
X13977432Y-15202322D01*
X13973144Y-15201230D01*
X13956273Y-15196184D01*
X13946028Y-15191580D01*
X13944600Y-15189943D01*
X13280946Y-15189943D01*
X13281025Y-15195491D01*
X13300075Y-15198711D01*
X13316178Y-15201292D01*
X13339600Y-15204882D01*
X13363575Y-15208455D01*
X13415176Y-15216754D01*
X13475024Y-15227581D01*
X13539105Y-15240141D01*
X13603408Y-15253646D01*
X13663919Y-15267302D01*
X13673793Y-15269643D01*
X13768112Y-15292177D01*
X13764586Y-15308951D01*
X13762158Y-15320308D01*
X13757525Y-15341804D01*
X13751179Y-15371165D01*
X13743611Y-15406121D01*
X13735312Y-15444398D01*
X13735274Y-15444576D01*
X13713785Y-15549101D01*
X13692843Y-15661522D01*
X13673309Y-15777038D01*
X13659218Y-15868830D01*
X13655730Y-15893912D01*
X13651418Y-15926808D01*
X13646517Y-15965526D01*
X13641265Y-16008072D01*
X13635895Y-16052456D01*
X13630646Y-16096682D01*
X13625751Y-16138760D01*
X13624691Y-16148112D01*
X13768935Y-16148112D01*
X13777345Y-16076644D01*
X13794626Y-15941646D01*
X13814695Y-15805727D01*
X13836975Y-15672345D01*
X13860893Y-15544957D01*
X13884254Y-15434210D01*
X13891778Y-15400475D01*
X13898214Y-15371337D01*
X13903094Y-15348939D01*
X13905950Y-15335420D01*
X13906500Y-15332418D01*
X13912320Y-15332842D01*
X13929064Y-15337091D01*
X13955652Y-15344835D01*
X13991005Y-15355745D01*
X14034046Y-15369490D01*
X14083695Y-15385741D01*
X14115721Y-15396395D01*
X14265843Y-15448944D01*
X14418774Y-15506896D01*
X14564384Y-15566274D01*
X14679916Y-15615183D01*
X15036423Y-15615183D01*
X15037196Y-15614555D01*
X15048097Y-15609364D01*
X15068907Y-15600261D01*
X15097733Y-15588021D01*
X15132684Y-15573421D01*
X15171865Y-15557240D01*
X15213384Y-15540254D01*
X15255348Y-15523239D01*
X15295865Y-15506974D01*
X15333042Y-15492235D01*
X15364985Y-15479800D01*
X15371418Y-15477338D01*
X15405504Y-15464633D01*
X15445417Y-15450233D01*
X15489486Y-15434694D01*
X15536038Y-15418576D01*
X15583403Y-15402436D01*
X15629907Y-15386833D01*
X15673879Y-15372324D01*
X15713647Y-15359468D01*
X15747538Y-15348822D01*
X15773881Y-15340946D01*
X15791004Y-15336396D01*
X15796371Y-15335488D01*
X15805210Y-15337677D01*
X15811155Y-15346597D01*
X15816161Y-15365198D01*
X15816207Y-15365413D01*
X15836552Y-15462537D01*
X15854224Y-15549451D01*
X15869595Y-15628272D01*
X15883038Y-15701120D01*
X15894926Y-15770112D01*
X15905631Y-15837368D01*
X15915528Y-15905005D01*
X15924989Y-15975141D01*
X15928818Y-16005027D01*
X15933706Y-16044084D01*
X15937994Y-16079059D01*
X15941437Y-16107912D01*
X15943795Y-16128607D01*
X15944824Y-16139105D01*
X15944850Y-16139751D01*
X15939879Y-16139227D01*
X15926167Y-16132617D01*
X15905516Y-16120915D01*
X15879724Y-16105117D01*
X15863887Y-16094970D01*
X15736482Y-16014036D01*
X15602910Y-15932769D01*
X15466458Y-15853063D01*
X15330413Y-15776809D01*
X15198063Y-15705901D01*
X15107025Y-15659279D01*
X15073294Y-15641872D01*
X15050683Y-15628976D01*
X15038592Y-15620207D01*
X15036423Y-15615183D01*
X14679916Y-15615183D01*
X14686327Y-15617897D01*
X14558351Y-15684536D01*
X14353943Y-15794087D01*
X14157719Y-15905796D01*
X13965174Y-16022303D01*
X13785330Y-16137359D01*
X13768935Y-16148112D01*
X13624691Y-16148112D01*
X13621449Y-16176696D01*
X13617973Y-16208498D01*
X13615562Y-16232173D01*
X13614449Y-16245728D01*
X13614402Y-16247276D01*
X13609485Y-16253141D01*
X13595848Y-16264981D01*
X13575156Y-16281464D01*
X13549074Y-16301256D01*
X13523912Y-16319685D01*
X13406518Y-16406538D01*
X13288651Y-16497932D01*
X13173596Y-16591223D01*
X13064639Y-16683765D01*
X12996374Y-16744314D01*
X12967109Y-16770723D01*
X12938792Y-16796170D01*
X12913748Y-16818576D01*
X12894299Y-16835859D01*
X12885864Y-16843270D01*
X12856804Y-16868564D01*
X12800305Y-16808345D01*
X12686086Y-16682214D01*
X12582964Y-16559163D01*
X12491045Y-16439362D01*
X12410434Y-16322980D01*
X12341237Y-16210186D01*
X12283560Y-16101151D01*
X12237508Y-15996043D01*
X12203187Y-15895031D01*
X12185189Y-15821964D01*
X12175131Y-15754773D01*
X12171769Y-15687091D01*
X12174906Y-15621496D01*
X12184342Y-15560565D01*
X12199879Y-15506876D01*
X12211527Y-15480227D01*
X12248985Y-15419637D01*
X12295806Y-15365876D01*
X12349965Y-15321233D01*
X12355223Y-15317679D01*
X12372638Y-15305368D01*
X12384789Y-15295349D01*
X12388850Y-15290211D01*
X12387354Y-15281712D01*
X12383479Y-15264969D01*
X12379325Y-15248501D01*
X12373805Y-15221051D01*
X12370367Y-15191910D01*
X12369800Y-15178341D01*
X12368970Y-15159632D01*
X12366837Y-15147438D01*
X12364936Y-15144750D01*
X12355284Y-15148209D01*
X12337897Y-15157509D01*
X12315326Y-15171041D01*
X12290118Y-15187193D01*
X12264823Y-15204355D01*
X12241990Y-15220914D01*
X12231583Y-15229038D01*
X12180508Y-15277206D01*
X12133863Y-15334547D01*
X12093956Y-15397712D01*
X12063098Y-15463351D01*
X12055463Y-15484475D01*
X12039998Y-15544493D01*
X12030383Y-15612306D01*
X12026815Y-15684341D01*
X12029489Y-15757021D01*
X12037102Y-15818319D01*
X12060900Y-15924174D01*
X12096809Y-16033521D01*
X12144836Y-16146373D01*
X12204992Y-16262746D01*
X12277283Y-16382653D01*
X12361718Y-16506109D01*
X12458307Y-16633127D01*
X12567057Y-16763722D01*
X12678238Y-16887454D01*
X12754007Y-16969016D01*
X12961007Y-16969016D01*
X13041641Y-16895823D01*
X13099624Y-16843634D01*
X13153106Y-16796543D01*
X13205687Y-16751467D01*
X13260969Y-16705322D01*
X13322553Y-16655025D01*
X13328650Y-16650091D01*
X13365376Y-16620646D01*
X13403555Y-16590498D01*
X13441817Y-16560684D01*
X13478791Y-16532242D01*
X13513107Y-16506207D01*
X13543396Y-16483618D01*
X13568288Y-16465511D01*
X13586411Y-16452923D01*
X13596397Y-16446890D01*
X13597625Y-16446514D01*
X13600564Y-16451664D01*
X13599624Y-16460788D01*
X13598537Y-16470500D01*
X13597093Y-16491244D01*
X13595378Y-16521359D01*
X13593479Y-16559183D01*
X13591481Y-16603056D01*
X13589469Y-16651317D01*
X13588542Y-16675100D01*
X13586314Y-16749019D01*
X13584890Y-16830716D01*
X13584248Y-16917607D01*
X13584280Y-16942763D01*
X13731716Y-16942763D01*
X13731857Y-16858366D01*
X13732474Y-16775863D01*
X13733566Y-16696537D01*
X13735133Y-16621672D01*
X13737175Y-16552553D01*
X13739693Y-16490462D01*
X13742686Y-16436685D01*
X13746154Y-16392504D01*
X13750097Y-16359204D01*
X13751851Y-16348991D01*
X13754346Y-16342434D01*
X13760141Y-16334808D01*
X13770419Y-16325202D01*
X13786364Y-16312702D01*
X13809159Y-16296396D01*
X13839990Y-16275371D01*
X13880038Y-16248713D01*
X13892864Y-16240248D01*
X14019611Y-16158638D01*
X14153581Y-16075974D01*
X14289943Y-15995190D01*
X14395450Y-15935040D01*
X14421795Y-15920532D01*
X14454882Y-15902686D01*
X14493275Y-15882244D01*
X14535539Y-15859945D01*
X14580241Y-15836531D01*
X14625945Y-15812743D01*
X14671217Y-15789322D01*
X14714622Y-15767008D01*
X14754726Y-15746544D01*
X14790093Y-15728669D01*
X14819291Y-15714126D01*
X14840882Y-15703654D01*
X14853435Y-15697995D01*
X14855919Y-15697200D01*
X14862280Y-15699948D01*
X14878549Y-15707722D01*
X14903301Y-15719821D01*
X14935108Y-15735540D01*
X14972544Y-15754178D01*
X15014184Y-15775032D01*
X15029113Y-15782536D01*
X15196116Y-15868684D01*
X15354430Y-15954899D01*
X15507886Y-16043391D01*
X15660313Y-16136369D01*
X15815539Y-16236043D01*
X15818633Y-16238077D01*
X15962291Y-16332556D01*
X15966238Y-16381591D01*
X15971965Y-16460287D01*
X15972401Y-16467950D01*
X16117326Y-16467950D01*
X16117408Y-16452584D01*
X16118930Y-16446505D01*
X16118994Y-16446500D01*
X16125258Y-16450129D01*
X16139772Y-16460131D01*
X16160683Y-16475184D01*
X16186140Y-16493965D01*
X16200696Y-16504868D01*
X16277710Y-16563868D01*
X16356922Y-16626446D01*
X16436121Y-16690765D01*
X16513097Y-16754984D01*
X16585639Y-16817267D01*
X16651538Y-16875774D01*
X16696687Y-16917401D01*
X16753200Y-16970577D01*
X16661762Y-17053330D01*
X16578665Y-17127606D01*
X16500589Y-17195299D01*
X16424070Y-17259278D01*
X16345645Y-17322410D01*
X16261850Y-17387563D01*
X16215379Y-17422910D01*
X16185517Y-17445234D01*
X16159232Y-17464420D01*
X16138142Y-17479325D01*
X16123862Y-17488807D01*
X16118010Y-17491724D01*
X16117990Y-17491708D01*
X16117537Y-17484878D01*
X16117699Y-17467101D01*
X16118421Y-17440111D01*
X16119650Y-17405644D01*
X16121333Y-17365436D01*
X16122982Y-17330066D01*
X16124350Y-17293793D01*
X16125451Y-17247911D01*
X16126291Y-17193995D01*
X16126880Y-17133617D01*
X16127225Y-17068351D01*
X16127333Y-16999770D01*
X16127214Y-16929448D01*
X16126875Y-16858959D01*
X16126324Y-16789876D01*
X16125569Y-16723771D01*
X16124618Y-16662220D01*
X16123479Y-16606794D01*
X16122160Y-16559068D01*
X16120670Y-16520615D01*
X16119015Y-16493009D01*
X16118705Y-16489363D01*
X16117326Y-16467950D01*
X15972401Y-16467950D01*
X15976547Y-16540700D01*
X15980051Y-16624879D01*
X15982541Y-16714872D01*
X15984084Y-16812728D01*
X15984745Y-16920495D01*
X15984780Y-16960850D01*
X15984591Y-17045779D01*
X15984026Y-17120853D01*
X15982996Y-17188912D01*
X15981409Y-17252798D01*
X15979176Y-17315353D01*
X15976206Y-17379417D01*
X15972409Y-17447832D01*
X15967696Y-17523440D01*
X15966201Y-17546261D01*
X15962136Y-17607797D01*
X15837605Y-17689681D01*
X15645774Y-17812367D01*
X15455458Y-17926923D01*
X15262426Y-18035788D01*
X15062448Y-18141398D01*
X14988070Y-18179025D01*
X14859966Y-18243127D01*
X14784870Y-18207474D01*
X14674816Y-18153443D01*
X14557282Y-18092436D01*
X14434462Y-18025706D01*
X14308551Y-17954507D01*
X14181742Y-17880092D01*
X14056229Y-17803712D01*
X13934208Y-17726621D01*
X13873955Y-17687387D01*
X13755686Y-17609539D01*
X13751833Y-17575707D01*
X13747696Y-17532042D01*
X13744035Y-17478716D01*
X13740849Y-17417013D01*
X13738138Y-17348216D01*
X13735903Y-17273609D01*
X13734143Y-17194477D01*
X13732859Y-17112102D01*
X13732049Y-17027770D01*
X13731716Y-16942763D01*
X13584280Y-16942763D01*
X13584364Y-17007109D01*
X13585213Y-17096639D01*
X13586773Y-17183613D01*
X13589019Y-17265447D01*
X13591928Y-17339560D01*
X13595173Y-17398759D01*
X13597106Y-17431507D01*
X13598398Y-17459484D01*
X13598970Y-17480374D01*
X13598744Y-17491861D01*
X13598402Y-17493315D01*
X13592172Y-17490931D01*
X13577232Y-17481324D01*
X13554681Y-17465342D01*
X13525615Y-17443830D01*
X13491133Y-17417636D01*
X13452331Y-17387606D01*
X13410308Y-17354586D01*
X13366162Y-17319423D01*
X13320989Y-17282965D01*
X13275887Y-17246057D01*
X13249275Y-17224013D01*
X13200638Y-17183339D01*
X13159109Y-17148117D01*
X13121869Y-17115880D01*
X13086098Y-17084156D01*
X13048979Y-17050477D01*
X13007693Y-17012373D01*
X13006716Y-17011465D01*
X12961007Y-16969016D01*
X12754007Y-16969016D01*
X12755295Y-16970402D01*
X12692057Y-17037064D01*
X12573721Y-17166737D01*
X12466426Y-17294578D01*
X12370322Y-17420348D01*
X12285559Y-17543806D01*
X12212287Y-17664714D01*
X12150656Y-17782830D01*
X12100817Y-17897915D01*
X12062920Y-18009729D01*
X12048160Y-18065750D01*
X12038995Y-18113973D01*
X12032343Y-18168602D01*
X12028405Y-18225699D01*
X12027465Y-18276832D01*
X12172135Y-18276832D01*
X12173053Y-18220480D01*
X12177880Y-18164273D01*
X12185219Y-18118661D01*
X12209752Y-18023981D01*
X12245546Y-17924732D01*
X12292263Y-17821516D01*
X12349563Y-17714932D01*
X12417107Y-17605581D01*
X12494556Y-17494062D01*
X12581571Y-17380977D01*
X12645808Y-17303750D01*
X12675909Y-17269041D01*
X12707240Y-17233647D01*
X12738594Y-17198860D01*
X12768765Y-17165970D01*
X12796544Y-17136269D01*
X12820727Y-17111047D01*
X12840106Y-17091595D01*
X12853474Y-17079205D01*
X12859483Y-17075150D01*
X12866261Y-17079270D01*
X12880086Y-17090454D01*
X12898872Y-17106941D01*
X12918228Y-17124790D01*
X12999290Y-17199025D01*
X13089128Y-17277478D01*
X13185401Y-17358234D01*
X13285764Y-17439376D01*
X13387874Y-17518987D01*
X13489389Y-17595151D01*
X13525035Y-17621138D01*
X13558002Y-17645222D01*
X13581961Y-17663470D01*
X13598377Y-17677227D01*
X13608716Y-17687840D01*
X13614442Y-17696654D01*
X13617023Y-17705016D01*
X13617141Y-17705733D01*
X13618934Y-17719179D01*
X13621704Y-17742417D01*
X13625126Y-17772606D01*
X13628609Y-17804488D01*
X13773150Y-17804488D01*
X13775652Y-17801805D01*
X13783884Y-17804035D01*
X13798931Y-17811754D01*
X13821877Y-17825534D01*
X13853809Y-17845952D01*
X13863637Y-17852366D01*
X13898006Y-17874551D01*
X13939829Y-17901053D01*
X13985638Y-17929705D01*
X14031968Y-17958339D01*
X14075352Y-17984789D01*
X14077922Y-17986342D01*
X14164251Y-18037639D01*
X14254464Y-18089736D01*
X14345507Y-18140931D01*
X14434329Y-18189525D01*
X14517876Y-18233816D01*
X14571639Y-18261376D01*
X14605533Y-18278655D01*
X14635164Y-18294134D01*
X14658797Y-18306874D01*
X14674695Y-18315940D01*
X14681122Y-18320391D01*
X14681176Y-18320543D01*
X14680040Y-18321317D01*
X15029404Y-18321317D01*
X15148989Y-18259283D01*
X15289591Y-18184688D01*
X15429858Y-18107063D01*
X15566998Y-18028023D01*
X15698218Y-17949187D01*
X15820726Y-17872170D01*
X15846306Y-17855582D01*
X15876865Y-17835760D01*
X15903494Y-17818701D01*
X15924486Y-17805483D01*
X15938132Y-17797183D01*
X15942727Y-17794812D01*
X15942363Y-17801201D01*
X15940592Y-17818258D01*
X15937634Y-17844051D01*
X15933714Y-17876653D01*
X15929052Y-17914135D01*
X15928333Y-17919814D01*
X15910556Y-18050784D01*
X15891125Y-18175189D01*
X15869058Y-18299146D01*
X15858544Y-18353679D01*
X15849443Y-18399018D01*
X15840121Y-18443894D01*
X15830978Y-18486536D01*
X15822409Y-18525176D01*
X15814815Y-18558042D01*
X15808593Y-18583365D01*
X15804142Y-18599376D01*
X15802161Y-18604256D01*
X15795317Y-18603467D01*
X15778329Y-18599207D01*
X15753089Y-18592060D01*
X15721488Y-18582610D01*
X15685417Y-18571443D01*
X15646768Y-18559142D01*
X15607432Y-18546291D01*
X15569300Y-18533476D01*
X15538450Y-18522765D01*
X15454883Y-18492637D01*
X15370030Y-18460973D01*
X15286464Y-18428785D01*
X15206761Y-18397083D01*
X15133495Y-18366879D01*
X15069242Y-18339184D01*
X15056914Y-18333682D01*
X15029404Y-18321317D01*
X14680040Y-18321317D01*
X14675517Y-18324396D01*
X14659524Y-18332217D01*
X14634705Y-18343383D01*
X14602567Y-18357270D01*
X14564617Y-18373254D01*
X14522362Y-18390710D01*
X14477309Y-18409015D01*
X14430966Y-18427545D01*
X14384839Y-18445676D01*
X14340435Y-18462783D01*
X14309304Y-18474517D01*
X14258041Y-18493315D01*
X14205648Y-18511972D01*
X14153529Y-18530036D01*
X14103091Y-18547057D01*
X14055737Y-18562584D01*
X14012873Y-18576166D01*
X13975904Y-18587351D01*
X13946235Y-18595689D01*
X13925271Y-18600729D01*
X13914417Y-18602020D01*
X13913342Y-18601608D01*
X13910588Y-18593972D01*
X13905725Y-18575808D01*
X13899184Y-18549032D01*
X13891393Y-18515559D01*
X13882781Y-18477305D01*
X13873778Y-18436186D01*
X13864813Y-18394118D01*
X13856316Y-18353016D01*
X13848716Y-18314797D01*
X13846617Y-18303875D01*
X13839531Y-18265085D01*
X13831746Y-18219788D01*
X13823525Y-18169770D01*
X13815131Y-18116816D01*
X13806827Y-18062712D01*
X13798876Y-18009243D01*
X13791539Y-17958195D01*
X13785080Y-17911351D01*
X13779761Y-17870498D01*
X13775845Y-17837422D01*
X13773595Y-17813906D01*
X13773150Y-17804488D01*
X13628609Y-17804488D01*
X13628874Y-17806905D01*
X13630406Y-17821275D01*
X13647426Y-17964122D01*
X13668680Y-18112648D01*
X13693374Y-18261966D01*
X13720712Y-18407191D01*
X13742423Y-18510250D01*
X13750638Y-18547625D01*
X13757870Y-18581056D01*
X13763672Y-18608440D01*
X13767598Y-18627673D01*
X13769203Y-18636650D01*
X13769208Y-18636698D01*
X13765524Y-18641782D01*
X13753249Y-18647832D01*
X13731736Y-18655022D01*
X13700341Y-18663523D01*
X13658420Y-18673510D01*
X13605328Y-18685155D01*
X13540419Y-18698630D01*
X13531850Y-18700370D01*
X13378086Y-18728201D01*
X13230797Y-18748161D01*
X13090511Y-18760241D01*
X12957755Y-18764432D01*
X12833057Y-18760726D01*
X12716946Y-18749115D01*
X12609949Y-18729590D01*
X12557125Y-18716032D01*
X12475058Y-18687544D01*
X12401640Y-18651576D01*
X12337402Y-18608611D01*
X12282875Y-18559135D01*
X12238590Y-18503633D01*
X12205077Y-18442589D01*
X12182867Y-18376488D01*
X12182217Y-18373725D01*
X12175174Y-18329267D01*
X12172135Y-18276832D01*
X12027465Y-18276832D01*
X12027382Y-18281325D01*
X12029473Y-18331542D01*
X12033074Y-18362480D01*
X12045751Y-18419200D01*
X12065133Y-18478478D01*
X12089135Y-18534457D01*
X12104734Y-18563763D01*
X12137774Y-18611558D01*
X12180663Y-18659869D01*
X12230863Y-18706427D01*
X12285833Y-18748965D01*
X12343031Y-18785213D01*
X12366959Y-18797941D01*
X12414411Y-18818767D01*
X12471721Y-18839116D01*
X12536052Y-18858205D01*
X12604566Y-18875252D01*
X12674427Y-18889474D01*
X12731750Y-18898619D01*
X12761144Y-18901519D01*
X12800795Y-18903772D01*
X12848275Y-18905376D01*
X12901159Y-18906332D01*
X12957020Y-18906641D01*
X13013430Y-18906303D01*
X13067963Y-18905317D01*
X13118193Y-18903685D01*
X13161692Y-18901406D01*
X13195300Y-18898563D01*
X13259475Y-18890717D01*
X13331216Y-18880666D01*
X13405878Y-18869140D01*
X13478820Y-18856866D01*
X13545399Y-18844573D01*
X13566734Y-18840320D01*
X13607162Y-18831882D01*
X13648841Y-18822857D01*
X13689548Y-18813759D01*
X13727061Y-18805102D01*
X13759156Y-18797400D01*
X13783610Y-18791169D01*
X13798200Y-18786923D01*
X13799445Y-18786471D01*
X13805251Y-18787189D01*
X13811005Y-18795297D01*
X13817685Y-18812640D01*
X13823717Y-18832222D01*
X13832298Y-18860759D01*
X13842885Y-18894775D01*
X13854807Y-18932233D01*
X13867387Y-18971091D01*
X13879954Y-19009310D01*
X13891832Y-19044852D01*
X13902348Y-19075676D01*
X13910828Y-19099743D01*
X13916599Y-19115014D01*
X13918535Y-19119194D01*
X13923524Y-19123171D01*
X13932623Y-19122953D01*
X13948534Y-19118092D01*
X13965986Y-19111363D01*
X13991359Y-19102094D01*
X14016071Y-19094516D01*
X14032887Y-19090637D01*
X14058076Y-19086609D01*
X14030794Y-19009567D01*
X14019866Y-18977866D01*
X14008076Y-18942241D01*
X13996021Y-18904665D01*
X13984302Y-18867117D01*
X13973517Y-18831570D01*
X13964264Y-18800000D01*
X13957141Y-18774384D01*
X13952748Y-18756697D01*
X13951683Y-18748914D01*
X13951772Y-18748765D01*
X13958142Y-18746303D01*
X13975143Y-18740322D01*
X14001351Y-18731309D01*
X14035345Y-18719747D01*
X14075702Y-18706122D01*
X14120999Y-18690917D01*
X14154150Y-18679838D01*
X14319006Y-18622455D01*
X14483436Y-18560598D01*
X14642958Y-18495999D01*
X14755129Y-18447486D01*
X14857634Y-18401825D01*
X14951979Y-18444096D01*
X15066007Y-18493630D01*
X15186940Y-18543309D01*
X15311113Y-18591734D01*
X15434864Y-18637508D01*
X15446140Y-18641440D01*
X15944850Y-18641440D01*
X15946189Y-18633269D01*
X15949909Y-18614836D01*
X15955558Y-18588261D01*
X15962688Y-18555664D01*
X15969945Y-18523171D01*
X15995408Y-18402865D01*
X16019708Y-18273814D01*
X16042205Y-18139964D01*
X16062261Y-18005259D01*
X16079237Y-17873644D01*
X16088256Y-17792218D01*
X16099082Y-17686961D01*
X16204528Y-17609751D01*
X16336651Y-17511017D01*
X16459760Y-17414750D01*
X16576629Y-17318699D01*
X16690035Y-17220609D01*
X16748125Y-17168444D01*
X16785318Y-17134963D01*
X16814252Y-17109719D01*
X16835743Y-17092068D01*
X16850607Y-17081362D01*
X16859662Y-17076957D01*
X16863229Y-17077492D01*
X16869886Y-17084437D01*
X16883544Y-17098870D01*
X16902522Y-17119008D01*
X16925139Y-17143070D01*
X16938434Y-17157239D01*
X17036058Y-17265235D01*
X17126918Y-17373638D01*
X17210122Y-17481239D01*
X17284775Y-17586825D01*
X17349985Y-17689184D01*
X17404858Y-17787106D01*
X17409554Y-17796239D01*
X17443271Y-17864898D01*
X17470665Y-17926752D01*
X17493061Y-17985137D01*
X17511782Y-18043386D01*
X17521275Y-18077650D01*
X17528824Y-18107448D01*
X17534137Y-18132249D01*
X17537610Y-18155573D01*
X17539635Y-18180943D01*
X17540608Y-18211877D01*
X17540923Y-18251898D01*
X17540926Y-18253075D01*
X17540861Y-18292443D01*
X17540234Y-18322040D01*
X17538723Y-18344797D01*
X17536007Y-18363640D01*
X17531763Y-18381498D01*
X17525671Y-18401300D01*
X17524128Y-18405973D01*
X17495561Y-18472469D01*
X17456528Y-18532587D01*
X17408035Y-18584957D01*
X17370748Y-18615031D01*
X17304414Y-18656427D01*
X17230929Y-18690841D01*
X17149666Y-18718409D01*
X17059992Y-18739268D01*
X16961277Y-18753556D01*
X16852893Y-18761410D01*
X16734207Y-18762967D01*
X16694537Y-18762173D01*
X16580457Y-18756734D01*
X16466495Y-18746453D01*
X16349973Y-18730968D01*
X16228213Y-18709914D01*
X16098537Y-18682926D01*
X16078200Y-18678335D01*
X16043155Y-18670362D01*
X16011288Y-18663135D01*
X15985198Y-18657243D01*
X15967484Y-18653273D01*
X15962312Y-18652134D01*
X15949662Y-18647240D01*
X15944850Y-18641440D01*
X15446140Y-18641440D01*
X15554530Y-18679234D01*
X15649529Y-18710232D01*
X15685367Y-18721556D01*
X15716761Y-18731576D01*
X15741810Y-18739676D01*
X15758613Y-18745241D01*
X15765266Y-18747656D01*
X15765293Y-18747677D01*
X15764283Y-18754301D01*
X15759824Y-18771144D01*
X15752485Y-18796380D01*
X15742834Y-18828181D01*
X15731441Y-18864719D01*
X15718874Y-18904167D01*
X15705702Y-18944697D01*
X15692495Y-18984481D01*
X15681647Y-19016398D01*
X15644917Y-19117744D01*
X15606040Y-19213826D01*
X15562854Y-19309737D01*
X15518474Y-19400192D01*
X15455470Y-19516316D01*
X15390665Y-19619873D01*
X15324058Y-19710863D01*
X15255652Y-19789284D01*
X15185447Y-19855136D01*
X15113443Y-19908417D01*
X15066919Y-19935655D01*
X15024015Y-19956920D01*
X14986730Y-19971939D01*
X14950609Y-19982202D01*
X14911199Y-19989200D01*
X14903950Y-19990160D01*
X14838084Y-19992868D01*
X14772305Y-19984042D01*
X14706042Y-19963477D01*
X14638724Y-19930971D01*
X14569780Y-19886321D01*
X14533239Y-19858351D01*
X14490053Y-19823631D01*
X14463389Y-19851463D01*
X14443477Y-19871117D01*
X14422028Y-19890621D01*
X14411325Y-19899600D01*
X14385925Y-19919906D01*
X14420850Y-19951820D01*
X14447694Y-19974423D01*
X14480987Y-19999582D01*
X14517464Y-20025088D01*
X14553863Y-20048735D01*
X14586922Y-20068317D01*
X14611605Y-20080854D01*
X14634584Y-20090303D01*
X14664045Y-20101445D01*
X14694355Y-20112163D01*
X14700284Y-20114157D01*
X14721714Y-20121001D01*
X14740125Y-20125845D01*
X14758481Y-20129028D01*
X14779751Y-20130891D01*
X14806898Y-20131775D01*
X14842891Y-20132021D01*
X14855825Y-20132022D01*
X14895576Y-20131812D01*
M02*
