%TF.GenerationSoftware,KiCad,Pcbnew,4.0.7*%
%TF.CreationDate,2018-05-06T15:49:40+02:00*%
%TF.ProjectId,BasicModule,42617369634D6F64756C652E6B696361,rev?*%
%TF.FileFunction,Copper,L2,Bot,Signal*%
%FSLAX46Y46*%
G04 Gerber Fmt 4.6, Leading zero omitted, Abs format (unit mm)*
G04 Created by KiCad (PCBNEW 4.0.7) date 05/06/18 15:49:40*
%MOMM*%
%LPD*%
G01*
G04 APERTURE LIST*
%ADD10C,0.100000*%
%ADD11R,1.200000X1.700000*%
%ADD12O,1.200000X1.700000*%
%ADD13C,1.407160*%
%ADD14C,2.000000*%
%ADD15O,1.500000X2.000000*%
%ADD16C,3.500000*%
%ADD17R,1.900000X2.000000*%
%ADD18C,1.900000*%
%ADD19C,0.685800*%
%ADD20C,0.254000*%
G04 APERTURE END LIST*
D10*
D11*
X-11938000Y-19431000D03*
D12*
X-9938000Y-19431000D03*
X-7938000Y-19431000D03*
D13*
X-12588240Y-10556240D03*
X-12593320Y-5300980D03*
X-7332980Y-5313680D03*
X-7327900Y-10568940D03*
D14*
X-9906000Y-11673840D03*
X-9906000Y-4074160D03*
D15*
X-12406000Y-14874000D03*
X-9906000Y-14874000D03*
X-7406000Y-14874000D03*
D16*
X-14706000Y-7874000D03*
X-5106000Y-7874000D03*
D17*
X-8636000Y-8128000D03*
D18*
X-11176000Y-8128000D03*
D19*
X-5842000Y-13208000D03*
X-13970000Y-14478000D03*
X-14732000Y-15240000D03*
X-13970000Y-12446000D03*
D20*
X-12406000Y-14874000D02*
X-12406000Y-15153000D01*
X-12406000Y-15153000D02*
X-9938000Y-17621000D01*
X-9938000Y-17621000D02*
X-9938000Y-19431000D01*
X-11430000Y-13208000D02*
X-5842000Y-13208000D01*
X-11684000Y-12954000D02*
X-11430000Y-13208000D01*
X-12954000Y-12954000D02*
X-11684000Y-12954000D01*
X-13716000Y-13716000D02*
X-12954000Y-12954000D01*
X-13716000Y-14224000D02*
X-13716000Y-13716000D01*
X-13970000Y-14478000D02*
X-13716000Y-14224000D01*
X-14732000Y-13208000D02*
X-14732000Y-15240000D01*
X-13970000Y-12446000D02*
X-14732000Y-13208000D01*
D10*
G36*
X-2987126Y-1144274D02*
X-3679068Y-1143670D01*
X-4379121Y-1432926D01*
X-4915192Y-1968062D01*
X-5205669Y-2667609D01*
X-5206330Y-3425068D01*
X-4917074Y-4125121D01*
X-4381938Y-4661192D01*
X-3682391Y-4951669D01*
X-2924932Y-4952330D01*
X-2224879Y-4663074D01*
X-1688808Y-4127938D01*
X-1398331Y-3428391D01*
X-1397727Y-2735877D01*
X-1329500Y-3078876D01*
X-1329500Y-18883314D01*
X-1526682Y-19649633D01*
X-1988491Y-20264038D01*
X-2650272Y-20654949D01*
X-3451112Y-20768500D01*
X-7546069Y-20768500D01*
X-7217755Y-20594071D01*
X-6923163Y-20248942D01*
X-6783071Y-19817349D01*
X-6915460Y-19635000D01*
X-7734000Y-19635000D01*
X-7734000Y-19655000D01*
X-8142000Y-19655000D01*
X-8142000Y-19635000D01*
X-8162000Y-19635000D01*
X-8162000Y-19227000D01*
X-8142000Y-19227000D01*
X-8142000Y-18183139D01*
X-7734000Y-18183139D01*
X-7734000Y-19227000D01*
X-6915460Y-19227000D01*
X-6783071Y-19044651D01*
X-6923163Y-18613058D01*
X-7217755Y-18267929D01*
X-7558194Y-18087058D01*
X-7734000Y-18183139D01*
X-8142000Y-18183139D01*
X-8317806Y-18087058D01*
X-8658245Y-18267929D01*
X-8952837Y-18613058D01*
X-9070419Y-18975302D01*
X-9102813Y-18812446D01*
X-9298775Y-18519167D01*
X-9507000Y-18380036D01*
X-9507000Y-17621000D01*
X-9539808Y-17456063D01*
X-9633237Y-17316237D01*
X-11426316Y-15523158D01*
X-11352000Y-15149547D01*
X-11352000Y-14598453D01*
X-11432231Y-14195105D01*
X-11660709Y-13853162D01*
X-12002652Y-13624684D01*
X-12406000Y-13544453D01*
X-12809348Y-13624684D01*
X-13151291Y-13853162D01*
X-13285000Y-14053273D01*
X-13285000Y-13894526D01*
X-12775474Y-13385000D01*
X-11862526Y-13385000D01*
X-11734763Y-13512763D01*
X-11594937Y-13606192D01*
X-11430000Y-13639000D01*
X-10330774Y-13639000D01*
X-10651291Y-13853162D01*
X-10879769Y-14195105D01*
X-10960000Y-14598453D01*
X-10960000Y-15149547D01*
X-10879769Y-15552895D01*
X-10651291Y-15894838D01*
X-10309348Y-16123316D01*
X-9906000Y-16203547D01*
X-9502652Y-16123316D01*
X-9160709Y-15894838D01*
X-8932231Y-15552895D01*
X-8878694Y-15283742D01*
X-8708626Y-15283742D01*
X-8548339Y-15770076D01*
X-8214141Y-16158051D01*
X-7809601Y-16368175D01*
X-7610000Y-16274555D01*
X-7610000Y-15078000D01*
X-7202000Y-15078000D01*
X-7202000Y-16274555D01*
X-7002399Y-16368175D01*
X-6597859Y-16158051D01*
X-6263661Y-15770076D01*
X-6103374Y-15283742D01*
X-6233922Y-15078000D01*
X-7202000Y-15078000D01*
X-7610000Y-15078000D01*
X-8578078Y-15078000D01*
X-8708626Y-15283742D01*
X-8878694Y-15283742D01*
X-8852000Y-15149547D01*
X-8852000Y-14598453D01*
X-8932231Y-14195105D01*
X-9160709Y-13853162D01*
X-9481226Y-13639000D01*
X-8256393Y-13639000D01*
X-8548339Y-13977924D01*
X-8708626Y-14464258D01*
X-8578078Y-14670000D01*
X-7610000Y-14670000D01*
X-7610000Y-14650000D01*
X-7202000Y-14650000D01*
X-7202000Y-14670000D01*
X-6233922Y-14670000D01*
X-6103374Y-14464258D01*
X-6263661Y-13977924D01*
X-6555607Y-13639000D01*
X-6325810Y-13639000D01*
X-6208918Y-13756096D01*
X-5971241Y-13854788D01*
X-5713888Y-13855013D01*
X-5476039Y-13756735D01*
X-5293904Y-13574918D01*
X-5195212Y-13337241D01*
X-5194987Y-13079888D01*
X-5293265Y-12842039D01*
X-5475082Y-12659904D01*
X-5712759Y-12561212D01*
X-5970112Y-12560987D01*
X-6207961Y-12659265D01*
X-6325902Y-12777000D01*
X-9165341Y-12777000D01*
X-8801167Y-12413461D01*
X-8602227Y-11934360D01*
X-8601774Y-11415596D01*
X-8799878Y-10936148D01*
X-8967252Y-10768481D01*
X-8335655Y-10768481D01*
X-8182583Y-11138943D01*
X-7899394Y-11422627D01*
X-7529199Y-11576345D01*
X-7128359Y-11576695D01*
X-6757897Y-11423623D01*
X-6474213Y-11140434D01*
X-6320495Y-10770239D01*
X-6320145Y-10369399D01*
X-6473217Y-9998937D01*
X-6756406Y-9715253D01*
X-7126601Y-9561535D01*
X-7527441Y-9561185D01*
X-7897903Y-9714257D01*
X-8181587Y-9997446D01*
X-8335305Y-10367641D01*
X-8335655Y-10768481D01*
X-8967252Y-10768481D01*
X-9166379Y-10569007D01*
X-9645480Y-10370067D01*
X-10164244Y-10369614D01*
X-10643692Y-10567718D01*
X-11010833Y-10934219D01*
X-11209773Y-11413320D01*
X-11210226Y-11932084D01*
X-11012122Y-12411532D01*
X-10647291Y-12777000D01*
X-11251474Y-12777000D01*
X-11379237Y-12649237D01*
X-11519063Y-12555808D01*
X-11684000Y-12523000D01*
X-12954000Y-12523000D01*
X-13118936Y-12555807D01*
X-13258763Y-12649237D01*
X-13421521Y-12811995D01*
X-13323212Y-12575241D01*
X-13322987Y-12317888D01*
X-13421265Y-12080039D01*
X-13603082Y-11897904D01*
X-13840759Y-11799212D01*
X-14098112Y-11798987D01*
X-14335961Y-11897265D01*
X-14518096Y-12079082D01*
X-14616788Y-12316759D01*
X-14616934Y-12483408D01*
X-15036763Y-12903237D01*
X-15130192Y-13043063D01*
X-15163000Y-13208000D01*
X-15163000Y-14756190D01*
X-15280096Y-14873082D01*
X-15378788Y-15110759D01*
X-15379013Y-15368112D01*
X-15280735Y-15605961D01*
X-15098918Y-15788096D01*
X-14861241Y-15886788D01*
X-14603888Y-15887013D01*
X-14366039Y-15788735D01*
X-14183904Y-15606918D01*
X-14085212Y-15369241D01*
X-14084998Y-15124800D01*
X-13841888Y-15125013D01*
X-13604039Y-15026735D01*
X-13460000Y-14882947D01*
X-13460000Y-15149547D01*
X-13379769Y-15552895D01*
X-13151291Y-15894838D01*
X-12809348Y-16123316D01*
X-12406000Y-16203547D01*
X-12038149Y-16130377D01*
X-10369000Y-17799526D01*
X-10369000Y-18380036D01*
X-10577225Y-18519167D01*
X-10773187Y-18812446D01*
X-10842000Y-19158392D01*
X-10842000Y-19703608D01*
X-10773187Y-20049554D01*
X-10577225Y-20342833D01*
X-10283946Y-20538795D01*
X-9938000Y-20607608D01*
X-9592054Y-20538795D01*
X-9298775Y-20342833D01*
X-9102813Y-20049554D01*
X-9070419Y-19886698D01*
X-8952837Y-20248942D01*
X-8658245Y-20594071D01*
X-8329931Y-20768500D01*
X-16597314Y-20768500D01*
X-17363633Y-20571318D01*
X-17978038Y-20109509D01*
X-18368949Y-19447728D01*
X-18482500Y-18646888D01*
X-18482500Y-18581000D01*
X-12847955Y-18581000D01*
X-12847955Y-20281000D01*
X-12826757Y-20393655D01*
X-12760178Y-20497123D01*
X-12658590Y-20566535D01*
X-12538000Y-20590955D01*
X-11338000Y-20590955D01*
X-11225345Y-20569757D01*
X-11121877Y-20503178D01*
X-11052465Y-20401590D01*
X-11028045Y-20281000D01*
X-11028045Y-18581000D01*
X-11049243Y-18468345D01*
X-11115822Y-18364877D01*
X-11217410Y-18295465D01*
X-11338000Y-18271045D01*
X-12538000Y-18271045D01*
X-12650655Y-18292243D01*
X-12754123Y-18358822D01*
X-12823535Y-18460410D01*
X-12847955Y-18581000D01*
X-18482500Y-18581000D01*
X-18482500Y-10755781D01*
X-13595995Y-10755781D01*
X-13442923Y-11126243D01*
X-13159734Y-11409927D01*
X-12789539Y-11563645D01*
X-12388699Y-11563995D01*
X-12018237Y-11410923D01*
X-11734553Y-11127734D01*
X-11580835Y-10757539D01*
X-11580485Y-10356699D01*
X-11733557Y-9986237D01*
X-12016746Y-9702553D01*
X-12386941Y-9548835D01*
X-12787781Y-9548485D01*
X-13158243Y-9701557D01*
X-13441927Y-9984746D01*
X-13595645Y-10354941D01*
X-13595995Y-10755781D01*
X-18482500Y-10755781D01*
X-18482500Y-8280773D01*
X-16760356Y-8280773D01*
X-16448312Y-9035977D01*
X-15871017Y-9614281D01*
X-15116358Y-9927642D01*
X-14299227Y-9928356D01*
X-13544023Y-9616312D01*
X-12965719Y-9039017D01*
X-12690553Y-8376342D01*
X-12430217Y-8376342D01*
X-12239709Y-8837406D01*
X-11887261Y-9190469D01*
X-11426530Y-9381782D01*
X-10927658Y-9382217D01*
X-10466594Y-9191709D01*
X-10113531Y-8839261D01*
X-9922218Y-8378530D01*
X-9921783Y-7879658D01*
X-10112291Y-7418594D01*
X-10402378Y-7128000D01*
X-9895955Y-7128000D01*
X-9895955Y-9128000D01*
X-9874757Y-9240655D01*
X-9808178Y-9344123D01*
X-9706590Y-9413535D01*
X-9586000Y-9437955D01*
X-7686000Y-9437955D01*
X-7573345Y-9416757D01*
X-7469877Y-9350178D01*
X-7400465Y-9248590D01*
X-7376045Y-9128000D01*
X-7376045Y-8280773D01*
X-7160356Y-8280773D01*
X-6848312Y-9035977D01*
X-6271017Y-9614281D01*
X-5516358Y-9927642D01*
X-4699227Y-9928356D01*
X-3944023Y-9616312D01*
X-3365719Y-9039017D01*
X-3052358Y-8284358D01*
X-3051644Y-7467227D01*
X-3363688Y-6712023D01*
X-3940983Y-6133719D01*
X-4695642Y-5820358D01*
X-5512773Y-5819644D01*
X-6267977Y-6131688D01*
X-6846281Y-6708983D01*
X-7159642Y-7463642D01*
X-7160356Y-8280773D01*
X-7376045Y-8280773D01*
X-7376045Y-7128000D01*
X-7397243Y-7015345D01*
X-7463822Y-6911877D01*
X-7565410Y-6842465D01*
X-7686000Y-6818045D01*
X-9586000Y-6818045D01*
X-9698655Y-6839243D01*
X-9802123Y-6905822D01*
X-9871535Y-7007410D01*
X-9895955Y-7128000D01*
X-10402378Y-7128000D01*
X-10464739Y-7065531D01*
X-10925470Y-6874218D01*
X-11424342Y-6873783D01*
X-11885406Y-7064291D01*
X-12238469Y-7416739D01*
X-12429782Y-7877470D01*
X-12430217Y-8376342D01*
X-12690553Y-8376342D01*
X-12652358Y-8284358D01*
X-12651644Y-7467227D01*
X-12963688Y-6712023D01*
X-13540983Y-6133719D01*
X-14295642Y-5820358D01*
X-15112773Y-5819644D01*
X-15867977Y-6131688D01*
X-16446281Y-6708983D01*
X-16759642Y-7463642D01*
X-16760356Y-8280773D01*
X-18482500Y-8280773D01*
X-18482500Y-5500521D01*
X-13601075Y-5500521D01*
X-13448003Y-5870983D01*
X-13164814Y-6154667D01*
X-12794619Y-6308385D01*
X-12393779Y-6308735D01*
X-12023317Y-6155663D01*
X-11739633Y-5872474D01*
X-11590459Y-5513221D01*
X-8340735Y-5513221D01*
X-8187663Y-5883683D01*
X-7904474Y-6167367D01*
X-7534279Y-6321085D01*
X-7133439Y-6321435D01*
X-6762977Y-6168363D01*
X-6479293Y-5885174D01*
X-6325575Y-5514979D01*
X-6325225Y-5114139D01*
X-6478297Y-4743677D01*
X-6761486Y-4459993D01*
X-7131681Y-4306275D01*
X-7532521Y-4305925D01*
X-7902983Y-4458997D01*
X-8186667Y-4742186D01*
X-8340385Y-5112381D01*
X-8340735Y-5513221D01*
X-11590459Y-5513221D01*
X-11585915Y-5502279D01*
X-11585565Y-5101439D01*
X-11738637Y-4730977D01*
X-12021826Y-4447293D01*
X-12298510Y-4332404D01*
X-11210226Y-4332404D01*
X-11012122Y-4811852D01*
X-10645621Y-5178993D01*
X-10166520Y-5377933D01*
X-9647756Y-5378386D01*
X-9168308Y-5180282D01*
X-8801167Y-4813781D01*
X-8602227Y-4334680D01*
X-8601774Y-3815916D01*
X-8799878Y-3336468D01*
X-9166379Y-2969327D01*
X-9645480Y-2770387D01*
X-10164244Y-2769934D01*
X-10643692Y-2968038D01*
X-11010833Y-3334539D01*
X-11209773Y-3813640D01*
X-11210226Y-4332404D01*
X-12298510Y-4332404D01*
X-12392021Y-4293575D01*
X-12792861Y-4293225D01*
X-13163323Y-4446297D01*
X-13447007Y-4729486D01*
X-13600725Y-5099681D01*
X-13601075Y-5500521D01*
X-18482500Y-5500521D01*
X-18482500Y-3197112D01*
X-18413708Y-2711943D01*
X-18414330Y-3425068D01*
X-18125074Y-4125121D01*
X-17589938Y-4661192D01*
X-16890391Y-4951669D01*
X-16132932Y-4952330D01*
X-15432879Y-4663074D01*
X-14896808Y-4127938D01*
X-14606331Y-3428391D01*
X-14605670Y-2670932D01*
X-14894926Y-1970879D01*
X-15430062Y-1434808D01*
X-16129609Y-1144331D01*
X-16862330Y-1143692D01*
X-16597314Y-1075500D01*
X-3332876Y-1075500D01*
X-2987126Y-1144274D01*
X-2987126Y-1144274D01*
G37*
X-2987126Y-1144274D02*
X-3679068Y-1143670D01*
X-4379121Y-1432926D01*
X-4915192Y-1968062D01*
X-5205669Y-2667609D01*
X-5206330Y-3425068D01*
X-4917074Y-4125121D01*
X-4381938Y-4661192D01*
X-3682391Y-4951669D01*
X-2924932Y-4952330D01*
X-2224879Y-4663074D01*
X-1688808Y-4127938D01*
X-1398331Y-3428391D01*
X-1397727Y-2735877D01*
X-1329500Y-3078876D01*
X-1329500Y-18883314D01*
X-1526682Y-19649633D01*
X-1988491Y-20264038D01*
X-2650272Y-20654949D01*
X-3451112Y-20768500D01*
X-7546069Y-20768500D01*
X-7217755Y-20594071D01*
X-6923163Y-20248942D01*
X-6783071Y-19817349D01*
X-6915460Y-19635000D01*
X-7734000Y-19635000D01*
X-7734000Y-19655000D01*
X-8142000Y-19655000D01*
X-8142000Y-19635000D01*
X-8162000Y-19635000D01*
X-8162000Y-19227000D01*
X-8142000Y-19227000D01*
X-8142000Y-18183139D01*
X-7734000Y-18183139D01*
X-7734000Y-19227000D01*
X-6915460Y-19227000D01*
X-6783071Y-19044651D01*
X-6923163Y-18613058D01*
X-7217755Y-18267929D01*
X-7558194Y-18087058D01*
X-7734000Y-18183139D01*
X-8142000Y-18183139D01*
X-8317806Y-18087058D01*
X-8658245Y-18267929D01*
X-8952837Y-18613058D01*
X-9070419Y-18975302D01*
X-9102813Y-18812446D01*
X-9298775Y-18519167D01*
X-9507000Y-18380036D01*
X-9507000Y-17621000D01*
X-9539808Y-17456063D01*
X-9633237Y-17316237D01*
X-11426316Y-15523158D01*
X-11352000Y-15149547D01*
X-11352000Y-14598453D01*
X-11432231Y-14195105D01*
X-11660709Y-13853162D01*
X-12002652Y-13624684D01*
X-12406000Y-13544453D01*
X-12809348Y-13624684D01*
X-13151291Y-13853162D01*
X-13285000Y-14053273D01*
X-13285000Y-13894526D01*
X-12775474Y-13385000D01*
X-11862526Y-13385000D01*
X-11734763Y-13512763D01*
X-11594937Y-13606192D01*
X-11430000Y-13639000D01*
X-10330774Y-13639000D01*
X-10651291Y-13853162D01*
X-10879769Y-14195105D01*
X-10960000Y-14598453D01*
X-10960000Y-15149547D01*
X-10879769Y-15552895D01*
X-10651291Y-15894838D01*
X-10309348Y-16123316D01*
X-9906000Y-16203547D01*
X-9502652Y-16123316D01*
X-9160709Y-15894838D01*
X-8932231Y-15552895D01*
X-8878694Y-15283742D01*
X-8708626Y-15283742D01*
X-8548339Y-15770076D01*
X-8214141Y-16158051D01*
X-7809601Y-16368175D01*
X-7610000Y-16274555D01*
X-7610000Y-15078000D01*
X-7202000Y-15078000D01*
X-7202000Y-16274555D01*
X-7002399Y-16368175D01*
X-6597859Y-16158051D01*
X-6263661Y-15770076D01*
X-6103374Y-15283742D01*
X-6233922Y-15078000D01*
X-7202000Y-15078000D01*
X-7610000Y-15078000D01*
X-8578078Y-15078000D01*
X-8708626Y-15283742D01*
X-8878694Y-15283742D01*
X-8852000Y-15149547D01*
X-8852000Y-14598453D01*
X-8932231Y-14195105D01*
X-9160709Y-13853162D01*
X-9481226Y-13639000D01*
X-8256393Y-13639000D01*
X-8548339Y-13977924D01*
X-8708626Y-14464258D01*
X-8578078Y-14670000D01*
X-7610000Y-14670000D01*
X-7610000Y-14650000D01*
X-7202000Y-14650000D01*
X-7202000Y-14670000D01*
X-6233922Y-14670000D01*
X-6103374Y-14464258D01*
X-6263661Y-13977924D01*
X-6555607Y-13639000D01*
X-6325810Y-13639000D01*
X-6208918Y-13756096D01*
X-5971241Y-13854788D01*
X-5713888Y-13855013D01*
X-5476039Y-13756735D01*
X-5293904Y-13574918D01*
X-5195212Y-13337241D01*
X-5194987Y-13079888D01*
X-5293265Y-12842039D01*
X-5475082Y-12659904D01*
X-5712759Y-12561212D01*
X-5970112Y-12560987D01*
X-6207961Y-12659265D01*
X-6325902Y-12777000D01*
X-9165341Y-12777000D01*
X-8801167Y-12413461D01*
X-8602227Y-11934360D01*
X-8601774Y-11415596D01*
X-8799878Y-10936148D01*
X-8967252Y-10768481D01*
X-8335655Y-10768481D01*
X-8182583Y-11138943D01*
X-7899394Y-11422627D01*
X-7529199Y-11576345D01*
X-7128359Y-11576695D01*
X-6757897Y-11423623D01*
X-6474213Y-11140434D01*
X-6320495Y-10770239D01*
X-6320145Y-10369399D01*
X-6473217Y-9998937D01*
X-6756406Y-9715253D01*
X-7126601Y-9561535D01*
X-7527441Y-9561185D01*
X-7897903Y-9714257D01*
X-8181587Y-9997446D01*
X-8335305Y-10367641D01*
X-8335655Y-10768481D01*
X-8967252Y-10768481D01*
X-9166379Y-10569007D01*
X-9645480Y-10370067D01*
X-10164244Y-10369614D01*
X-10643692Y-10567718D01*
X-11010833Y-10934219D01*
X-11209773Y-11413320D01*
X-11210226Y-11932084D01*
X-11012122Y-12411532D01*
X-10647291Y-12777000D01*
X-11251474Y-12777000D01*
X-11379237Y-12649237D01*
X-11519063Y-12555808D01*
X-11684000Y-12523000D01*
X-12954000Y-12523000D01*
X-13118936Y-12555807D01*
X-13258763Y-12649237D01*
X-13421521Y-12811995D01*
X-13323212Y-12575241D01*
X-13322987Y-12317888D01*
X-13421265Y-12080039D01*
X-13603082Y-11897904D01*
X-13840759Y-11799212D01*
X-14098112Y-11798987D01*
X-14335961Y-11897265D01*
X-14518096Y-12079082D01*
X-14616788Y-12316759D01*
X-14616934Y-12483408D01*
X-15036763Y-12903237D01*
X-15130192Y-13043063D01*
X-15163000Y-13208000D01*
X-15163000Y-14756190D01*
X-15280096Y-14873082D01*
X-15378788Y-15110759D01*
X-15379013Y-15368112D01*
X-15280735Y-15605961D01*
X-15098918Y-15788096D01*
X-14861241Y-15886788D01*
X-14603888Y-15887013D01*
X-14366039Y-15788735D01*
X-14183904Y-15606918D01*
X-14085212Y-15369241D01*
X-14084998Y-15124800D01*
X-13841888Y-15125013D01*
X-13604039Y-15026735D01*
X-13460000Y-14882947D01*
X-13460000Y-15149547D01*
X-13379769Y-15552895D01*
X-13151291Y-15894838D01*
X-12809348Y-16123316D01*
X-12406000Y-16203547D01*
X-12038149Y-16130377D01*
X-10369000Y-17799526D01*
X-10369000Y-18380036D01*
X-10577225Y-18519167D01*
X-10773187Y-18812446D01*
X-10842000Y-19158392D01*
X-10842000Y-19703608D01*
X-10773187Y-20049554D01*
X-10577225Y-20342833D01*
X-10283946Y-20538795D01*
X-9938000Y-20607608D01*
X-9592054Y-20538795D01*
X-9298775Y-20342833D01*
X-9102813Y-20049554D01*
X-9070419Y-19886698D01*
X-8952837Y-20248942D01*
X-8658245Y-20594071D01*
X-8329931Y-20768500D01*
X-16597314Y-20768500D01*
X-17363633Y-20571318D01*
X-17978038Y-20109509D01*
X-18368949Y-19447728D01*
X-18482500Y-18646888D01*
X-18482500Y-18581000D01*
X-12847955Y-18581000D01*
X-12847955Y-20281000D01*
X-12826757Y-20393655D01*
X-12760178Y-20497123D01*
X-12658590Y-20566535D01*
X-12538000Y-20590955D01*
X-11338000Y-20590955D01*
X-11225345Y-20569757D01*
X-11121877Y-20503178D01*
X-11052465Y-20401590D01*
X-11028045Y-20281000D01*
X-11028045Y-18581000D01*
X-11049243Y-18468345D01*
X-11115822Y-18364877D01*
X-11217410Y-18295465D01*
X-11338000Y-18271045D01*
X-12538000Y-18271045D01*
X-12650655Y-18292243D01*
X-12754123Y-18358822D01*
X-12823535Y-18460410D01*
X-12847955Y-18581000D01*
X-18482500Y-18581000D01*
X-18482500Y-10755781D01*
X-13595995Y-10755781D01*
X-13442923Y-11126243D01*
X-13159734Y-11409927D01*
X-12789539Y-11563645D01*
X-12388699Y-11563995D01*
X-12018237Y-11410923D01*
X-11734553Y-11127734D01*
X-11580835Y-10757539D01*
X-11580485Y-10356699D01*
X-11733557Y-9986237D01*
X-12016746Y-9702553D01*
X-12386941Y-9548835D01*
X-12787781Y-9548485D01*
X-13158243Y-9701557D01*
X-13441927Y-9984746D01*
X-13595645Y-10354941D01*
X-13595995Y-10755781D01*
X-18482500Y-10755781D01*
X-18482500Y-8280773D01*
X-16760356Y-8280773D01*
X-16448312Y-9035977D01*
X-15871017Y-9614281D01*
X-15116358Y-9927642D01*
X-14299227Y-9928356D01*
X-13544023Y-9616312D01*
X-12965719Y-9039017D01*
X-12690553Y-8376342D01*
X-12430217Y-8376342D01*
X-12239709Y-8837406D01*
X-11887261Y-9190469D01*
X-11426530Y-9381782D01*
X-10927658Y-9382217D01*
X-10466594Y-9191709D01*
X-10113531Y-8839261D01*
X-9922218Y-8378530D01*
X-9921783Y-7879658D01*
X-10112291Y-7418594D01*
X-10402378Y-7128000D01*
X-9895955Y-7128000D01*
X-9895955Y-9128000D01*
X-9874757Y-9240655D01*
X-9808178Y-9344123D01*
X-9706590Y-9413535D01*
X-9586000Y-9437955D01*
X-7686000Y-9437955D01*
X-7573345Y-9416757D01*
X-7469877Y-9350178D01*
X-7400465Y-9248590D01*
X-7376045Y-9128000D01*
X-7376045Y-8280773D01*
X-7160356Y-8280773D01*
X-6848312Y-9035977D01*
X-6271017Y-9614281D01*
X-5516358Y-9927642D01*
X-4699227Y-9928356D01*
X-3944023Y-9616312D01*
X-3365719Y-9039017D01*
X-3052358Y-8284358D01*
X-3051644Y-7467227D01*
X-3363688Y-6712023D01*
X-3940983Y-6133719D01*
X-4695642Y-5820358D01*
X-5512773Y-5819644D01*
X-6267977Y-6131688D01*
X-6846281Y-6708983D01*
X-7159642Y-7463642D01*
X-7160356Y-8280773D01*
X-7376045Y-8280773D01*
X-7376045Y-7128000D01*
X-7397243Y-7015345D01*
X-7463822Y-6911877D01*
X-7565410Y-6842465D01*
X-7686000Y-6818045D01*
X-9586000Y-6818045D01*
X-9698655Y-6839243D01*
X-9802123Y-6905822D01*
X-9871535Y-7007410D01*
X-9895955Y-7128000D01*
X-10402378Y-7128000D01*
X-10464739Y-7065531D01*
X-10925470Y-6874218D01*
X-11424342Y-6873783D01*
X-11885406Y-7064291D01*
X-12238469Y-7416739D01*
X-12429782Y-7877470D01*
X-12430217Y-8376342D01*
X-12690553Y-8376342D01*
X-12652358Y-8284358D01*
X-12651644Y-7467227D01*
X-12963688Y-6712023D01*
X-13540983Y-6133719D01*
X-14295642Y-5820358D01*
X-15112773Y-5819644D01*
X-15867977Y-6131688D01*
X-16446281Y-6708983D01*
X-16759642Y-7463642D01*
X-16760356Y-8280773D01*
X-18482500Y-8280773D01*
X-18482500Y-5500521D01*
X-13601075Y-5500521D01*
X-13448003Y-5870983D01*
X-13164814Y-6154667D01*
X-12794619Y-6308385D01*
X-12393779Y-6308735D01*
X-12023317Y-6155663D01*
X-11739633Y-5872474D01*
X-11590459Y-5513221D01*
X-8340735Y-5513221D01*
X-8187663Y-5883683D01*
X-7904474Y-6167367D01*
X-7534279Y-6321085D01*
X-7133439Y-6321435D01*
X-6762977Y-6168363D01*
X-6479293Y-5885174D01*
X-6325575Y-5514979D01*
X-6325225Y-5114139D01*
X-6478297Y-4743677D01*
X-6761486Y-4459993D01*
X-7131681Y-4306275D01*
X-7532521Y-4305925D01*
X-7902983Y-4458997D01*
X-8186667Y-4742186D01*
X-8340385Y-5112381D01*
X-8340735Y-5513221D01*
X-11590459Y-5513221D01*
X-11585915Y-5502279D01*
X-11585565Y-5101439D01*
X-11738637Y-4730977D01*
X-12021826Y-4447293D01*
X-12298510Y-4332404D01*
X-11210226Y-4332404D01*
X-11012122Y-4811852D01*
X-10645621Y-5178993D01*
X-10166520Y-5377933D01*
X-9647756Y-5378386D01*
X-9168308Y-5180282D01*
X-8801167Y-4813781D01*
X-8602227Y-4334680D01*
X-8601774Y-3815916D01*
X-8799878Y-3336468D01*
X-9166379Y-2969327D01*
X-9645480Y-2770387D01*
X-10164244Y-2769934D01*
X-10643692Y-2968038D01*
X-11010833Y-3334539D01*
X-11209773Y-3813640D01*
X-11210226Y-4332404D01*
X-12298510Y-4332404D01*
X-12392021Y-4293575D01*
X-12792861Y-4293225D01*
X-13163323Y-4446297D01*
X-13447007Y-4729486D01*
X-13600725Y-5099681D01*
X-13601075Y-5500521D01*
X-18482500Y-5500521D01*
X-18482500Y-3197112D01*
X-18413708Y-2711943D01*
X-18414330Y-3425068D01*
X-18125074Y-4125121D01*
X-17589938Y-4661192D01*
X-16890391Y-4951669D01*
X-16132932Y-4952330D01*
X-15432879Y-4663074D01*
X-14896808Y-4127938D01*
X-14606331Y-3428391D01*
X-14605670Y-2670932D01*
X-14894926Y-1970879D01*
X-15430062Y-1434808D01*
X-16129609Y-1144331D01*
X-16862330Y-1143692D01*
X-16597314Y-1075500D01*
X-3332876Y-1075500D01*
X-2987126Y-1144274D01*
M02*
