M48
;DRILL file {KiCad 4.0.7} date 05/06/18 15:49:44
;FORMAT={-:-/ absolute / metric / decimal}
FMAT,2
METRIC,TZ
T1C0.330
T2C0.700
T3C0.899
T4C1.000
T5C1.001
T6C2.200
T7C3.200
%
G90
G05
M71
T1
X-14.732Y-15.24
X-13.97Y-12.446
X-13.97Y-14.478
X-5.842Y-13.208
T2
X-11.938Y-19.431
X-9.938Y-19.431
X-7.938Y-19.431
T3
X-12.593Y-5.301
X-12.588Y-10.556
X-7.333Y-5.314
X-7.328Y-10.569
T4
X-12.406Y-14.874
X-9.906Y-14.874
X-7.406Y-14.874
T5
X-11.176Y-8.128
X-9.906Y-4.074
X-9.906Y-11.674
X-8.636Y-8.128
T6
X-14.706Y-7.874
X-5.106Y-7.874
T7
X-16.51Y-3.048
X-3.302Y-3.048
T0
M30
