%TF.GenerationSoftware,KiCad,Pcbnew,4.0.7*%
%TF.CreationDate,2018-05-06T15:49:40+02:00*%
%TF.ProjectId,BasicModule,42617369634D6F64756C652E6B696361,rev?*%
%TF.FileFunction,Copper,L1,Top,Signal*%
%FSLAX46Y46*%
G04 Gerber Fmt 4.6, Leading zero omitted, Abs format (unit mm)*
G04 Created by KiCad (PCBNEW 4.0.7) date 05/06/18 15:49:40*
%MOMM*%
%LPD*%
G01*
G04 APERTURE LIST*
%ADD10C,0.100000*%
%ADD11R,1.200000X1.700000*%
%ADD12O,1.200000X1.700000*%
%ADD13C,1.407160*%
%ADD14C,2.000000*%
%ADD15O,1.500000X2.000000*%
%ADD16C,3.500000*%
%ADD17R,1.900000X2.000000*%
%ADD18C,1.900000*%
%ADD19R,0.900000X0.800000*%
%ADD20R,1.300000X0.700000*%
%ADD21C,0.685800*%
%ADD22C,0.254000*%
%ADD23C,0.152400*%
G04 APERTURE END LIST*
D10*
D11*
X-11938000Y-19431000D03*
D12*
X-9938000Y-19431000D03*
X-7938000Y-19431000D03*
D13*
X-12588240Y-10556240D03*
X-12593320Y-5300980D03*
X-7332980Y-5313680D03*
X-7327900Y-10568940D03*
D14*
X-9906000Y-11673840D03*
X-9906000Y-4074160D03*
D15*
X-12406000Y-14874000D03*
X-9906000Y-14874000D03*
X-7406000Y-14874000D03*
D16*
X-14706000Y-7874000D03*
X-5106000Y-7874000D03*
D17*
X-8636000Y-8128000D03*
D18*
X-11176000Y-8128000D03*
D19*
X-2556000Y-15936000D03*
X-2556000Y-14036000D03*
X-4556000Y-14986000D03*
D20*
X-16256000Y-15052000D03*
X-16256000Y-16952000D03*
X-16256000Y-11496000D03*
X-16256000Y-13396000D03*
D21*
X-5842000Y-13208000D03*
X-13970000Y-14478000D03*
X-14732000Y-15240000D03*
X-13970000Y-12446000D03*
D22*
X-7327900Y-10568940D02*
X-3909060Y-10568940D01*
X-2556000Y-11922000D02*
X-2556000Y-14036000D01*
X-3909060Y-10568940D02*
X-2556000Y-11922000D01*
X-7327900Y-10568940D02*
X-7327900Y-9436100D01*
X-7327900Y-9436100D02*
X-8636000Y-8128000D01*
X-9906000Y-11673840D02*
X-8432800Y-11673840D01*
X-8432800Y-11673840D02*
X-7327900Y-10568940D01*
X-12588240Y-10556240D02*
X-11023600Y-10556240D01*
X-11023600Y-10556240D02*
X-9906000Y-11673840D01*
D23*
X-11176000Y-8128000D02*
X-11938000Y-8128000D01*
X-11938000Y-8128000D02*
X-14732000Y-10922000D01*
X-15682000Y-10922000D02*
X-16256000Y-11496000D01*
X-14732000Y-10922000D02*
X-15682000Y-10922000D01*
D22*
X-11176000Y-8128000D02*
X-11176000Y-6718300D01*
X-11176000Y-6718300D02*
X-12593320Y-5300980D01*
X-7332980Y-5313680D02*
X-8666480Y-5313680D01*
X-8666480Y-5313680D02*
X-9906000Y-4074160D01*
X-9906000Y-4074160D02*
X-11366500Y-4074160D01*
X-11366500Y-4074160D02*
X-12593320Y-5300980D01*
X-7406000Y-14874000D02*
X-4668000Y-14874000D01*
X-4668000Y-14874000D02*
X-4556000Y-14986000D01*
X-12406000Y-14874000D02*
X-12406000Y-15439000D01*
X-12406000Y-14874000D02*
X-12406000Y-15026000D01*
X-16256000Y-13396000D02*
X-13884000Y-13396000D01*
X-13884000Y-13396000D02*
X-12406000Y-14874000D01*
X-12406000Y-14874000D02*
X-12406000Y-15534000D01*
X-16256000Y-16952000D02*
X-14666000Y-16952000D01*
X-3556000Y-14936000D02*
X-2556000Y-15936000D01*
X-3556000Y-14224000D02*
X-3556000Y-14936000D01*
X-3810000Y-13970000D02*
X-3556000Y-14224000D01*
X-5080000Y-13970000D02*
X-3810000Y-13970000D01*
X-5842000Y-13208000D02*
X-5080000Y-13970000D01*
X-13970000Y-16256000D02*
X-13970000Y-14478000D01*
X-14666000Y-16952000D02*
X-13970000Y-16256000D01*
X-9906000Y-14874000D02*
X-9906000Y-16002000D01*
X-11938000Y-18034000D02*
X-11938000Y-19431000D01*
X-9906000Y-16002000D02*
X-11938000Y-18034000D01*
X-9906000Y-14874000D02*
X-9906000Y-14732000D01*
X-9906000Y-14732000D02*
X-12192000Y-12446000D01*
X-14920000Y-15052000D02*
X-16256000Y-15052000D01*
X-14732000Y-15240000D02*
X-14920000Y-15052000D01*
X-12192000Y-12446000D02*
X-13970000Y-12446000D01*
D10*
G36*
X-2987126Y-1144274D02*
X-3679068Y-1143670D01*
X-4379121Y-1432926D01*
X-4915192Y-1968062D01*
X-5205669Y-2667609D01*
X-5206330Y-3425068D01*
X-4917074Y-4125121D01*
X-4381938Y-4661192D01*
X-3682391Y-4951669D01*
X-2924932Y-4952330D01*
X-2224879Y-4663074D01*
X-1688808Y-4127938D01*
X-1398331Y-3428391D01*
X-1397727Y-2735877D01*
X-1329500Y-3078876D01*
X-1329500Y-18883314D01*
X-1526682Y-19649633D01*
X-1988491Y-20264038D01*
X-2650272Y-20654949D01*
X-3451112Y-20768500D01*
X-7546069Y-20768500D01*
X-7217755Y-20594071D01*
X-6923163Y-20248942D01*
X-6783071Y-19817349D01*
X-6915460Y-19635000D01*
X-7734000Y-19635000D01*
X-7734000Y-19655000D01*
X-8142000Y-19655000D01*
X-8142000Y-19635000D01*
X-8162000Y-19635000D01*
X-8162000Y-19227000D01*
X-8142000Y-19227000D01*
X-8142000Y-18183139D01*
X-7734000Y-18183139D01*
X-7734000Y-19227000D01*
X-6915460Y-19227000D01*
X-6783071Y-19044651D01*
X-6923163Y-18613058D01*
X-7217755Y-18267929D01*
X-7558194Y-18087058D01*
X-7734000Y-18183139D01*
X-8142000Y-18183139D01*
X-8317806Y-18087058D01*
X-8658245Y-18267929D01*
X-8952837Y-18613058D01*
X-9070419Y-18975302D01*
X-9102813Y-18812446D01*
X-9298775Y-18519167D01*
X-9592054Y-18323205D01*
X-9938000Y-18254392D01*
X-10283946Y-18323205D01*
X-10577225Y-18519167D01*
X-10773187Y-18812446D01*
X-10842000Y-19158392D01*
X-10842000Y-19703608D01*
X-10773187Y-20049554D01*
X-10577225Y-20342833D01*
X-10283946Y-20538795D01*
X-9938000Y-20607608D01*
X-9592054Y-20538795D01*
X-9298775Y-20342833D01*
X-9102813Y-20049554D01*
X-9070419Y-19886698D01*
X-8952837Y-20248942D01*
X-8658245Y-20594071D01*
X-8329931Y-20768500D01*
X-16597314Y-20768500D01*
X-17363633Y-20571318D01*
X-17978038Y-20109509D01*
X-18368949Y-19447728D01*
X-18482500Y-18646888D01*
X-18482500Y-13046000D01*
X-17215955Y-13046000D01*
X-17215955Y-13746000D01*
X-17194757Y-13858655D01*
X-17128178Y-13962123D01*
X-17026590Y-14031535D01*
X-16906000Y-14055955D01*
X-15606000Y-14055955D01*
X-15493345Y-14034757D01*
X-15389877Y-13968178D01*
X-15320465Y-13866590D01*
X-15312448Y-13827000D01*
X-14062526Y-13827000D01*
X-14058504Y-13831022D01*
X-14098112Y-13830987D01*
X-14335961Y-13929265D01*
X-14518096Y-14111082D01*
X-14616788Y-14348759D01*
X-14617002Y-14593200D01*
X-14860112Y-14592987D01*
X-14927908Y-14621000D01*
X-15311287Y-14621000D01*
X-15317243Y-14589345D01*
X-15383822Y-14485877D01*
X-15485410Y-14416465D01*
X-15606000Y-14392045D01*
X-16906000Y-14392045D01*
X-17018655Y-14413243D01*
X-17122123Y-14479822D01*
X-17191535Y-14581410D01*
X-17215955Y-14702000D01*
X-17215955Y-15402000D01*
X-17194757Y-15514655D01*
X-17128178Y-15618123D01*
X-17026590Y-15687535D01*
X-16906000Y-15711955D01*
X-15606000Y-15711955D01*
X-15493345Y-15690757D01*
X-15389877Y-15624178D01*
X-15320465Y-15522590D01*
X-15318728Y-15514012D01*
X-15280735Y-15605961D01*
X-15098918Y-15788096D01*
X-14861241Y-15886788D01*
X-14603888Y-15887013D01*
X-14401000Y-15803181D01*
X-14401000Y-16077474D01*
X-14844526Y-16521000D01*
X-15311287Y-16521000D01*
X-15317243Y-16489345D01*
X-15383822Y-16385877D01*
X-15485410Y-16316465D01*
X-15606000Y-16292045D01*
X-16906000Y-16292045D01*
X-17018655Y-16313243D01*
X-17122123Y-16379822D01*
X-17191535Y-16481410D01*
X-17215955Y-16602000D01*
X-17215955Y-17302000D01*
X-17194757Y-17414655D01*
X-17128178Y-17518123D01*
X-17026590Y-17587535D01*
X-16906000Y-17611955D01*
X-15606000Y-17611955D01*
X-15493345Y-17590757D01*
X-15389877Y-17524178D01*
X-15320465Y-17422590D01*
X-15312448Y-17383000D01*
X-14666000Y-17383000D01*
X-14501063Y-17350192D01*
X-14361237Y-17256763D01*
X-13665237Y-16560763D01*
X-13571807Y-16420936D01*
X-13539000Y-16256000D01*
X-13539000Y-14961810D01*
X-13460000Y-14882947D01*
X-13460000Y-15149547D01*
X-13379769Y-15552895D01*
X-13151291Y-15894838D01*
X-12809348Y-16123316D01*
X-12406000Y-16203547D01*
X-12002652Y-16123316D01*
X-11660709Y-15894838D01*
X-11432231Y-15552895D01*
X-11352000Y-15149547D01*
X-11352000Y-14598453D01*
X-11432231Y-14195105D01*
X-11660709Y-13853162D01*
X-12002652Y-13624684D01*
X-12406000Y-13544453D01*
X-12809348Y-13624684D01*
X-12951085Y-13719389D01*
X-13579237Y-13091237D01*
X-13651333Y-13043064D01*
X-13677954Y-13025276D01*
X-13604039Y-12994735D01*
X-13486098Y-12877000D01*
X-12370526Y-12877000D01*
X-10908414Y-14339112D01*
X-10960000Y-14598453D01*
X-10960000Y-15149547D01*
X-10879769Y-15552895D01*
X-10651291Y-15894838D01*
X-10505667Y-15992141D01*
X-12242763Y-17729237D01*
X-12336192Y-17869063D01*
X-12369000Y-18034000D01*
X-12369000Y-18271045D01*
X-12538000Y-18271045D01*
X-12650655Y-18292243D01*
X-12754123Y-18358822D01*
X-12823535Y-18460410D01*
X-12847955Y-18581000D01*
X-12847955Y-20281000D01*
X-12826757Y-20393655D01*
X-12760178Y-20497123D01*
X-12658590Y-20566535D01*
X-12538000Y-20590955D01*
X-11338000Y-20590955D01*
X-11225345Y-20569757D01*
X-11121877Y-20503178D01*
X-11052465Y-20401590D01*
X-11028045Y-20281000D01*
X-11028045Y-18581000D01*
X-11049243Y-18468345D01*
X-11115822Y-18364877D01*
X-11217410Y-18295465D01*
X-11338000Y-18271045D01*
X-11507000Y-18271045D01*
X-11507000Y-18212526D01*
X-9601237Y-16306763D01*
X-9557137Y-16240763D01*
X-9507808Y-16166937D01*
X-9498592Y-16120603D01*
X-9160709Y-15894838D01*
X-8932231Y-15552895D01*
X-8878694Y-15283742D01*
X-8708626Y-15283742D01*
X-8548339Y-15770076D01*
X-8214141Y-16158051D01*
X-7809601Y-16368175D01*
X-7610000Y-16274555D01*
X-7610000Y-15078000D01*
X-7202000Y-15078000D01*
X-7202000Y-16274555D01*
X-7002399Y-16368175D01*
X-6597859Y-16158051D01*
X-6263661Y-15770076D01*
X-6117137Y-15325500D01*
X-5564000Y-15325500D01*
X-5564000Y-15496993D01*
X-5479049Y-15702082D01*
X-5322082Y-15859050D01*
X-5116993Y-15944000D01*
X-4899500Y-15944000D01*
X-4760000Y-15804500D01*
X-4760000Y-15186000D01*
X-5424500Y-15186000D01*
X-5564000Y-15325500D01*
X-6117137Y-15325500D01*
X-6103374Y-15283742D01*
X-6233922Y-15078000D01*
X-7202000Y-15078000D01*
X-7610000Y-15078000D01*
X-8578078Y-15078000D01*
X-8708626Y-15283742D01*
X-8878694Y-15283742D01*
X-8852000Y-15149547D01*
X-8852000Y-14598453D01*
X-8878693Y-14464258D01*
X-8708626Y-14464258D01*
X-8578078Y-14670000D01*
X-7610000Y-14670000D01*
X-7610000Y-13473445D01*
X-7202000Y-13473445D01*
X-7202000Y-14670000D01*
X-6233922Y-14670000D01*
X-6103374Y-14464258D01*
X-6263661Y-13977924D01*
X-6597859Y-13589949D01*
X-7002399Y-13379825D01*
X-7202000Y-13473445D01*
X-7610000Y-13473445D01*
X-7809601Y-13379825D01*
X-8214141Y-13589949D01*
X-8548339Y-13977924D01*
X-8708626Y-14464258D01*
X-8878693Y-14464258D01*
X-8932231Y-14195105D01*
X-9160709Y-13853162D01*
X-9502652Y-13624684D01*
X-9906000Y-13544453D01*
X-10309348Y-13624684D01*
X-10365962Y-13662512D01*
X-11887237Y-12141237D01*
X-11941709Y-12104840D01*
X-12027063Y-12047808D01*
X-12192000Y-12015000D01*
X-13486190Y-12015000D01*
X-13603082Y-11897904D01*
X-13840759Y-11799212D01*
X-14098112Y-11798987D01*
X-14335961Y-11897265D01*
X-14518096Y-12079082D01*
X-14616788Y-12316759D01*
X-14617013Y-12574112D01*
X-14518735Y-12811961D01*
X-14365963Y-12965000D01*
X-15311287Y-12965000D01*
X-15317243Y-12933345D01*
X-15383822Y-12829877D01*
X-15485410Y-12760465D01*
X-15606000Y-12736045D01*
X-16906000Y-12736045D01*
X-17018655Y-12757243D01*
X-17122123Y-12823822D01*
X-17191535Y-12925410D01*
X-17215955Y-13046000D01*
X-18482500Y-13046000D01*
X-18482500Y-11146000D01*
X-17215955Y-11146000D01*
X-17215955Y-11846000D01*
X-17194757Y-11958655D01*
X-17128178Y-12062123D01*
X-17026590Y-12131535D01*
X-16906000Y-12155955D01*
X-15606000Y-12155955D01*
X-15493345Y-12134757D01*
X-15389877Y-12068178D01*
X-15320465Y-11966590D01*
X-15296045Y-11846000D01*
X-15296045Y-11302200D01*
X-14732000Y-11302200D01*
X-14586504Y-11273259D01*
X-14463158Y-11190842D01*
X-13573198Y-10300882D01*
X-13595645Y-10354941D01*
X-13595995Y-10755781D01*
X-13442923Y-11126243D01*
X-13159734Y-11409927D01*
X-12789539Y-11563645D01*
X-12388699Y-11563995D01*
X-12018237Y-11410923D01*
X-11734553Y-11127734D01*
X-11676215Y-10987240D01*
X-11202126Y-10987240D01*
X-11082516Y-11106850D01*
X-11209773Y-11413320D01*
X-11210226Y-11932084D01*
X-11012122Y-12411532D01*
X-10645621Y-12778673D01*
X-10166520Y-12977613D01*
X-9647756Y-12978066D01*
X-9168308Y-12779962D01*
X-8801167Y-12413461D01*
X-8673016Y-12104840D01*
X-8432800Y-12104840D01*
X-8267863Y-12072032D01*
X-8128037Y-11978603D01*
X-7668102Y-11518668D01*
X-7529199Y-11576345D01*
X-7128359Y-11576695D01*
X-6757897Y-11423623D01*
X-6474213Y-11140434D01*
X-6415875Y-10999940D01*
X-4087586Y-10999940D01*
X-2987000Y-12100526D01*
X-2987000Y-13326045D01*
X-3006000Y-13326045D01*
X-3118655Y-13347243D01*
X-3222123Y-13413822D01*
X-3291535Y-13515410D01*
X-3315955Y-13636000D01*
X-3315955Y-13854519D01*
X-3505237Y-13665237D01*
X-3565929Y-13624684D01*
X-3645063Y-13571808D01*
X-3810000Y-13539000D01*
X-4901474Y-13539000D01*
X-5195132Y-13245342D01*
X-5194987Y-13079888D01*
X-5293265Y-12842039D01*
X-5475082Y-12659904D01*
X-5712759Y-12561212D01*
X-5970112Y-12560987D01*
X-6207961Y-12659265D01*
X-6390096Y-12841082D01*
X-6488788Y-13078759D01*
X-6489013Y-13336112D01*
X-6390735Y-13573961D01*
X-6208918Y-13756096D01*
X-5971241Y-13854788D01*
X-5804592Y-13854934D01*
X-5434329Y-14225197D01*
X-5479049Y-14269918D01*
X-5564000Y-14475007D01*
X-5564000Y-14646500D01*
X-5424500Y-14786000D01*
X-4760000Y-14786000D01*
X-4760000Y-14762000D01*
X-4352000Y-14762000D01*
X-4352000Y-14786000D01*
X-4332000Y-14786000D01*
X-4332000Y-15186000D01*
X-4352000Y-15186000D01*
X-4352000Y-15804500D01*
X-4212500Y-15944000D01*
X-3995007Y-15944000D01*
X-3789918Y-15859050D01*
X-3632951Y-15702082D01*
X-3564558Y-15536968D01*
X-3315955Y-15785571D01*
X-3315955Y-16336000D01*
X-3294757Y-16448655D01*
X-3228178Y-16552123D01*
X-3126590Y-16621535D01*
X-3006000Y-16645955D01*
X-2106000Y-16645955D01*
X-1993345Y-16624757D01*
X-1889877Y-16558178D01*
X-1820465Y-16456590D01*
X-1796045Y-16336000D01*
X-1796045Y-15536000D01*
X-1817243Y-15423345D01*
X-1883822Y-15319877D01*
X-1985410Y-15250465D01*
X-2106000Y-15226045D01*
X-2656429Y-15226045D01*
X-3125000Y-14757474D01*
X-3125000Y-14721857D01*
X-3006000Y-14745955D01*
X-2106000Y-14745955D01*
X-1993345Y-14724757D01*
X-1889877Y-14658178D01*
X-1820465Y-14556590D01*
X-1796045Y-14436000D01*
X-1796045Y-13636000D01*
X-1817243Y-13523345D01*
X-1883822Y-13419877D01*
X-1985410Y-13350465D01*
X-2106000Y-13326045D01*
X-2125000Y-13326045D01*
X-2125000Y-11922000D01*
X-2157808Y-11757063D01*
X-2251237Y-11617237D01*
X-3604297Y-10264177D01*
X-3623304Y-10251477D01*
X-3744123Y-10170748D01*
X-3909060Y-10137940D01*
X-6415782Y-10137940D01*
X-6473217Y-9998937D01*
X-6756406Y-9715253D01*
X-6896900Y-9656915D01*
X-6896900Y-9436100D01*
X-6929707Y-9271164D01*
X-7023137Y-9131337D01*
X-7376045Y-8778429D01*
X-7376045Y-8280773D01*
X-7160356Y-8280773D01*
X-6848312Y-9035977D01*
X-6271017Y-9614281D01*
X-5516358Y-9927642D01*
X-4699227Y-9928356D01*
X-3944023Y-9616312D01*
X-3365719Y-9039017D01*
X-3052358Y-8284358D01*
X-3051644Y-7467227D01*
X-3363688Y-6712023D01*
X-3940983Y-6133719D01*
X-4695642Y-5820358D01*
X-5512773Y-5819644D01*
X-6267977Y-6131688D01*
X-6846281Y-6708983D01*
X-7159642Y-7463642D01*
X-7160356Y-8280773D01*
X-7376045Y-8280773D01*
X-7376045Y-7128000D01*
X-7397243Y-7015345D01*
X-7463822Y-6911877D01*
X-7565410Y-6842465D01*
X-7686000Y-6818045D01*
X-9586000Y-6818045D01*
X-9698655Y-6839243D01*
X-9802123Y-6905822D01*
X-9871535Y-7007410D01*
X-9895955Y-7128000D01*
X-9895955Y-9128000D01*
X-9874757Y-9240655D01*
X-9808178Y-9344123D01*
X-9706590Y-9413535D01*
X-9586000Y-9437955D01*
X-7935571Y-9437955D01*
X-7758900Y-9614626D01*
X-7758900Y-9656822D01*
X-7897903Y-9714257D01*
X-8181587Y-9997446D01*
X-8335305Y-10367641D01*
X-8335655Y-10768481D01*
X-8277562Y-10909076D01*
X-8611326Y-11242840D01*
X-8673155Y-11242840D01*
X-8799878Y-10936148D01*
X-9166379Y-10569007D01*
X-9645480Y-10370067D01*
X-10164244Y-10369614D01*
X-10473088Y-10497226D01*
X-10718837Y-10251477D01*
X-10858663Y-10158048D01*
X-11023600Y-10125240D01*
X-11676122Y-10125240D01*
X-11733557Y-9986237D01*
X-12016746Y-9702553D01*
X-12386941Y-9548835D01*
X-12787781Y-9548485D01*
X-12844052Y-9571736D01*
X-12174772Y-8902456D01*
X-11887261Y-9190469D01*
X-11426530Y-9381782D01*
X-10927658Y-9382217D01*
X-10466594Y-9191709D01*
X-10113531Y-8839261D01*
X-9922218Y-8378530D01*
X-9921783Y-7879658D01*
X-10112291Y-7418594D01*
X-10464739Y-7065531D01*
X-10745000Y-6949156D01*
X-10745000Y-6718300D01*
X-10777808Y-6553363D01*
X-10871237Y-6413537D01*
X-11643592Y-5641182D01*
X-11585915Y-5502279D01*
X-11585565Y-5101439D01*
X-11643658Y-4960844D01*
X-11187974Y-4505160D01*
X-11138845Y-4505160D01*
X-11012122Y-4811852D01*
X-10645621Y-5178993D01*
X-10166520Y-5377933D01*
X-9647756Y-5378386D01*
X-9338912Y-5250774D01*
X-8971243Y-5618443D01*
X-8831417Y-5711872D01*
X-8666480Y-5744680D01*
X-8245098Y-5744680D01*
X-8187663Y-5883683D01*
X-7904474Y-6167367D01*
X-7534279Y-6321085D01*
X-7133439Y-6321435D01*
X-6762977Y-6168363D01*
X-6479293Y-5885174D01*
X-6325575Y-5514979D01*
X-6325225Y-5114139D01*
X-6478297Y-4743677D01*
X-6761486Y-4459993D01*
X-7131681Y-4306275D01*
X-7532521Y-4305925D01*
X-7902983Y-4458997D01*
X-8186667Y-4742186D01*
X-8245005Y-4882680D01*
X-8487954Y-4882680D01*
X-8729484Y-4641150D01*
X-8602227Y-4334680D01*
X-8601774Y-3815916D01*
X-8799878Y-3336468D01*
X-9166379Y-2969327D01*
X-9645480Y-2770387D01*
X-10164244Y-2769934D01*
X-10643692Y-2968038D01*
X-11010833Y-3334539D01*
X-11138984Y-3643160D01*
X-11366500Y-3643160D01*
X-11531437Y-3675968D01*
X-11671263Y-3769397D01*
X-12253118Y-4351252D01*
X-12392021Y-4293575D01*
X-12792861Y-4293225D01*
X-13163323Y-4446297D01*
X-13447007Y-4729486D01*
X-13600725Y-5099681D01*
X-13601075Y-5500521D01*
X-13448003Y-5870983D01*
X-13164814Y-6154667D01*
X-12794619Y-6308385D01*
X-12393779Y-6308735D01*
X-12253184Y-6250642D01*
X-11607000Y-6896826D01*
X-11607000Y-6949256D01*
X-11885406Y-7064291D01*
X-12238469Y-7416739D01*
X-12429782Y-7877470D01*
X-12429961Y-8082277D01*
X-12666784Y-8319100D01*
X-12652358Y-8284358D01*
X-12651644Y-7467227D01*
X-12963688Y-6712023D01*
X-13540983Y-6133719D01*
X-14295642Y-5820358D01*
X-15112773Y-5819644D01*
X-15867977Y-6131688D01*
X-16446281Y-6708983D01*
X-16759642Y-7463642D01*
X-16760356Y-8280773D01*
X-16448312Y-9035977D01*
X-15871017Y-9614281D01*
X-15116358Y-9927642D01*
X-14299227Y-9928356D01*
X-14259713Y-9912029D01*
X-14889484Y-10541800D01*
X-15682000Y-10541800D01*
X-15827496Y-10570741D01*
X-15950842Y-10653158D01*
X-16133729Y-10836045D01*
X-16906000Y-10836045D01*
X-17018655Y-10857243D01*
X-17122123Y-10923822D01*
X-17191535Y-11025410D01*
X-17215955Y-11146000D01*
X-18482500Y-11146000D01*
X-18482500Y-3197112D01*
X-18413708Y-2711943D01*
X-18414330Y-3425068D01*
X-18125074Y-4125121D01*
X-17589938Y-4661192D01*
X-16890391Y-4951669D01*
X-16132932Y-4952330D01*
X-15432879Y-4663074D01*
X-14896808Y-4127938D01*
X-14606331Y-3428391D01*
X-14605670Y-2670932D01*
X-14894926Y-1970879D01*
X-15430062Y-1434808D01*
X-16129609Y-1144331D01*
X-16862330Y-1143692D01*
X-16597314Y-1075500D01*
X-3332876Y-1075500D01*
X-2987126Y-1144274D01*
X-2987126Y-1144274D01*
G37*
X-2987126Y-1144274D02*
X-3679068Y-1143670D01*
X-4379121Y-1432926D01*
X-4915192Y-1968062D01*
X-5205669Y-2667609D01*
X-5206330Y-3425068D01*
X-4917074Y-4125121D01*
X-4381938Y-4661192D01*
X-3682391Y-4951669D01*
X-2924932Y-4952330D01*
X-2224879Y-4663074D01*
X-1688808Y-4127938D01*
X-1398331Y-3428391D01*
X-1397727Y-2735877D01*
X-1329500Y-3078876D01*
X-1329500Y-18883314D01*
X-1526682Y-19649633D01*
X-1988491Y-20264038D01*
X-2650272Y-20654949D01*
X-3451112Y-20768500D01*
X-7546069Y-20768500D01*
X-7217755Y-20594071D01*
X-6923163Y-20248942D01*
X-6783071Y-19817349D01*
X-6915460Y-19635000D01*
X-7734000Y-19635000D01*
X-7734000Y-19655000D01*
X-8142000Y-19655000D01*
X-8142000Y-19635000D01*
X-8162000Y-19635000D01*
X-8162000Y-19227000D01*
X-8142000Y-19227000D01*
X-8142000Y-18183139D01*
X-7734000Y-18183139D01*
X-7734000Y-19227000D01*
X-6915460Y-19227000D01*
X-6783071Y-19044651D01*
X-6923163Y-18613058D01*
X-7217755Y-18267929D01*
X-7558194Y-18087058D01*
X-7734000Y-18183139D01*
X-8142000Y-18183139D01*
X-8317806Y-18087058D01*
X-8658245Y-18267929D01*
X-8952837Y-18613058D01*
X-9070419Y-18975302D01*
X-9102813Y-18812446D01*
X-9298775Y-18519167D01*
X-9592054Y-18323205D01*
X-9938000Y-18254392D01*
X-10283946Y-18323205D01*
X-10577225Y-18519167D01*
X-10773187Y-18812446D01*
X-10842000Y-19158392D01*
X-10842000Y-19703608D01*
X-10773187Y-20049554D01*
X-10577225Y-20342833D01*
X-10283946Y-20538795D01*
X-9938000Y-20607608D01*
X-9592054Y-20538795D01*
X-9298775Y-20342833D01*
X-9102813Y-20049554D01*
X-9070419Y-19886698D01*
X-8952837Y-20248942D01*
X-8658245Y-20594071D01*
X-8329931Y-20768500D01*
X-16597314Y-20768500D01*
X-17363633Y-20571318D01*
X-17978038Y-20109509D01*
X-18368949Y-19447728D01*
X-18482500Y-18646888D01*
X-18482500Y-13046000D01*
X-17215955Y-13046000D01*
X-17215955Y-13746000D01*
X-17194757Y-13858655D01*
X-17128178Y-13962123D01*
X-17026590Y-14031535D01*
X-16906000Y-14055955D01*
X-15606000Y-14055955D01*
X-15493345Y-14034757D01*
X-15389877Y-13968178D01*
X-15320465Y-13866590D01*
X-15312448Y-13827000D01*
X-14062526Y-13827000D01*
X-14058504Y-13831022D01*
X-14098112Y-13830987D01*
X-14335961Y-13929265D01*
X-14518096Y-14111082D01*
X-14616788Y-14348759D01*
X-14617002Y-14593200D01*
X-14860112Y-14592987D01*
X-14927908Y-14621000D01*
X-15311287Y-14621000D01*
X-15317243Y-14589345D01*
X-15383822Y-14485877D01*
X-15485410Y-14416465D01*
X-15606000Y-14392045D01*
X-16906000Y-14392045D01*
X-17018655Y-14413243D01*
X-17122123Y-14479822D01*
X-17191535Y-14581410D01*
X-17215955Y-14702000D01*
X-17215955Y-15402000D01*
X-17194757Y-15514655D01*
X-17128178Y-15618123D01*
X-17026590Y-15687535D01*
X-16906000Y-15711955D01*
X-15606000Y-15711955D01*
X-15493345Y-15690757D01*
X-15389877Y-15624178D01*
X-15320465Y-15522590D01*
X-15318728Y-15514012D01*
X-15280735Y-15605961D01*
X-15098918Y-15788096D01*
X-14861241Y-15886788D01*
X-14603888Y-15887013D01*
X-14401000Y-15803181D01*
X-14401000Y-16077474D01*
X-14844526Y-16521000D01*
X-15311287Y-16521000D01*
X-15317243Y-16489345D01*
X-15383822Y-16385877D01*
X-15485410Y-16316465D01*
X-15606000Y-16292045D01*
X-16906000Y-16292045D01*
X-17018655Y-16313243D01*
X-17122123Y-16379822D01*
X-17191535Y-16481410D01*
X-17215955Y-16602000D01*
X-17215955Y-17302000D01*
X-17194757Y-17414655D01*
X-17128178Y-17518123D01*
X-17026590Y-17587535D01*
X-16906000Y-17611955D01*
X-15606000Y-17611955D01*
X-15493345Y-17590757D01*
X-15389877Y-17524178D01*
X-15320465Y-17422590D01*
X-15312448Y-17383000D01*
X-14666000Y-17383000D01*
X-14501063Y-17350192D01*
X-14361237Y-17256763D01*
X-13665237Y-16560763D01*
X-13571807Y-16420936D01*
X-13539000Y-16256000D01*
X-13539000Y-14961810D01*
X-13460000Y-14882947D01*
X-13460000Y-15149547D01*
X-13379769Y-15552895D01*
X-13151291Y-15894838D01*
X-12809348Y-16123316D01*
X-12406000Y-16203547D01*
X-12002652Y-16123316D01*
X-11660709Y-15894838D01*
X-11432231Y-15552895D01*
X-11352000Y-15149547D01*
X-11352000Y-14598453D01*
X-11432231Y-14195105D01*
X-11660709Y-13853162D01*
X-12002652Y-13624684D01*
X-12406000Y-13544453D01*
X-12809348Y-13624684D01*
X-12951085Y-13719389D01*
X-13579237Y-13091237D01*
X-13651333Y-13043064D01*
X-13677954Y-13025276D01*
X-13604039Y-12994735D01*
X-13486098Y-12877000D01*
X-12370526Y-12877000D01*
X-10908414Y-14339112D01*
X-10960000Y-14598453D01*
X-10960000Y-15149547D01*
X-10879769Y-15552895D01*
X-10651291Y-15894838D01*
X-10505667Y-15992141D01*
X-12242763Y-17729237D01*
X-12336192Y-17869063D01*
X-12369000Y-18034000D01*
X-12369000Y-18271045D01*
X-12538000Y-18271045D01*
X-12650655Y-18292243D01*
X-12754123Y-18358822D01*
X-12823535Y-18460410D01*
X-12847955Y-18581000D01*
X-12847955Y-20281000D01*
X-12826757Y-20393655D01*
X-12760178Y-20497123D01*
X-12658590Y-20566535D01*
X-12538000Y-20590955D01*
X-11338000Y-20590955D01*
X-11225345Y-20569757D01*
X-11121877Y-20503178D01*
X-11052465Y-20401590D01*
X-11028045Y-20281000D01*
X-11028045Y-18581000D01*
X-11049243Y-18468345D01*
X-11115822Y-18364877D01*
X-11217410Y-18295465D01*
X-11338000Y-18271045D01*
X-11507000Y-18271045D01*
X-11507000Y-18212526D01*
X-9601237Y-16306763D01*
X-9557137Y-16240763D01*
X-9507808Y-16166937D01*
X-9498592Y-16120603D01*
X-9160709Y-15894838D01*
X-8932231Y-15552895D01*
X-8878694Y-15283742D01*
X-8708626Y-15283742D01*
X-8548339Y-15770076D01*
X-8214141Y-16158051D01*
X-7809601Y-16368175D01*
X-7610000Y-16274555D01*
X-7610000Y-15078000D01*
X-7202000Y-15078000D01*
X-7202000Y-16274555D01*
X-7002399Y-16368175D01*
X-6597859Y-16158051D01*
X-6263661Y-15770076D01*
X-6117137Y-15325500D01*
X-5564000Y-15325500D01*
X-5564000Y-15496993D01*
X-5479049Y-15702082D01*
X-5322082Y-15859050D01*
X-5116993Y-15944000D01*
X-4899500Y-15944000D01*
X-4760000Y-15804500D01*
X-4760000Y-15186000D01*
X-5424500Y-15186000D01*
X-5564000Y-15325500D01*
X-6117137Y-15325500D01*
X-6103374Y-15283742D01*
X-6233922Y-15078000D01*
X-7202000Y-15078000D01*
X-7610000Y-15078000D01*
X-8578078Y-15078000D01*
X-8708626Y-15283742D01*
X-8878694Y-15283742D01*
X-8852000Y-15149547D01*
X-8852000Y-14598453D01*
X-8878693Y-14464258D01*
X-8708626Y-14464258D01*
X-8578078Y-14670000D01*
X-7610000Y-14670000D01*
X-7610000Y-13473445D01*
X-7202000Y-13473445D01*
X-7202000Y-14670000D01*
X-6233922Y-14670000D01*
X-6103374Y-14464258D01*
X-6263661Y-13977924D01*
X-6597859Y-13589949D01*
X-7002399Y-13379825D01*
X-7202000Y-13473445D01*
X-7610000Y-13473445D01*
X-7809601Y-13379825D01*
X-8214141Y-13589949D01*
X-8548339Y-13977924D01*
X-8708626Y-14464258D01*
X-8878693Y-14464258D01*
X-8932231Y-14195105D01*
X-9160709Y-13853162D01*
X-9502652Y-13624684D01*
X-9906000Y-13544453D01*
X-10309348Y-13624684D01*
X-10365962Y-13662512D01*
X-11887237Y-12141237D01*
X-11941709Y-12104840D01*
X-12027063Y-12047808D01*
X-12192000Y-12015000D01*
X-13486190Y-12015000D01*
X-13603082Y-11897904D01*
X-13840759Y-11799212D01*
X-14098112Y-11798987D01*
X-14335961Y-11897265D01*
X-14518096Y-12079082D01*
X-14616788Y-12316759D01*
X-14617013Y-12574112D01*
X-14518735Y-12811961D01*
X-14365963Y-12965000D01*
X-15311287Y-12965000D01*
X-15317243Y-12933345D01*
X-15383822Y-12829877D01*
X-15485410Y-12760465D01*
X-15606000Y-12736045D01*
X-16906000Y-12736045D01*
X-17018655Y-12757243D01*
X-17122123Y-12823822D01*
X-17191535Y-12925410D01*
X-17215955Y-13046000D01*
X-18482500Y-13046000D01*
X-18482500Y-11146000D01*
X-17215955Y-11146000D01*
X-17215955Y-11846000D01*
X-17194757Y-11958655D01*
X-17128178Y-12062123D01*
X-17026590Y-12131535D01*
X-16906000Y-12155955D01*
X-15606000Y-12155955D01*
X-15493345Y-12134757D01*
X-15389877Y-12068178D01*
X-15320465Y-11966590D01*
X-15296045Y-11846000D01*
X-15296045Y-11302200D01*
X-14732000Y-11302200D01*
X-14586504Y-11273259D01*
X-14463158Y-11190842D01*
X-13573198Y-10300882D01*
X-13595645Y-10354941D01*
X-13595995Y-10755781D01*
X-13442923Y-11126243D01*
X-13159734Y-11409927D01*
X-12789539Y-11563645D01*
X-12388699Y-11563995D01*
X-12018237Y-11410923D01*
X-11734553Y-11127734D01*
X-11676215Y-10987240D01*
X-11202126Y-10987240D01*
X-11082516Y-11106850D01*
X-11209773Y-11413320D01*
X-11210226Y-11932084D01*
X-11012122Y-12411532D01*
X-10645621Y-12778673D01*
X-10166520Y-12977613D01*
X-9647756Y-12978066D01*
X-9168308Y-12779962D01*
X-8801167Y-12413461D01*
X-8673016Y-12104840D01*
X-8432800Y-12104840D01*
X-8267863Y-12072032D01*
X-8128037Y-11978603D01*
X-7668102Y-11518668D01*
X-7529199Y-11576345D01*
X-7128359Y-11576695D01*
X-6757897Y-11423623D01*
X-6474213Y-11140434D01*
X-6415875Y-10999940D01*
X-4087586Y-10999940D01*
X-2987000Y-12100526D01*
X-2987000Y-13326045D01*
X-3006000Y-13326045D01*
X-3118655Y-13347243D01*
X-3222123Y-13413822D01*
X-3291535Y-13515410D01*
X-3315955Y-13636000D01*
X-3315955Y-13854519D01*
X-3505237Y-13665237D01*
X-3565929Y-13624684D01*
X-3645063Y-13571808D01*
X-3810000Y-13539000D01*
X-4901474Y-13539000D01*
X-5195132Y-13245342D01*
X-5194987Y-13079888D01*
X-5293265Y-12842039D01*
X-5475082Y-12659904D01*
X-5712759Y-12561212D01*
X-5970112Y-12560987D01*
X-6207961Y-12659265D01*
X-6390096Y-12841082D01*
X-6488788Y-13078759D01*
X-6489013Y-13336112D01*
X-6390735Y-13573961D01*
X-6208918Y-13756096D01*
X-5971241Y-13854788D01*
X-5804592Y-13854934D01*
X-5434329Y-14225197D01*
X-5479049Y-14269918D01*
X-5564000Y-14475007D01*
X-5564000Y-14646500D01*
X-5424500Y-14786000D01*
X-4760000Y-14786000D01*
X-4760000Y-14762000D01*
X-4352000Y-14762000D01*
X-4352000Y-14786000D01*
X-4332000Y-14786000D01*
X-4332000Y-15186000D01*
X-4352000Y-15186000D01*
X-4352000Y-15804500D01*
X-4212500Y-15944000D01*
X-3995007Y-15944000D01*
X-3789918Y-15859050D01*
X-3632951Y-15702082D01*
X-3564558Y-15536968D01*
X-3315955Y-15785571D01*
X-3315955Y-16336000D01*
X-3294757Y-16448655D01*
X-3228178Y-16552123D01*
X-3126590Y-16621535D01*
X-3006000Y-16645955D01*
X-2106000Y-16645955D01*
X-1993345Y-16624757D01*
X-1889877Y-16558178D01*
X-1820465Y-16456590D01*
X-1796045Y-16336000D01*
X-1796045Y-15536000D01*
X-1817243Y-15423345D01*
X-1883822Y-15319877D01*
X-1985410Y-15250465D01*
X-2106000Y-15226045D01*
X-2656429Y-15226045D01*
X-3125000Y-14757474D01*
X-3125000Y-14721857D01*
X-3006000Y-14745955D01*
X-2106000Y-14745955D01*
X-1993345Y-14724757D01*
X-1889877Y-14658178D01*
X-1820465Y-14556590D01*
X-1796045Y-14436000D01*
X-1796045Y-13636000D01*
X-1817243Y-13523345D01*
X-1883822Y-13419877D01*
X-1985410Y-13350465D01*
X-2106000Y-13326045D01*
X-2125000Y-13326045D01*
X-2125000Y-11922000D01*
X-2157808Y-11757063D01*
X-2251237Y-11617237D01*
X-3604297Y-10264177D01*
X-3623304Y-10251477D01*
X-3744123Y-10170748D01*
X-3909060Y-10137940D01*
X-6415782Y-10137940D01*
X-6473217Y-9998937D01*
X-6756406Y-9715253D01*
X-6896900Y-9656915D01*
X-6896900Y-9436100D01*
X-6929707Y-9271164D01*
X-7023137Y-9131337D01*
X-7376045Y-8778429D01*
X-7376045Y-8280773D01*
X-7160356Y-8280773D01*
X-6848312Y-9035977D01*
X-6271017Y-9614281D01*
X-5516358Y-9927642D01*
X-4699227Y-9928356D01*
X-3944023Y-9616312D01*
X-3365719Y-9039017D01*
X-3052358Y-8284358D01*
X-3051644Y-7467227D01*
X-3363688Y-6712023D01*
X-3940983Y-6133719D01*
X-4695642Y-5820358D01*
X-5512773Y-5819644D01*
X-6267977Y-6131688D01*
X-6846281Y-6708983D01*
X-7159642Y-7463642D01*
X-7160356Y-8280773D01*
X-7376045Y-8280773D01*
X-7376045Y-7128000D01*
X-7397243Y-7015345D01*
X-7463822Y-6911877D01*
X-7565410Y-6842465D01*
X-7686000Y-6818045D01*
X-9586000Y-6818045D01*
X-9698655Y-6839243D01*
X-9802123Y-6905822D01*
X-9871535Y-7007410D01*
X-9895955Y-7128000D01*
X-9895955Y-9128000D01*
X-9874757Y-9240655D01*
X-9808178Y-9344123D01*
X-9706590Y-9413535D01*
X-9586000Y-9437955D01*
X-7935571Y-9437955D01*
X-7758900Y-9614626D01*
X-7758900Y-9656822D01*
X-7897903Y-9714257D01*
X-8181587Y-9997446D01*
X-8335305Y-10367641D01*
X-8335655Y-10768481D01*
X-8277562Y-10909076D01*
X-8611326Y-11242840D01*
X-8673155Y-11242840D01*
X-8799878Y-10936148D01*
X-9166379Y-10569007D01*
X-9645480Y-10370067D01*
X-10164244Y-10369614D01*
X-10473088Y-10497226D01*
X-10718837Y-10251477D01*
X-10858663Y-10158048D01*
X-11023600Y-10125240D01*
X-11676122Y-10125240D01*
X-11733557Y-9986237D01*
X-12016746Y-9702553D01*
X-12386941Y-9548835D01*
X-12787781Y-9548485D01*
X-12844052Y-9571736D01*
X-12174772Y-8902456D01*
X-11887261Y-9190469D01*
X-11426530Y-9381782D01*
X-10927658Y-9382217D01*
X-10466594Y-9191709D01*
X-10113531Y-8839261D01*
X-9922218Y-8378530D01*
X-9921783Y-7879658D01*
X-10112291Y-7418594D01*
X-10464739Y-7065531D01*
X-10745000Y-6949156D01*
X-10745000Y-6718300D01*
X-10777808Y-6553363D01*
X-10871237Y-6413537D01*
X-11643592Y-5641182D01*
X-11585915Y-5502279D01*
X-11585565Y-5101439D01*
X-11643658Y-4960844D01*
X-11187974Y-4505160D01*
X-11138845Y-4505160D01*
X-11012122Y-4811852D01*
X-10645621Y-5178993D01*
X-10166520Y-5377933D01*
X-9647756Y-5378386D01*
X-9338912Y-5250774D01*
X-8971243Y-5618443D01*
X-8831417Y-5711872D01*
X-8666480Y-5744680D01*
X-8245098Y-5744680D01*
X-8187663Y-5883683D01*
X-7904474Y-6167367D01*
X-7534279Y-6321085D01*
X-7133439Y-6321435D01*
X-6762977Y-6168363D01*
X-6479293Y-5885174D01*
X-6325575Y-5514979D01*
X-6325225Y-5114139D01*
X-6478297Y-4743677D01*
X-6761486Y-4459993D01*
X-7131681Y-4306275D01*
X-7532521Y-4305925D01*
X-7902983Y-4458997D01*
X-8186667Y-4742186D01*
X-8245005Y-4882680D01*
X-8487954Y-4882680D01*
X-8729484Y-4641150D01*
X-8602227Y-4334680D01*
X-8601774Y-3815916D01*
X-8799878Y-3336468D01*
X-9166379Y-2969327D01*
X-9645480Y-2770387D01*
X-10164244Y-2769934D01*
X-10643692Y-2968038D01*
X-11010833Y-3334539D01*
X-11138984Y-3643160D01*
X-11366500Y-3643160D01*
X-11531437Y-3675968D01*
X-11671263Y-3769397D01*
X-12253118Y-4351252D01*
X-12392021Y-4293575D01*
X-12792861Y-4293225D01*
X-13163323Y-4446297D01*
X-13447007Y-4729486D01*
X-13600725Y-5099681D01*
X-13601075Y-5500521D01*
X-13448003Y-5870983D01*
X-13164814Y-6154667D01*
X-12794619Y-6308385D01*
X-12393779Y-6308735D01*
X-12253184Y-6250642D01*
X-11607000Y-6896826D01*
X-11607000Y-6949256D01*
X-11885406Y-7064291D01*
X-12238469Y-7416739D01*
X-12429782Y-7877470D01*
X-12429961Y-8082277D01*
X-12666784Y-8319100D01*
X-12652358Y-8284358D01*
X-12651644Y-7467227D01*
X-12963688Y-6712023D01*
X-13540983Y-6133719D01*
X-14295642Y-5820358D01*
X-15112773Y-5819644D01*
X-15867977Y-6131688D01*
X-16446281Y-6708983D01*
X-16759642Y-7463642D01*
X-16760356Y-8280773D01*
X-16448312Y-9035977D01*
X-15871017Y-9614281D01*
X-15116358Y-9927642D01*
X-14299227Y-9928356D01*
X-14259713Y-9912029D01*
X-14889484Y-10541800D01*
X-15682000Y-10541800D01*
X-15827496Y-10570741D01*
X-15950842Y-10653158D01*
X-16133729Y-10836045D01*
X-16906000Y-10836045D01*
X-17018655Y-10857243D01*
X-17122123Y-10923822D01*
X-17191535Y-11025410D01*
X-17215955Y-11146000D01*
X-18482500Y-11146000D01*
X-18482500Y-3197112D01*
X-18413708Y-2711943D01*
X-18414330Y-3425068D01*
X-18125074Y-4125121D01*
X-17589938Y-4661192D01*
X-16890391Y-4951669D01*
X-16132932Y-4952330D01*
X-15432879Y-4663074D01*
X-14896808Y-4127938D01*
X-14606331Y-3428391D01*
X-14605670Y-2670932D01*
X-14894926Y-1970879D01*
X-15430062Y-1434808D01*
X-16129609Y-1144331D01*
X-16862330Y-1143692D01*
X-16597314Y-1075500D01*
X-3332876Y-1075500D01*
X-2987126Y-1144274D01*
M02*
